<svg width="56" height="56" viewBox="0 0 56 56" version="1.1" xmlns="http://www.w3.org/2000/svg" xmlns:xlink="http://www.w3.org/1999/xlink">
<title>drone</title>
<desc>Created using Figma</desc>
<g id="Canvas" transform="translate(537 -60)">
<g id="drone">
<g id="Vector">
<use xlink:href="#path0_fill" transform="translate(-537 60)" fill="#35CCFF"/>
</g>
<g id="Vector">
<use xlink:href="#path1_fill" transform="translate(-536.981 88.9844)" fill="#7FA61D"/>
</g>
<g id="Vector">
<use xlink:href="#path2_fill" transform="translate(-509.005 88.9844)" fill="#7FA61D"/>
</g>
<g id="Vector">
<use xlink:href="#path3_fill" transform="translate(-531.826 88.9844)" fill="#006221"/>
</g>
<g id="Vector">
<use xlink:href="#path4_fill" transform="translate(-509.005 88.9844)" fill="#006221"/>
</g>
<g id="Vector">
<use xlink:href="#path5_fill" transform="translate(-520.645 88.9844)" fill="#7FA61D"/>
</g>
<g id="Vector">
<use xlink:href="#path6_fill" transform="translate(-509.005 88.9844)" fill="#7FA61D"/>
</g>
<g id="Vector">
<use xlink:href="#path7_fill" transform="translate(-521.055 79.1027)" fill="#483322"/>
</g>
<g id="Vector">
<use xlink:href="#path8_fill" transform="translate(-521.713 73.1173)" fill="#DB3F02"/>
</g>
<g id="Vector">
<use xlink:href="#path9_fill" transform="translate(-526.519 73.7637)" fill="#FFFFFF"/>
</g>
<g id="Vector">
<use xlink:href="#path10_fill" transform="translate(-498.355 73.1173)" fill="#DB3F02"/>
</g>
<g id="Vector">
<use xlink:href="#path11_fill" transform="translate(-503.16 73.7637)" fill="#FFFFFF"/>
</g>
<g id="Vector">
<use xlink:href="#path12_fill" transform="translate(-527.699 78.2383)" fill="#DB3F02"/>
</g>
</g>
</g>
<defs>
<path id="path0_fill" d="M 28 56C 43.464 56 56 43.464 56 28C 56 12.536 43.464 0 28 0C 12.536 0 0 12.536 0 28C 0 43.464 12.536 56 28 56Z"/>
<path id="path1_fill" d="M -3.25963e-10 0C 0.518766 15.0079 12.8465 27.0156 27.9809 27.0156C 43.1152 27.0156 55.443 15.0079 55.9617 0L -3.25963e-10 0Z"/>
<path id="path2_fill" d="M -4.53949e-07 0L -4.53949e-07 27.0156C 0.00174955 27.0156 0.0035 27.0156 0.00525 27.0156C 15.1396 27.0156 27.4673 15.0079 27.9861 0L -4.53949e-07 0Z"/>
<path id="path3_fill" d="M 29.1711 0L 16.4805 0L -8.67844e-08 15.2319C 5.07456 22.3634 13.4062 27.0156 22.8258 27.0156C 32.2454 27.0156 40.577 22.3634 45.6516 15.2319L 29.1711 0Z"/>
<path id="path4_fill" d="M 6.35053 0L -4.53949e-07 0L -4.53949e-07 27.0156C 0.00174955 27.0156 0.0035 27.0156 0.00525 27.0156C 9.42484 27.0156 17.7565 22.3634 22.831 15.2319L 6.35053 0Z"/>
<path id="path5_fill" d="M 4.00543e-07 24.4845C 3.54605 26.1086 7.48902 27.0156 11.6446 27.0156C 15.8002 27.0156 19.7432 26.1086 23.2892 24.4845L 13.8948 0L 9.39444 0L 4.00543e-07 24.4845Z"/>
<path id="path6_fill" d="M 11.6497 24.4845L 2.25531 0L 3.20435e-07 0L 3.20435e-07 27.0155C 0.00175032 27.0155 0.00350077 27.0156 0.00525077 27.0156C 4.16074 27.0156 8.1037 26.1086 11.6497 24.4845Z"/>
<path id="path7_fill" d="M 24.1102 11.4877L 21.7039 11.4877C 21.7039 7.28809 17.4892 2.40636 12.0551 2.40636C 6.62102 2.40636 2.40625 7.28809 2.40625 11.4877L -2.53677e-07 11.4877C -2.53677e-07 8.71259 1.28822 5.84402 3.53456 3.61736C 5.88788 1.28472 8.91384 -1.33514e-08 12.055 -1.33514e-08C 15.1961 -1.33514e-08 18.2222 1.28472 20.5754 3.61736C 22.8219 5.84402 24.1102 8.71259 24.1102 11.4877Z"/>
<path id="path8_fill" d="M 2.06708 0L 0 0L 0 7.1575L 2.06708 7.1575L 2.06708 0Z"/>
<path id="path9_fill" d="M 11.6791 0L 0 0L 0 2.06708L 11.6791 2.06708L 11.6791 0Z"/>
<path id="path10_fill" d="M 2.06708 0L 0 0L 0 7.1575L 2.06708 7.1575L 2.06708 0Z"/>
<path id="path11_fill" d="M 11.6791 0L 0 0L 0 2.06708L 11.6791 2.06708L 11.6791 0Z"/>
<path id="path12_fill" d="M 37.3986 0L 4.00543e-07 0L 4.00543e-07 3.18664L 6.30678 3.18664C 7.67452 3.18664 8.89076 4.05672 9.33253 5.35117C 9.7743 6.64563 10.9905 7.5157 12.3583 7.5157L 25.0403 7.5157C 26.408 7.5157 27.6243 6.64563 28.0661 5.35117C 28.5078 4.05672 29.7241 3.18664 31.0918 3.18664L 37.3986 3.18664L 37.3986 0Z"/>
</defs>
</svg>
