<svg width="76" height="20" viewBox="0 0 76 20" version="1.1" xmlns="http://www.w3.org/2000/svg" xmlns:xlink="http://www.w3.org/1999/xlink">
<title>path96</title>
<desc>Created using Figma</desc>
<g id="Canvas" transform="translate(1042 -1231)">
<g id="path96">
<use xlink:href="#path0_fill" transform="translate(-1042 1231)" fill="#483322"/>
</g>
</g>
<defs>
<path id="path0_fill" fill-rule="evenodd" d="M 3.98147 2.01368C 4.9067 2.07 5.59478 2.3534 6.04502 2.86507C 6.49561 3.37639 6.7211 4.06752 6.7211 4.93857C 6.7211 5.29795 6.64192 5.63176 6.4836 5.93916C 6.32529 6.24695 6.11017 6.51657 5.83827 6.74841C 5.56641 6.98021 5.24974 7.16209 4.8887 7.29397C 4.52726 7.42581 4.14782 7.49153 3.74998 7.49153L 2.06989 7.49153L 2.06989 9.61309L 0.998356 9.61309L 0.998356 3.27247C 0.860422 3.26456 0.730473 3.25235 0.608949 3.23663C 0.486983 3.22048 0.365455 3.18861 0.243489 3.14058L 0.243489 2.13374C 0.405816 2.17352 0.574145 2.20184 0.748867 2.2176C 0.923193 2.23371 1.08354 2.24161 1.22989 2.24161C 1.44096 2.24161 1.64568 2.22979 1.8448 2.20578C 2.04351 2.18176 2.24422 2.15775 2.44735 2.13374C 2.65846 2.09362 2.86516 2.06371 3.06829 2.044C 3.27098 2.02393 3.49048 2.01368 3.72559 2.01368L 3.98147 2.01368ZM 5.75913 4.88469C 5.75913 4.669 5.73871 4.45722 5.69835 4.24543C 5.65755 4.0337 5.57242 3.84593 5.44247 3.67787C 5.31252 3.51021 5.1258 3.37048 4.8823 3.26027C 4.63881 3.1485 4.31416 3.08079 3.90834 3.05677C 3.68121 3.05677 3.41134 3.06463 3.09869 3.08079C 2.78599 3.09651 2.44333 3.14848 2.06989 3.23663L 2.06989 6.44889L 3.74998 6.44889C 4.01787 6.44889 4.26978 6.41266 4.50484 6.34101C 4.74035 6.26897 4.94948 6.16309 5.13219 6.02535C 5.3145 5.88522 5.46086 5.71952 5.57038 5.5298C 5.67995 5.33812 5.74272 5.12239 5.75913 4.88469ZM 11.6762 9.74492C 11.1244 9.74492 10.607 9.64301 10.124 9.43909C 9.64105 9.2356 9.22081 8.95577 8.86377 8.60034C 8.50674 8.24452 8.22245 7.83122 8.01134 7.35968C 7.80022 6.88813 7.69506 6.38079 7.69506 5.83759C 7.69506 5.30191 7.80022 4.79849 8.01134 4.32733C 8.22245 3.85579 8.50674 3.44207 8.86377 3.08664C 9.22081 2.73082 9.64105 2.4514 10.124 2.24752C 10.607 2.04399 11.1244 1.94206 11.6762 1.94206C 12.2283 1.94206 12.7477 2.04399 13.2347 2.24752C 13.7217 2.4514 14.1459 2.73082 14.5069 3.08664C 14.8684 3.44207 15.1543 3.85579 15.3654 4.32733C 15.5765 4.79849 15.6821 5.30191 15.6821 5.83759C 15.6821 6.38079 15.5765 6.88813 15.3654 7.35968C 15.1543 7.83122 14.8684 8.24452 14.5069 8.60034C 14.1459 8.95577 13.7217 9.2356 13.2347 9.43909C 12.7477 9.64301 12.2283 9.74492 11.6762 9.74492ZM 11.6826 2.98474C 11.2767 2.98474 10.8993 3.06068 10.5458 3.21262C 10.1948 3.36417 9.88652 3.56805 9.62265 3.82391C 9.35878 4.07933 9.15204 4.38127 8.99774 4.72879C 8.84339 5.07636 8.7662 5.44595 8.7662 5.83759C 8.7662 6.2371 8.84339 6.61065 8.99774 6.95822C 9.15204 7.30579 9.35878 7.60728 9.62265 7.8631C 9.88652 8.11895 10.1948 8.32242 10.5458 8.47436C 10.8993 8.6263 11.2767 8.70227 11.6826 8.70227C 12.0964 8.70227 12.4798 8.6263 12.8369 8.47436C 13.1923 8.32242 13.5026 8.11895 13.7665 7.8631C 14.0304 7.60728 14.235 7.30579 14.3854 6.95822C 14.5357 6.61065 14.6105 6.2371 14.6105 5.83759C 14.6105 5.44595 14.5357 5.07636 14.3854 4.72879C 14.235 4.38127 14.0304 4.07933 13.7665 3.82391C 13.5026 3.56805 13.1923 3.36417 12.8369 3.21262C 12.4798 3.06068 12.0964 2.98474 11.6826 2.98474ZM 25.7149 7.8989C 26.2099 7.94693 26.5997 8.04298 26.8836 8.18663C 27.1679 8.33072 27.383 8.48658 27.5289 8.65425C 27.6753 8.82195 27.7684 8.98764 27.8092 9.15178C 27.8496 9.31549 27.87 9.44147 27.87 9.52923L 27.87 9.61309C 27.8536 9.80476 27.7988 9.98662 27.7056 10.1586C 27.6121 10.3302 27.4926 10.4782 27.3462 10.6018C 27.2003 10.7258 27.032 10.8238 26.8412 10.8955C 26.6505 10.9675 26.4454 11.0033 26.2263 11.0033L 26.1287 11.0033C 25.7637 10.9797 25.439 10.9057 25.1547 10.7817C 24.8709 10.6577 24.619 10.5062 24.3999 10.3263C 24.1808 10.1464 23.99 9.95475 23.8277 9.75083C 23.6654 9.54734 23.5235 9.35328 23.4015 9.16946C 23.2959 9.19347 23.154 9.21553 22.9753 9.23559C 22.797 9.25569 22.6506 9.27733 22.5371 9.30135C 21.9849 9.42141 21.3764 9.53514 20.7107 9.64301C 20.045 9.75083 19.3877 9.80477 18.7383 9.80477C 18.4297 9.80477 18.1114 9.79099 17.7823 9.76302C 17.4537 9.7351 17.119 9.68117 16.778 9.60127L 16.778 8.64203C 16.778 8.55427 16.7819 8.50624 16.7904 8.49837L 16.7904 2.08571L 17.8615 2.08571L 17.8615 8.69005C 18.1398 8.71407 18.4157 8.72628 18.6935 8.72628C 19.0182 8.72628 19.3776 8.71018 19.7691 8.67826C 20.1609 8.64639 20.5059 8.60625 20.8082 8.55822L 20.8082 2.08571L 21.9038 2.08571L 21.9038 8.35472C 21.9689 8.33857 22.0377 8.32242 22.1109 8.3067C 22.184 8.29054 22.2528 8.27483 22.318 8.25867C 22.683 8.18663 23.0728 8.11698 23.4867 8.04889C 23.9009 7.9808 24.2783 7.92689 24.619 7.88711C 24.6677 7.5675 24.6921 7.21997 24.6921 6.84443C 24.6921 6.68463 24.6882 6.5205 24.6797 6.35283C 24.6718 6.18517 24.6638 6.02141 24.6558 5.86161C 24.6558 5.83759 24.6536 5.81358 24.6494 5.78957C 24.6454 5.76555 24.6434 5.74153 24.6434 5.71756C 24.6354 5.5416 24.6274 5.36805 24.619 5.19601C 24.611 5.02439 24.607 4.85477 24.607 4.68668C 24.607 4.2553 24.6474 3.85383 24.7285 3.48225C 24.8097 3.11066 24.9804 2.78912 25.2399 2.51715C 25.6377 2.09363 26.2343 1.88184 27.03 1.88184L 27.03 2.96072C 26.5429 2.96072 26.2099 3.05678 26.0316 3.24845C 25.8936 3.38424 25.8021 3.57988 25.7573 3.83573C 25.7129 4.09155 25.6905 4.37498 25.6905 4.68668C 25.6905 4.84648 25.6945 5.00631 25.7025 5.16611C 25.7109 5.32591 25.7189 5.49003 25.7269 5.65774C 25.7433 5.85727 25.7553 6.05919 25.7637 6.26307C 25.7717 6.4666 25.7757 6.67244 25.7757 6.88027C 25.7757 7.05622 25.7717 7.22782 25.7637 7.39548C 25.7553 7.56358 25.7393 7.73124 25.7149 7.8989ZM 24.5094 8.89398C 24.5826 9.06989 24.6902 9.22538 24.8321 9.36156C 24.974 9.49735 25.1283 9.61109 25.2947 9.7028C 25.461 9.79491 25.6234 9.86461 25.7817 9.91264C 25.94 9.96062 26.0759 9.98462 26.1899 9.98462C 26.2547 9.98462 26.3258 9.97676 26.4026 9.96061C 26.4798 9.94489 26.553 9.91893 26.6221 9.88272C 26.6909 9.84689 26.7497 9.79692 26.7984 9.73313C 26.8472 9.66899 26.8716 9.59302 26.8716 9.50522C 26.8716 9.38519 26.8288 9.28128 26.7437 9.19347C 26.6585 9.10571 26.5489 9.03367 26.415 8.97778C 26.281 8.9219 26.1327 8.87978 25.9704 8.85186C 25.8081 8.8239 25.6541 8.81012 25.5078 8.81012C 25.3375 8.81012 25.1711 8.81798 25.0088 8.83413C 24.8465 8.84985 24.6797 8.86996 24.5094 8.89398ZM 35.6502 2.07392L 35.6502 9.6371L 34.5787 9.6371L 34.5787 3.84792L 30.0738 9.6371L 29.0875 9.6371L 29.0875 2.07392L 30.159 2.07392L 30.159 7.75525L 34.6274 2.07392L 35.6502 2.07392ZM 43.686 2.07392L 43.686 9.61309L 42.6144 9.61309L 42.6144 6.25676L 38.1827 6.25676L 38.1827 9.61309L 37.1112 9.61309L 37.1112 2.07392L 38.1827 2.07392L 38.1827 5.21411L 42.6144 5.21411L 42.6144 2.07392L 43.686 2.07392ZM 52.5134 7.14398C 52.351 7.59938 52.1035 8.01504 51.7705 8.39053C 51.4378 8.76606 51.032 9.07383 50.553 9.31354C 49.9848 9.59302 49.3883 9.73313 48.7634 9.73313C 48.3735 9.73313 48.0001 9.68313 47.6431 9.58316C 47.286 9.4832 46.9533 9.33951 46.6447 9.15178C 46.3364 8.96402 46.0581 8.73808 45.8106 8.47436C 45.5631 8.21065 45.354 7.9111 45.1837 7.57534C 45.0458 7.2959 44.9422 7.00819 44.873 6.7126C 44.8043 6.41662 44.7699 6.12493 44.7699 5.83759C 44.7699 5.47782 44.8203 5.1224 44.9218 4.77053C 45.0234 4.41906 45.1673 4.08959 45.354 3.7818C 45.5407 3.47439 45.7722 3.19453 46.0482 2.94262C 46.324 2.69111 46.6367 2.47736 46.9857 2.30141C 47.5703 2.02197 48.1748 1.88184 48.7997 1.88184C 49.1812 1.88184 49.5486 1.93182 49.9017 2.03178C 50.2547 2.13178 50.5854 2.27545 50.8941 2.46321C 51.2023 2.65094 51.4806 2.87686 51.7281 3.14058C 51.9756 3.4043 52.1847 3.70384 52.355 4.0396C 52.4442 4.20726 52.5173 4.37103 52.5741 4.53083C 52.2819 4.53083 52.0588 4.52866 51.9044 4.52492C 51.7505 4.52101 51.6365 4.51901 51.5638 4.51901C 51.4906 4.51901 51.4458 4.51683 51.4298 4.5131C 51.4134 4.50919 51.4054 4.50682 51.4054 4.50682C 51.1619 4.01165 50.8069 3.62394 50.3399 3.3445C 49.8733 3.06463 49.3599 2.92489 48.7997 2.92489C 48.3208 2.92489 47.8745 3.0288 47.4603 3.23663C 47.2008 3.36417 46.9713 3.52199 46.7726 3.70976C 46.5739 3.89753 46.4052 4.10535 46.2672 4.33324C 46.1293 4.56074 46.0238 4.8028 45.9506 5.05826C 45.8778 5.31412 45.841 5.57388 45.841 5.83759C 45.841 6.27688 45.9426 6.7004 46.1457 7.10815C 46.3892 7.60332 46.7442 7.99101 47.2108 8.27049C 47.6778 8.55032 48.1952 8.69005 48.7634 8.69005C 49.2016 8.69005 49.6398 8.58614 50.0784 8.37831C 50.3623 8.24252 50.6142 8.06701 50.8333 7.85128C 51.0524 7.6352 51.2307 7.39984 51.369 7.14398L 52.5134 7.14398ZM 58.2361 7.11997C 58.382 7.41556 58.5219 7.68517 58.6559 7.92883C 58.7898 8.17287 58.9318 8.38266 59.0821 8.55822C 59.2324 8.73413 59.3968 8.86998 59.5751 8.96599C 59.7538 9.06165 59.9649 9.10967 60.2084 9.10967L 60.2084 10.1523C 59.7942 10.1523 59.4352 10.0724 59.1309 9.91264C 58.8266 9.75284 58.5608 9.5493 58.3332 9.30135C 58.1062 9.05378 57.909 8.77825 57.7427 8.47436C 57.5764 8.17091 57.42 7.8749 57.2741 7.58756C 57.2093 7.44352 57.1401 7.30183 57.067 7.16209C 56.9942 7.02196 56.9171 6.8842 56.8359 6.74841C 56.7139 6.83617 56.5924 6.91017 56.4704 6.97001C 56.3489 7.03024 56.2269 7.07589 56.1054 7.10815C 56.0158 7.14793 55.9083 7.17586 55.7827 7.19201C 55.6568 7.20777 55.5532 7.22388 55.4721 7.24004L 55.4721 9.61309L 54.4129 9.61309L 54.4129 7.22782C 54.297 7.2038 54.1978 7.16993 54.1102 7.12586C 54.0251 7.08217 53.9479 7.03221 53.8832 6.97632C 53.6944 6.84014 53.5505 6.67047 53.453 6.46659C 53.3534 6.26306 53.305 6.04503 53.305 5.81358L 53.305 5.74154C 53.321 5.47783 53.4002 5.23616 53.5441 5.01652C 53.6884 4.79649 53.8792 4.62689 54.1166 4.50682C 54.1571 4.49106 54.2058 4.47099 54.2586 4.44697C 54.3114 4.42296 54.3762 4.40329 54.4493 4.38718L 54.4493 2.07392L 55.4965 2.07392L 55.4965 4.43515C 55.618 4.46707 55.7683 4.51311 55.9511 4.57295C 56.1338 4.63279 56.2961 4.71068 56.442 4.80674C 56.5476 4.87049 56.6452 4.93663 56.7323 5.00433C 56.8215 5.07242 56.9107 5.1464 57.0002 5.2263C 57.0814 5.13815 57.1606 5.04645 57.2353 4.95039C 57.3125 4.85477 57.3917 4.75481 57.4728 4.6509C 57.7795 4.22733 58.0126 3.79399 58.1689 3.35036C 58.3272 2.90678 58.4064 2.48522 58.4064 2.08571L 59.478 2.08571C 59.478 2.59704 59.3804 3.12247 59.1857 3.6621C 58.991 4.20135 58.7107 4.7308 58.3456 5.24994C 58.2317 5.40189 58.1181 5.54792 58.0046 5.68766C 57.891 5.82736 57.7731 5.95727 57.6515 6.0773C 57.7651 6.245 57.8686 6.41663 57.9618 6.59254C 58.0553 6.76849 58.1465 6.94406 58.2361 7.11997ZM 54.9223 6.34101C 55.0195 6.34101 55.131 6.32882 55.257 6.30481C 55.3809 6.2808 55.5064 6.24892 55.6324 6.20918C 55.7584 6.16901 55.8819 6.12297 56.0018 6.07099C 56.1234 6.01905 56.225 5.96948 56.3061 5.92145C 56.1358 5.76951 55.9167 5.63567 55.6444 5.51994C 55.3725 5.40382 55.117 5.34599 54.8735 5.34599C 54.7272 5.34599 54.6096 5.39401 54.5165 5.49002C 54.4229 5.58568 54.3762 5.70577 54.3762 5.84941C 54.3762 5.88129 54.3801 5.92341 54.3886 5.97539C 54.3965 6.02732 54.4189 6.07925 54.4553 6.13123C 54.4921 6.18317 54.5469 6.22885 54.6196 6.26898C 54.6928 6.30875 54.7924 6.33276 54.9223 6.34101ZM 67.9763 2.07392L 67.9763 9.6371L 66.9047 9.6371L 66.9047 3.84792L 62.3999 9.6371L 61.4135 9.6371L 61.4135 2.07392L 62.4851 2.07392L 62.4851 7.75525L 66.9535 2.07392L 67.9763 2.07392ZM 74.4171 1.10289C 74.2792 1.05486 74.1532 1.02103 74.0397 1.00092C 73.9261 0.980862 73.8166 0.971001 73.711 0.971001C 73.5811 0.971001 73.4615 0.980862 73.3516 1.00092C 73.242 1.02103 73.1265 1.04307 73.0049 1.06708C 72.9885 1.06708 72.9765 1.06923 72.9681 1.07296C 72.9601 1.07687 72.9521 1.07887 72.9438 1.07887C 72.7978 1.11075 72.6494 1.14108 72.4995 1.16904C 72.3492 1.19696 72.1928 1.21076 72.0305 1.21076C 71.909 1.21076 71.783 1.2009 71.6531 1.18084C 71.5236 1.16073 71.3896 1.12297 71.2513 1.06708L 71.2513 0.0240069C 71.3896 0.112158 71.5236 0.170058 71.6531 0.19798C 71.783 0.225946 71.909 0.240095 72.0305 0.240095C 72.1445 0.240095 72.262 0.22988 72.384 0.209775C 72.5055 0.190103 72.6315 0.164143 72.7614 0.131879C 72.8993 0.0921021 73.0453 0.060239 73.1996 0.0362253C 73.3539 0.0122116 73.5163 -5.93694e-06 73.6866 -5.93694e-06C 73.8002 -5.93694e-06 73.9157 0.00824378 74.0337 0.0240069C 74.1512 0.0401607 74.2792 0.068096 74.4171 0.108264L 74.4171 1.10289ZM 76 2.07392L 76 9.6371L 74.9285 9.6371L 74.9285 3.84792L 70.4236 9.6371L 69.4373 9.6371L 69.4373 2.07392L 70.5088 2.07392L 70.5088 7.75525L 74.9772 2.07392L 76 2.07392ZM 4.35893 16.0324L 7.41478 19.8799L 6.0758 19.8799L 3.70119 16.8716L 1.31502 19.8799L -3.06922e-06 19.8799L 3.0439 16.0324L 0.121965 12.329L 1.4366 12.329L 3.70119 15.1936L 5.97823 12.329L 7.29326 12.329L 4.35893 16.0324ZM 14.367 12.329C 14.1071 12.6804 13.8496 13.126 13.5937 13.6653C 13.3382 14.2045 13.1048 14.7941 12.8936 15.4334C 12.7881 15.7451 12.6786 16.0726 12.565 16.4162C 12.4514 16.7598 12.3135 17.0975 12.1512 17.4289C 11.9888 17.7608 11.7981 18.076 11.579 18.376C 11.3595 18.6755 11.094 18.9392 10.7814 19.1671C 10.4687 19.3946 10.1056 19.5745 9.69142 19.7064C 9.27762 19.8382 8.79461 19.9039 8.24283 19.9039L 8.24283 18.7534C 8.5591 18.7534 8.84339 18.7274 9.09487 18.6755C 9.34678 18.6235 9.56986 18.5495 9.76461 18.4539C 9.95931 18.3579 10.134 18.2382 10.2884 18.0941C 10.4423 17.9504 10.5846 17.7867 10.7142 17.6029L 7.90181 12.329L 9.14366 12.329L 11.3595 16.5358C 11.4814 16.1843 11.597 15.8329 11.7065 15.4814C 11.8161 15.1295 11.9341 14.7799 12.0596 14.4324C 12.1855 14.0849 12.3275 13.7353 12.4858 13.3835C 12.6441 13.0319 12.8369 12.6804 13.0643 12.329L 14.367 12.329ZM 22.1349 12.3408C 22.1268 12.6045 22.0841 12.8501 22.0073 13.078C 21.9301 13.3059 21.8186 13.5055 21.6722 13.6775C 21.5263 13.8491 21.3416 13.9849 21.1185 14.0848C 20.895 14.1848 20.6375 14.2348 20.3452 14.2348C 20.1097 14.2348 19.8826 14.2128 19.6635 14.1687C 19.444 14.1246 19.2089 14.0589 18.957 13.9711L 18.957 19.8681L 17.8859 19.8681L 17.8859 13.5515C 17.7072 13.4874 17.5205 13.4354 17.3257 13.3957C 17.131 13.3555 16.9359 13.3358 16.7412 13.3358C 16.5301 13.3358 16.3374 13.3717 16.163 13.4437C 15.9883 13.5153 15.8971 13.6751 15.8888 13.9231L 14.854 13.9231C 14.854 13.6594 14.9048 13.4275 15.0063 13.228C 15.1075 13.028 15.2438 12.8623 15.4142 12.7304C 15.5845 12.5986 15.7856 12.4986 16.0167 12.4309C 16.2482 12.3628 16.4977 12.329 16.7656 12.329C 17.1714 12.329 17.5348 12.3746 17.8551 12.4667C 18.1758 12.5584 18.472 12.6604 18.7439 12.7722C 19.0162 12.8843 19.2797 12.9859 19.5356 13.078C 19.791 13.1697 20.057 13.2157 20.3328 13.2157C 20.4872 13.2157 20.6131 13.2 20.7103 13.1677C 20.8078 13.1358 20.883 13.0859 20.9358 13.0182C 20.9886 12.9501 21.0249 12.8603 21.0453 12.7486C 21.0657 12.6364 21.0797 12.5006 21.0877 12.3408L 22.1349 12.3408ZM 26.7249 20C 26.1731 20 25.6557 19.898 25.1727 19.6942C 24.6898 19.4907 24.2695 19.2108 23.9125 18.8554C 23.5555 18.4996 23.2712 18.0863 23.06 17.6147C 22.8489 17.1432 22.7438 16.6358 22.7438 16.0926C 22.7438 15.5569 22.8489 15.0535 23.06 14.5824C 23.2712 14.1108 23.5555 13.6972 23.9125 13.3417C 24.2695 12.9859 24.6898 12.7064 25.1727 12.5025C 25.6557 12.2991 26.1731 12.1971 26.7249 12.1971C 27.277 12.1971 27.7964 12.2991 28.2834 12.5025C 28.7704 12.7064 29.1946 12.9859 29.5556 13.3417C 29.9171 13.6972 30.203 14.1108 30.4141 14.5824C 30.6252 15.0535 30.7308 15.5569 30.7308 16.0926C 30.7308 16.6358 30.6252 17.1432 30.4141 17.6147C 30.203 18.0863 29.9171 18.4996 29.5556 18.8554C 29.1946 19.2108 28.7704 19.4907 28.2834 19.6942C 27.7964 19.898 27.277 20 26.7249 20ZM 26.7313 13.2398C 26.3254 13.2398 25.948 13.3158 25.5946 13.4677C 25.2435 13.6192 24.9352 13.8231 24.6714 14.0789C 24.4075 14.3344 24.2007 14.6363 24.0464 14.9839C 23.8921 15.3314 23.8149 15.701 23.8149 16.0926C 23.8149 16.4922 23.8921 16.8657 24.0464 17.2132C 24.2007 17.5608 24.4075 17.8623 24.6714 18.1181C 24.9352 18.374 25.2435 18.5775 25.5946 18.7294C 25.948 18.8814 26.3254 18.9573 26.7313 18.9573C 27.1451 18.9573 27.5285 18.8814 27.8856 18.7294C 28.241 18.5775 28.5513 18.374 28.8152 18.1181C 29.079 17.8623 29.2837 17.5608 29.4341 17.2132C 29.5845 16.8657 29.6592 16.4922 29.6592 16.0926C 29.6592 15.701 29.5845 15.3314 29.4341 14.9839C 29.2837 14.6363 29.079 14.3344 28.8152 14.0789C 28.5513 13.8231 28.241 13.6192 27.8856 13.4677C 27.5285 13.3158 27.1451 13.2398 26.7313 13.2398ZM 35.3212 12.2688C 36.2464 12.325 36.9345 12.6084 37.3847 13.1201C 37.8353 13.6314 38.0608 14.3226 38.0608 15.1936C 38.0608 15.553 37.9816 15.8868 37.8233 16.1942C 37.665 16.502 37.4498 16.7716 37.178 17.0035C 36.9061 17.2353 36.5894 17.4171 36.2284 17.549C 35.8669 17.6808 35.4875 17.7466 35.0896 17.7466L 33.4096 17.7466L 33.4096 19.8681L 32.3381 19.8681L 32.3381 13.5275C 32.2001 13.5196 32.0702 13.5074 31.9486 13.4917C 31.8267 13.4756 31.7051 13.4436 31.5832 13.3957L 31.5832 12.3888C 31.7455 12.4286 31.9139 12.4569 32.0886 12.4726C 32.2629 12.4888 32.4232 12.4966 32.5696 12.4966C 32.7807 12.4966 32.9854 12.4848 33.1845 12.4608C 33.3832 12.4368 33.5839 12.4128 33.787 12.3888C 33.9981 12.3487 34.2048 12.3187 34.408 12.2991C 34.6107 12.279 34.8302 12.2688 35.0653 12.2688L 35.3212 12.2688ZM 37.0988 15.1397C 37.0988 14.924 37.0784 14.7122 37.038 14.5005C 36.9973 14.2887 36.9121 14.101 36.7821 13.9329C 36.6522 13.7652 36.4655 13.6255 36.222 13.5153C 35.9785 13.4035 35.6538 13.3358 35.248 13.3118C 35.0209 13.3118 34.751 13.3197 34.4384 13.3358C 34.1257 13.3515 33.783 13.4035 33.4096 13.4917L 33.4096 16.7039L 35.0896 16.7039C 35.3575 16.7039 35.6094 16.6677 35.8446 16.5961C 36.08 16.524 36.2891 16.4182 36.4719 16.2804C 36.6542 16.1403 36.8005 15.9745 36.9101 15.7848C 37.0196 15.5931 37.0824 15.3775 37.0988 15.1397Z"/>
</defs>
</svg>
