<svg width="164" height="147" viewBox="0 0 164 147" version="1.1" xmlns="http://www.w3.org/2000/svg" xmlns:xlink="http://www.w3.org/1999/xlink">
<title>&#208;&#187;&#208;&#190;&#208;&#179;&#208;&#190;&#209;&#130;&#208;&#184;&#208;&#191; &#208;&#160;&#208;&#190;&#209;&#137;&#208;&#184;&#208;&#189;&#209;&#129;&#208;&#186;&#208;&#184;&#208;&#185; &#209;&#133;&#209;&#131;&#209;&#130;&#208;&#190;&#209;&#128;</title>
<desc>Created using Figma</desc>
<g id="Canvas" transform="translate(-6023 453)">
<g id="&#208;&#187;&#208;&#190;&#208;&#179;&#208;&#190;&#209;&#130;&#208;&#184;&#208;&#191; &#208;&#160;&#208;&#190;&#209;&#137;&#208;&#184;&#208;&#189;&#209;&#129;&#208;&#186;&#208;&#184;&#208;&#185; &#209;&#133;&#209;&#131;&#209;&#130;&#208;&#190;&#209;&#128;">
<g id="Layer1000">
<g id="path2">
<use xlink:href="#path0_fill" transform="translate(6023.74 -449.185)" fill="#7FA61D"/>
</g>
<g id="path4">
<use xlink:href="#path1_fill" transform="translate(6061.32 -453)" fill="#006221"/>
</g>
<g id="path6">
<use xlink:href="#path2_fill" transform="translate(6030.35 -419.499)" fill="#006221"/>
</g>
<g id="path8">
<use xlink:href="#path3_fill" transform="translate(6045.83 -422.381)" fill="#006221"/>
</g>
<g id="path10">
<use xlink:href="#path4_fill" transform="translate(6049.31 -412.929)" fill="#006221"/>
</g>
<g id="path12">
<use xlink:href="#path5_fill" transform="translate(6027.2 -403.71)" fill="#006221"/>
</g>
<g id="path14">
<use xlink:href="#path6_fill" transform="translate(6036.63 -400.22)" fill="#006221"/>
</g>
<g id="path16">
<use xlink:href="#path7_fill" transform="translate(6027.64 -429.249)" fill="#006221"/>
</g>
<g id="path18">
<use xlink:href="#path8_fill" transform="translate(6036.38 -425.102)" fill="#006221"/>
</g>
<g id="path20">
<use xlink:href="#path9_fill" transform="translate(6037.53 -442.211)" fill="#006221"/>
</g>
<g id="path22">
<use xlink:href="#path10_fill" transform="translate(6047.87 -437.839)" fill="#006221"/>
</g>
<g id="path24">
<use xlink:href="#path11_fill" transform="translate(6055.81 -433.338)" fill="#006221"/>
</g>
<g id="path26">
<use xlink:href="#path12_fill" transform="translate(6036.22 -440.361)" fill="#006221"/>
</g>
<g id="path28">
<use xlink:href="#path13_fill" transform="translate(6043.24 -433.803)" fill="#006221"/>
</g>
<g id="path30">
<use xlink:href="#path14_fill" transform="translate(6024.8 -392.848)" fill="#006221"/>
</g>
<g id="path32">
<use xlink:href="#path15_fill" transform="translate(6031.84 -387.108)" fill="#006221"/>
</g>
<g id="path34">
<use xlink:href="#path16_fill" transform="translate(6023 -417.008)" fill="#006221"/>
</g>
<g id="path36">
<use xlink:href="#path17_fill" transform="translate(6026.77 -408.626)" fill="#006221"/>
</g>
<g id="path38">
<use xlink:href="#path18_fill" transform="translate(6054.32 -414.03)" fill="#006221"/>
</g>
<g id="path40">
<use xlink:href="#path19_fill" transform="translate(6057.34 -405.453)" fill="#006221"/>
</g>
<g id="path42">
<use xlink:href="#path20_fill" transform="translate(6050.6 -449.371)" fill="#006221"/>
</g>
<g id="path44">
<use xlink:href="#path21_fill" transform="translate(6054.66 -443.236)" fill="#006221"/>
</g>
<g id="path46">
<use xlink:href="#path22_fill" transform="translate(6052.31 -426.571)" fill="#006221"/>
</g>
<g id="path48">
<use xlink:href="#path23_fill" transform="translate(6058.14 -420.256)" fill="#006221"/>
</g>
<g id="path50">
<use xlink:href="#path24_fill" transform="translate(6037.03 -393.715)" fill="#006221"/>
</g>
<g id="path52">
<use xlink:href="#path25_fill" transform="translate(6038.25 -378.89)" fill="#006221"/>
</g>
<g id="path54">
<use xlink:href="#path26_fill" transform="translate(6046.98 -375.666)" fill="#006221"/>
</g>
<g id="path56">
<use xlink:href="#path27_fill" transform="translate(6088.76 -419.499)" fill="#006221"/>
</g>
<g id="path58">
<use xlink:href="#path28_fill" transform="translate(6077.83 -422.381)" fill="#006221"/>
</g>
<g id="path60">
<use xlink:href="#path29_fill" transform="translate(6081.32 -412.929)" fill="#006221"/>
</g>
<g id="path62">
<use xlink:href="#path30_fill" transform="translate(6101.26 -402.249)" fill="#006221"/>
</g>
<g id="path64">
<use xlink:href="#path31_fill" transform="translate(6090.78 -429.249)" fill="#006221"/>
</g>
<g id="path66">
<use xlink:href="#path32_fill" transform="translate(6084.84 -425.102)" fill="#006221"/>
</g>
<g id="path68">
<use xlink:href="#path33_fill" transform="translate(6065.32 -442.211)" fill="#006221"/>
</g>
<g id="path70">
<use xlink:href="#path34_fill" transform="translate(6071.56 -437.839)" fill="#006221"/>
</g>
<g id="path72">
<use xlink:href="#path35_fill" transform="translate(6066.49 -433.338)" fill="#006221"/>
</g>
<g id="path74">
<use xlink:href="#path36_fill" transform="translate(6084.76 -440.361)" fill="#006221"/>
</g>
<g id="path76">
<use xlink:href="#path37_fill" transform="translate(6084.09 -433.803)" fill="#006221"/>
</g>
<g id="path78">
<use xlink:href="#path38_fill" transform="translate(6100.49 -417.008)" fill="#006221"/>
</g>
<g id="path80">
<use xlink:href="#path39_fill" transform="translate(6101.29 -408.626)" fill="#006221"/>
</g>
<g id="path82">
<use xlink:href="#path40_fill" transform="translate(6070.36 -414.03)" fill="#006221"/>
</g>
<g id="path84">
<use xlink:href="#path41_fill" transform="translate(6074 -405.453)" fill="#006221"/>
</g>
<g id="path86">
<use xlink:href="#path42_fill" transform="translate(6073.48 -449.371)" fill="#006221"/>
</g>
<g id="path88">
<use xlink:href="#path43_fill" transform="translate(6071.15 -443.236)" fill="#006221"/>
</g>
<g id="path90">
<use xlink:href="#path44_fill" transform="translate(6069.5 -426.571)" fill="#006221"/>
</g>
<g id="path92">
<use xlink:href="#path45_fill" transform="translate(6067.5 -420.256)" fill="#006221"/>
</g>
<g id="path96">
<use xlink:href="#path46_fill" transform="translate(6057.46 -351.051)" fill="#483322"/>
</g>
<g id="path98">
<use xlink:href="#path47_fill" transform="translate(6048.28 -399.629)" fill="#F07C00"/>
</g>
<g id="path100">
<use xlink:href="#path48_fill" transform="translate(6066.75 -402.956)" fill="#DB3F02"/>
</g>
<g id="path102">
<use xlink:href="#path49_fill" transform="translate(6036.99 -407.52)" fill="#006221"/>
</g>
<g id="path104">
<use xlink:href="#path50_fill" transform="translate(6038.76 -361.472)" fill="#73B61C"/>
</g>
<g id="path106">
<use xlink:href="#path51_fill" transform="translate(6040.77 -404.684)" fill="#006221"/>
</g>
<g id="path108">
<use xlink:href="#path52_fill" transform="translate(6083.99 -385.256)" fill="#FFFFFF"/>
</g>
</g>
<g id="path94">
<use xlink:href="#path53_fill" transform="translate(6059.92 -312.101)" fill="#5B524B"/>
<use xlink:href="#path54_fill" transform="translate(6059.92 -312.101)" fill="#5B524B"/>
<use xlink:href="#path55_fill" transform="translate(6059.92 -312.101)" fill="#5B524B"/>
<use xlink:href="#path56_fill" transform="translate(6059.92 -312.101)" fill="#5B524B"/>
</g>
</g>
</g>
<defs>
<path id="path0_fill" fill-rule="evenodd" d="M 42.3879 2.35487e-06C 65.7989 2.35487e-06 84.7763 19.0211 84.7763 42.486C 84.7763 45.5304 84.4547 48.4986 83.8472 51.3617L 66.1751 39.0175L 53.4119 46.6277L 47.5916 41.4881L 14.8038 63.7915L 14.8038 70.2954L 23.3482 70.2954L 23.3482 80.4521C 9.50032 73.4623 1.83552e-08 59.0872 1.83552e-08 42.486C 1.83552e-08 19.0211 18.9775 2.35487e-06 42.3879 2.35487e-06Z"/>
<path id="path1_fill" fill-rule="evenodd" d="M 5.2954 17.5475C 5.20346 17.5475 5.11204 17.5362 5.02303 17.5159C 4.89371 17.4869 3.73785 17.2025 2.55642 16.32C 0.915787 15.1008 0.032314 13.3476 0.000812394 11.2463C -0.0650477 6.7473 3.88739 0.793458 4.05354 0.540715C 4.27721 0.207115 4.64982 0.00606018 5.04858 0.000107079C 5.44728 -0.00516782 5.8259 0.184506 6.05844 0.512153C 6.23587 0.756607 10.3663 6.58612 10.4351 11.0882C 10.4666 13.1864 9.63758 14.9688 8.03732 16.2367C 6.88146 17.1538 5.73387 17.4725 5.60516 17.507C 5.50487 17.5332 5.40164 17.5475 5.2954 17.5475ZM 5.10317 3.52208C 4.01016 5.45081 2.40456 8.72473 2.44133 11.2089C 2.46155 12.5399 2.98963 13.5979 4.01016 14.3568C 4.49201 14.716 4.97678 14.9283 5.27526 15.0378C 5.58494 14.9141 6.09287 14.6726 6.58298 14.2706C 7.53833 13.4855 8.01416 12.4275 7.99401 11.1256C 7.95725 8.63852 6.25016 5.4163 5.10317 3.52208Z"/>
<path id="path2_fill" fill-rule="evenodd" d="M 9.11976 13.7536C 7.47973 13.7536 5.956 13.1125 4.71052 11.9023C 1.48676 8.76627 0.0816644 1.75443 0.0229466 1.45828C -0.0541908 1.06455 0.065647 0.659565 0.344575 0.371706C 0.623428 0.0844503 1.02453 -0.0475566 1.41917 0.0154408C 1.71697 0.0641959 8.75309 1.26024 11.9738 4.39384C 13.4792 5.85687 14.1479 7.70526 13.9124 9.73444C 13.7432 11.2011 13.1552 12.2412 13.0893 12.3566C 12.989 12.5261 12.8514 12.67 12.6823 12.7759C 12.5245 12.874 11.0671 13.7536 9.11976 13.7536ZM 2.86636 2.82139C 3.45496 4.95705 4.62864 8.4124 6.40927 10.146C 7.21267 10.9275 8.09916 11.3069 9.11976 11.3069C 9.98609 11.3069 10.729 11.0227 11.1164 10.8413C 11.2452 10.5368 11.4345 10.008 11.4973 9.37521C 11.6178 8.14239 11.2078 7.05525 10.2756 6.15008C 8.59228 4.51455 5.20537 3.39884 2.86636 2.82139Z"/>
<path id="path3_fill" fill-rule="evenodd" d="M 4.77082 15.6039C 4.67887 15.6039 4.58684 15.592 4.4979 15.5718C 2.96643 15.2185 0.0553512 13.5913 0.000768564 9.96056C -0.0591521 5.99074 3.41083 0.761277 3.55736 0.543046C 3.7811 0.209371 4.15371 0.00838864 4.55248 2.41558e-05C 4.95118 -0.00299007 5.32972 0.186758 5.56474 0.511541C 5.71722 0.726832 9.34501 5.84681 9.40553 9.81662C 9.46011 13.4474 6.60015 15.1638 5.08056 15.5634C 4.97966 15.589 4.87645 15.6039 4.77082 15.6039ZM 4.60706 3.53867C 3.60601 5.35557 2.41278 7.99731 2.44188 9.92303C 2.4591 11.0441 2.88628 11.9011 3.74366 12.5422C 4.12228 12.8211 4.50083 12.9966 4.75066 13.0911C 5.0141 12.9817 5.4128 12.7837 5.80029 12.4643C 6.60016 11.8036 6.98164 10.9495 6.9645 9.85408C 6.94488 8.56648 6.36814 6.8073 5.29235 4.76621C 5.06034 4.32071 4.82479 3.90626 4.60706 3.53867Z"/>
<path id="path4_fill" fill-rule="evenodd" d="M 1.22172 12.8639C 0.54823 12.8639 -2.25768e-06 12.3179 -2.25768e-06 11.6423L -2.25768e-06 1.22152C -2.25768e-06 0.545952 0.54823 -1.50859e-06 1.22172 -1.50859e-06C 1.8934 -1.50859e-06 2.44111 0.545952 2.44111 1.22152L 2.44111 11.6423C 2.44111 12.3179 1.8934 12.8639 1.22172 12.8639Z"/>
<path id="path5_fill" fill-rule="evenodd" d="M 9.82916 9.42639C 5.88507 9.42639 0.756705 6.00555 0.540104 5.86162C 0.207796 5.63743 0.00608023 5.26398 0.000140792 4.8643C -0.00587383 4.46167 0.184115 4.08519 0.509806 3.8491C 0.725205 3.69681 5.83169 0.0606626 9.79239 1.21423e-06C 9.82735 1.21423e-06 9.86179 1.21423e-06 9.89622 1.21423e-06C 13.4528 1.21423e-06 15.1338 2.8345 15.5266 4.33498C 15.5752 4.52465 15.5782 4.7263 15.5355 4.91838C 15.1825 6.45398 13.559 9.37168 9.93539 9.42639C 9.90035 9.42639 9.86479 9.42639 9.82916 9.42639ZM 3.53125 4.80959C 3.89258 5.01056 4.29902 5.22645 4.73515 5.44174C 6.7805 6.44804 8.54218 6.97974 9.82916 6.97974C 9.85231 6.97974 9.87547 6.97974 9.89855 6.97974C 11.0182 6.96249 11.8727 6.53424 12.5123 5.67488C 12.7906 5.29547 12.9656 4.91606 13.06 4.66565C 12.9508 4.40394 12.7562 4.01028 12.4465 3.62785C 11.7979 2.83149 10.9637 2.44672 9.89622 2.44672C 9.87427 2.44672 9.85171 2.44672 9.82916 2.44672C 8.54511 2.46631 6.79057 3.04444 4.75477 4.12263C 4.31029 4.35518 3.89731 4.59075 3.53125 4.80959Z"/>
<path id="path6_fill" fill-rule="evenodd" d="M 11.4904 2.44674L 1.21992 2.44674C 0.545902 2.44674 -2.90011e-06 1.90017 -2.90011e-06 1.22453C -2.90011e-06 0.548964 0.545902 -2.50205e-06 1.21992 -2.50205e-06L 11.4904 -2.50205e-06C 12.1645 -2.50205e-06 12.7098 0.548964 12.7098 1.22453C 12.7098 1.90017 12.1645 2.44674 11.4904 2.44674Z"/>
<path id="path7_fill" fill-rule="evenodd" d="M 9.70137 9.88607C 8.96563 9.88607 8.21861 9.73385 7.48047 9.43469C 3.80636 7.95146 0.345926 2.71966 0.200522 2.49781C -0.0190111 2.1618 -0.061189 1.73899 0.0883495 1.36846C 0.238489 0.997335 0.560118 0.721374 0.949941 0.632153C 1.06384 0.606607 3.76125 -4.89371e-06 6.62421 -4.89371e-06C 8.38709 -4.89371e-06 9.85805 0.233073 10.995 0.692818C 14.3563 2.05239 14.8269 5.35848 14.6031 6.91661C 14.577 7.11171 14.5023 7.29903 14.3848 7.45961C 14.313 7.55772 12.6065 9.88607 9.70137 9.88607ZM 3.36196 2.6905C 4.6454 4.31766 6.6118 6.44796 8.39243 7.1664C 8.83924 7.34778 9.27952 7.43942 9.70137 7.43942C 10.9172 7.43942 11.815 6.66626 12.2024 6.26123C 12.2024 5.97638 12.1763 5.53096 12.0333 5.05102C 11.7348 4.05603 11.0982 3.37209 10.0841 2.9611C 9.23681 2.61853 8.07321 2.44611 6.62421 2.44611C 5.44519 2.44611 4.28227 2.56443 3.36196 2.6905Z"/>
<path id="path8_fill" fill-rule="evenodd" d="M 10.6351 11.6379C 10.024 11.6379 9.4964 11.1775 9.4246 10.5537C 8.79089 5.0542 0.920014 2.41011 0.840471 2.38389C 0.20029 2.17395 -0.148635 1.48406 0.0608237 0.843013C 0.270283 0.198872 0.959787 -0.148445 1.60057 0.0608935C 1.98453 0.187566 11.0362 3.23495 11.8479 10.2723C 11.9256 10.945 11.4468 11.5516 10.7781 11.6289C 10.7294 11.6349 10.6838 11.6379 10.6351 11.6379Z"/>
<path id="path9_fill" fill-rule="evenodd" d="M 13.0666 48.6181L 0.253621 31.9004C -0.127931 31.4032 -0.0733508 30.7014 0.3794 30.2703C 0.829744 29.8391 1.53226 29.8194 2.00876 30.2214L 18.935 44.6263L 16.8398 46.0519L 9.17894 39.5324L 15.0882 47.2431L 13.0666 48.6181ZM 25.0857 40.4424L 27.7843 1.13819C 27.83 0.465561 28.4121 -0.0429563 29.0838 0.00285997C 29.7573 0.0486763 30.2651 0.632085 30.2165 1.30765L 27.6508 38.6975L 25.0857 40.4424Z"/>
<path id="path10_fill" fill-rule="evenodd" d="M 9.01577 10.0901C 8.09486 10.0901 7.1829 9.84567 6.30529 9.36279C 2.95281 7.51439 0.239384 2.10416 0.127813 1.87455C -0.0502202 1.5148 -0.0418644 1.08958 0.150378 0.738648C 0.34262 0.388394 0.695678 0.155225 1.09437 0.112423C 1.13715 0.109409 2.20098 -7.69011e-06 3.6696 -7.69011e-06C 5.7778 -7.69011e-06 8.71195 0.230131 10.711 1.33394C 13.7941 3.03314 13.8629 6.27262 13.4671 7.74748C 13.4155 7.94017 13.3206 8.11505 13.1859 8.26192C 13.1171 8.3369 11.4764 10.0901 9.01577 10.0901ZM 3.24828 2.44905C 4.2861 4.13695 5.8923 6.34457 7.48129 7.21816C 7.99456 7.50308 8.51077 7.64402 9.01577 7.64402C 9.9966 7.64402 10.7851 7.11471 11.1613 6.8102C 11.1928 6.5402 11.2159 6.12032 11.1352 5.66004C 10.9662 4.6918 10.4439 3.97871 9.53491 3.47857C 8.32748 2.8113 6.24536 2.44372 3.6696 2.44372C 3.5236 2.44372 3.38301 2.44597 3.24828 2.44898L 3.24828 2.44905Z"/>
<path id="path11_fill" fill-rule="evenodd" d="M 9.54936 7.27489C 9.34051 7.27489 9.13104 7.22312 8.9388 7.11069L 0.609839 2.28151C 0.0247666 1.94196 -0.173416 1.19436 0.165357 0.610959C 0.500597 0.0245408 1.24942 -0.173513 1.83156 0.165512L 10.1605 4.99529C 10.7426 5.3313 10.9438 6.08186 10.6049 6.66527C 10.3783 7.05598 9.96828 7.27489 9.54936 7.27489Z"/>
<path id="path12_fill" fill-rule="evenodd" d="M 7.84345 11.9254C 6.41814 11.9254 5.09026 11.3706 4.00853 10.3185C 1.26308 7.64754 0.0727952 1.71161 0.0229491 1.45886C -0.0541884 1.06453 0.0656558 0.659575 0.344509 0.371716C 0.623436 0.0844599 1.02453 -0.04757 1.41909 0.0154274C 1.67125 0.0588323 7.62806 1.07048 10.3759 3.74079C 12.9 6.19346 12.1109 9.33837 11.3425 10.6575C 11.2422 10.8269 11.1045 10.9709 10.9354 11.0773C 10.7978 11.1636 9.53273 11.9254 7.84345 11.9254ZM 2.88178 2.83563C 3.43535 4.74176 4.4043 7.29729 5.7097 8.56228C 6.34341 9.1802 7.04298 9.47875 7.84345 9.47875C 8.48604 9.47875 9.04496 9.28366 9.36358 9.14274C 9.46688 8.88993 9.5986 8.49266 9.6419 8.02703C 9.73626 7.04688 9.41823 6.21903 8.67527 5.49764C 7.36995 4.22669 4.79473 3.33283 2.88178 2.83563Z"/>
<path id="path13_fill" fill-rule="evenodd" d="M 3.48479 17.7513C 3.36435 17.7513 3.2439 17.7341 3.12639 17.6965C 2.48088 17.4985 2.11947 16.814 2.31765 16.1675C 3.61418 11.9444 3.61952 8.15599 2.33487 5.20913C 1.37419 3.00979 0.0118732 2.01841 -5.70845e-06 2.00651L 0.00601708 2.01253L 1.39389 -4.34179e-06C 1.46862 0.0516897 3.24097 1.30244 4.49479 4.05662C 6.51398 8.50336 5.69336 13.4884 4.64968 16.886C 4.48886 17.4124 4.00701 17.7513 3.48487 17.7513L 3.48479 17.7513Z"/>
<path id="path14_fill" fill-rule="evenodd" d="M 8.27774 11.319C 7.01805 11.319 5.84798 10.8878 4.80128 10.0338C 1.82908 7.61925 0.119653 1.80933 0.0484548 1.56495C -0.0631164 1.17951 0.020569 0.762629 0.272732 0.452163C 0.524895 0.141698 0.912986 -0.027772 1.31168 0.00372669C 1.56685 0.0209832 7.58944 0.50153 10.561 2.91909C 13.2929 5.13802 12.7843 8.34064 12.1352 9.72335C 12.0509 9.90179 11.9245 10.057 11.7673 10.1777C 11.6131 10.2925 10.2056 11.319 8.27774 11.319ZM 3.01645 2.68301C 3.73798 4.53141 4.92887 6.98942 6.33862 8.13664C 6.94805 8.63082 7.58237 8.87235 8.27774 8.87235C 9.0319 8.87235 9.68463 8.57914 10.0311 8.38645C 10.1106 8.12768 10.2062 7.7197 10.2092 7.25106C 10.2159 6.26797 9.82763 5.4717 9.02362 4.81927C 7.61026 3.66904 4.96737 3.00772 3.01645 2.68301Z"/>
<path id="path15_fill" fill-rule="evenodd" d="M 11.9439 9.99782C 11.8893 9.99782 11.8323 9.9918 11.7748 9.98653C 10.1354 9.75812 8.55404 9.08429 7.11452 8.21838L 13.0297 8.21838C 13.1395 8.43367 13.1869 8.68468 13.1514 8.94277C 13.0653 9.55534 12.5432 9.99782 11.9439 9.99782ZM 6.70988 7.96856C 3.04938 5.63487 0.402423 2.16589 0.246945 1.96009C -0.159493 1.42243 -0.0532617 0.65522 0.484896 0.246716C 1.02193 -0.158321 1.78676 -0.0548526 2.1932 0.485147C 2.2229 0.524407 4.09134 2.96812 6.70988 4.98607L 6.70988 7.96856Z"/>
<path id="path16_fill" fill-rule="evenodd" d="M 6.03747 14.215C 5.38774 14.215 4.40278 14.1175 3.40233 13.6429C 2.15805 13.0536 1.21165 12.0277 0.665744 10.6704C -0.765434 7.1116 0.547707 1.20123 0.604094 0.951424C 0.692509 0.560102 0.966627 0.238418 1.33743 0.0891385C 1.7083 -0.060744 2.12903 -0.0203647 2.46367 0.20088C 2.67726 0.34187 7.71367 3.68481 9.14485 7.24363C 10.4598 10.5123 8.46904 13.0654 7.23251 13.9593C 7.07229 14.0741 6.88659 14.149 6.69134 14.1776C 6.64623 14.1836 6.40354 14.215 6.03747 14.215ZM 2.65945 3.37202C 2.39721 5.3382 2.25007 8.06916 2.92882 9.75637C 3.59938 11.421 4.98898 11.7689 6.03688 11.7689C 6.23265 11.5816 6.5133 11.2712 6.74178 10.8631C 7.22303 10.0068 7.26867 9.12119 6.88178 8.15837C 6.20122 6.46513 4.20874 4.60484 2.65945 3.37202Z"/>
<path id="path17_fill" fill-rule="evenodd" d="M 4.70777 8.91781C 4.49004 8.91781 4.26992 8.86017 4.07114 8.73945C 1.4129 7.10392 0.165615 2.07309 0.0326917 1.504C -0.121583 0.84562 0.284928 0.187237 0.941123 0.0320039C 1.59679 -0.120215 2.25367 0.284752 2.40794 0.943135C 2.82212 2.70827 3.98565 5.81571 5.34624 6.65254C 5.92063 7.0058 6.10099 7.75929 5.74913 8.33381C 5.51832 8.71089 5.11782 8.91781 4.70777 8.91781Z"/>
<path id="path18_fill" fill-rule="evenodd" d="M 4.35062 14.1985C 4.25626 14.1985 4.15838 14.1866 4.06696 14.164C 2.66721 13.8274 0.0173169 12.3097 0.000100015 8.98632C -0.020049 5.39894 3.14311 0.730339 3.27843 0.532304C 3.50443 0.201643 3.87773 0.00301239 4.27883 -1.83974e-06C 4.28183 -1.83974e-06 4.28484 -1.83974e-06 4.28484 -1.83974e-06C 4.68353 -1.83974e-06 5.0562 0.195707 5.28581 0.520414C 5.42046 0.716113 8.63889 5.35312 8.65843 8.93757C 8.67565 12.2638 6.04291 13.8072 4.64918 14.161C 4.55181 14.1842 4.45152 14.1985 4.3507 14.1985L 4.35062 14.1985ZM 4.29897 3.55348C 3.42437 5.14318 2.42932 7.34787 2.4406 8.97209C 2.44361 9.92956 2.80193 10.6652 3.52759 11.2171C 3.83141 11.4473 4.13582 11.5966 4.35062 11.6828C 4.96471 11.4331 6.2268 10.7027 6.21793 8.9518C 6.20959 7.32231 5.19139 5.13135 4.29897 3.55348Z"/>
<path id="path19_fill" fill-rule="evenodd" d="M 0.170237 7.15686L 0.000554757 1.2596C -0.0195942 0.583956 0.511418 0.0207421 1.18551 0.00054676C 1.85952 -0.0196486 2.41851 0.511999 2.43866 1.18764L 2.56503 5.52791L 0.170237 7.15686Z"/>
<path id="path20_fill" fill-rule="evenodd" d="M 5.61076 10.986C 4.01043 10.986 2.6279 10.2468 1.71886 8.90449C -0.00485193 6.35732 -0.00485727 1.72913 0.000555884 1.20879C 0.00356319 0.80971 0.204604 0.435638 0.53398 0.211379C 0.866814 -0.0158185 1.28573 -0.0615621 1.65834 0.0823673C 2.14311 0.269099 6.43079 1.98246 8.1545 4.52911C 9.81529 6.97817 8.63094 9.43084 7.77355 10.3848C 7.64123 10.5316 7.47507 10.6435 7.28877 10.7125C 7.21396 10.7416 6.52867 10.986 5.61076 10.986ZM 2.53895 3.17255C 2.68841 4.65578 3.0296 6.48097 3.74105 7.53308C 4.19974 8.21166 4.81029 8.5393 5.61076 8.5393C 5.81722 8.5393 6.00059 8.5167 6.14419 8.49055C 6.44266 8.01898 6.88407 7.01028 6.13585 5.90353C 5.42146 4.84848 3.85856 3.85648 2.53895 3.17255Z"/>
<path id="path21_fill" fill-rule="evenodd" d="M 6.03333 13.2971C 5.35924 13.2971 4.81455 12.7505 4.81455 12.0755C 4.81455 6.82886 0.383358 2.11445 0.337647 2.06863C -0.126907 1.5798 -0.109693 0.806653 0.374483 0.340955C 0.862194 -0.127683 1.63356 -0.110421 2.09819 0.375473C 2.31058 0.596717 7.25505 5.83447 7.25505 12.0755C 7.25505 12.7505 6.70742 13.2971 6.03333 13.2971Z"/>
<path id="path22_fill" fill-rule="evenodd" d="M 7.26312 11.3766C 5.86931 11.3766 4.59 10.8246 3.56052 9.77796C 1.04821 7.22536 0.0585073 1.66825 0.0181341 1.43276C -0.0506581 1.03903 0.0786566 0.633472 0.365253 0.352169C 0.649519 0.0702628 1.05355 -0.0534805 1.44698 0.0214984C 1.68193 0.0643005 7.21147 1.13125 9.72438 3.68378C 12.0556 6.04957 11.2469 8.99885 10.4958 10.2264C 10.3925 10.3959 10.2489 10.5368 10.0798 10.6373C 9.95339 10.7152 8.79753 11.3766 7.26312 11.3766ZM 2.855 2.88147C 3.33384 4.62942 4.15981 6.90599 5.29852 8.06157C 5.87525 8.64558 6.51784 8.92982 7.26312 8.92982C 7.80248 8.92982 8.27297 8.78063 8.55663 8.66579C 8.82067 8.05624 9.21644 6.65032 7.98878 5.40258C 6.84713 4.24165 4.593 3.38462 2.855 2.88147Z"/>
<path id="path23_fill" fill-rule="evenodd" d="M 6.20931 7.2801C 5.90256 7.2801 5.59815 7.16534 5.36027 6.9352L 0.372426 2.10006C -0.111751 1.63143 -0.12657 0.858282 0.343999 0.372388C 0.81156 -0.113505 1.58294 -0.124811 2.06772 0.343827L 7.05549 5.17896C 7.54027 5.6476 7.55448 6.42074 7.08692 6.90664C 6.84603 7.15644 6.52741 7.2801 6.20931 7.2801Z"/>
<path id="path24_fill" fill-rule="evenodd" d="M 2.81025 7.43942C 1.09548 4.73935 0.127657 1.95728 0.0660069 1.77643C -0.0533081 1.42851 -0.00940641 1.04316 0.185843 0.729754C 0.380491 0.419288 0.706189 0.209945 1.07233 0.166541C 1.12691 0.158251 2.42877 -1.91333e-06 4.21887 -1.91333e-06C 7.8811 -1.91333e-06 10.2504 0.645279 11.7499 1.35837L 9.27672 3.04083C 7.89892 2.65253 6.17761 2.44612 4.21887 2.44612C 3.76259 2.44612 3.33833 2.45802 2.96512 2.47468C 3.38585 3.45242 4.01896 4.78284 4.82529 6.06863L 2.81025 7.43942Z"/>
<path id="path25_fill" fill-rule="evenodd" d="M 8.83754 8.008C 7.51199 7.80936 6.44507 7.10815 5.48386 6.4766C 5.15456 6.25829 4.84187 6.05137 4.52317 5.86698C 2.77931 4.85834 0.87816 4.26595 0.861018 4.25766C 0.439092 4.12798 0.123407 3.78308 0.0291276 3.35484C -0.0658282 2.92365 0.0747562 2.47762 0.401726 2.18207C 0.491945 2.10054 1.81336 0.924239 3.94885 1.21423e-06L 8.83754 1.21423e-06L 8.83754 1.33577C 6.79813 1.40238 5.04712 2.11485 3.83194 2.78567C 4.43182 3.04979 5.09404 3.3751 5.74497 3.75151C 6.12352 3.96981 6.4795 4.20591 6.82662 4.43251C 7.53627 4.89934 8.17413 5.31861 8.83754 5.50896L 8.83754 8.008Z"/>
<path id="path26_fill" fill-rule="evenodd" d="M 0.110952 1.01874C 0.0747142 0.939695 0.0468869 0.857014 0.0272642 0.768998C -0.0297243 0.499526 0.0047191 0.231955 0.110952 1.01554e-05L 0.110952 1.01874Z"/>
<path id="path27_fill" fill-rule="evenodd" d="M 0.0774837 9.97294L 0.0459816 9.73444C -0.188964 7.70526 0.479179 5.85687 1.98509 4.39384C 5.20885 1.26024 12.2414 0.0641959 12.5398 0.0154408C 12.9326 -0.0475566 13.3367 0.0844503 13.615 0.371706C 13.8933 0.659565 14.0137 1.06455 13.9366 1.45828C 13.8761 1.75443 12.471 8.76627 9.25022 11.9023C 8.55839 12.5731 7.78221 13.0685 6.94798 13.3777L 3.79782 11.1773C 4.10878 11.2528 4.46237 11.3069 4.83858 11.3069C 5.8455 11.3069 6.75754 10.9162 7.54907 10.146C 8.62779 9.09633 9.65728 7.2021 10.5236 4.66978C 10.7526 4.0025 10.9419 3.37027 11.0915 2.82371C 8.94288 3.35007 5.46404 4.41938 3.68274 6.15008C 2.75054 7.05525 2.34057 8.14239 2.46102 9.37521C 2.50019 9.76299 2.58618 10.1121 2.67761 10.3952L 1.1544 9.33121L 0.0774837 9.97294Z"/>
<path id="path28_fill" fill-rule="evenodd" d="M 4.63549 15.6038C 4.52926 15.6038 4.42602 15.589 4.32572 15.5634C 2.80553 15.1638 -0.0538168 13.4474 0.000765831 9.81659C 0.0606865 5.84677 3.68909 0.726797 3.84397 0.511505C 4.07064 0.192148 4.4403 -1.12224e-05 4.83366 -1.12224e-05C 4.842 -1.12224e-05 4.84796 -1.12224e-05 4.8533 -1.12224e-05C 5.25199 0.00835326 5.62518 0.209336 5.84893 0.543011C 5.99486 0.761241 9.46544 5.99071 9.40492 9.96052C 9.35094 13.5913 6.43935 15.2185 4.90788 15.5717C 4.81886 15.5919 4.72744 15.6038 4.63549 15.6038ZM 4.79924 3.53864C 3.74367 5.32344 2.47029 7.92833 2.44127 9.85405C 2.42405 10.9751 2.82577 11.8434 3.66361 12.5107C 4.03321 12.8038 4.40587 12.9876 4.6527 13.0911C 4.91967 12.9906 5.32679 12.8039 5.72255 12.4958C 6.54016 11.8577 6.9472 11.0185 6.96442 9.92299C 6.98456 8.63546 6.45948 6.85903 5.44722 4.78637C 5.22649 4.33499 5.00577 3.9121 4.79924 3.53864Z"/>
<path id="path29_fill" fill-rule="evenodd" d="M -1.87223e-06 7.8908L -1.87223e-06 1.22152C -1.87223e-06 0.545952 0.5477 -1.50859e-06 1.21878 -1.50859e-06C 1.89287 -1.50859e-06 2.4405 0.545952 2.4405 1.22152L 2.4405 6.43552L -1.87223e-06 7.8908Z"/>
<path id="path30_fill" fill-rule="evenodd" d="M -1.11599e-05 7.98447e-06C 2.22216 1.05145 3.97731 2.29979 4.10129 2.38781C 4.37368 2.58644 4.55283 2.88378 4.59975 3.21263L -1.11599e-05 7.98447e-06Z"/>
<path id="path31_fill" fill-rule="evenodd" d="M 4.94902 9.88607C 2.04328 9.88607 0.336782 7.55772 0.265584 7.45961C 0.150479 7.29903 0.0733606 7.11171 0.0472722 6.91661C -0.176472 5.35848 0.294093 2.05239 3.65544 0.692818C 4.79115 0.233073 6.26268 -4.89371e-06 8.02617 -4.89371e-06C 10.8885 -4.89371e-06 13.5877 0.606607 13.6992 0.632153C 14.0897 0.721374 14.4107 0.997335 14.5626 1.36846C 14.7121 1.73899 14.6688 2.1618 14.4511 2.49781C 14.3045 2.71966 10.8428 7.95146 7.16873 9.43469C 6.43179 9.73385 5.68596 9.88607 4.94902 9.88607ZM 2.44799 6.26123C 2.83247 6.66325 3.73256 7.43942 4.94902 7.43942C 5.37027 7.43942 5.81235 7.34778 6.25675 7.1664C 8.0434 6.44502 10.0086 4.31765 11.2902 2.69351C 10.367 2.56443 9.20218 2.44611 8.02617 2.44611C 6.57777 2.44611 5.41359 2.61853 4.56748 2.9611C 3.52906 3.38038 2.88414 4.08752 2.59694 5.12291C 2.47116 5.5767 2.44498 5.99364 2.44799 6.26123Z"/>
<path id="path32_fill" fill-rule="evenodd" d="M 1.22153 11.6379C 1.17289 11.6379 1.12664 11.6349 1.07799 11.6289C 0.409846 11.5516 -0.0689734 10.945 0.0081641 10.2723C 0.819837 3.23495 9.87159 0.187566 10.2561 0.0608935C 10.8957 -0.148445 11.587 0.198872 11.7964 0.843013C 12.0059 1.48406 11.6558 2.17395 11.0162 2.38389C 10.9384 2.41011 3.06276 5.07447 2.43205 10.5537C 2.36026 11.1775 1.83269 11.6379 1.22153 11.6379Z"/>
<path id="path33_fill" fill-rule="evenodd" d="M 2.44847 36.9436L 0.00322964 1.30765C -0.0454136 0.632085 0.461913 0.0486763 1.13593 0.00285997C 1.81001 -0.0429563 2.38968 0.465561 2.43539 1.13819L 4.78454 35.3539L 2.44847 36.9436ZM 25.4097 32.6057L 28.211 30.2214C 28.6869 29.8165 29.3894 29.8391 29.8397 30.2703C 30.2931 30.7014 30.3477 31.4032 29.9661 31.9004L 28.0252 34.4327L 25.4097 32.6057Z"/>
<path id="path34_fill" fill-rule="evenodd" d="M 4.62123 10.0901C 2.15997 10.0901 0.51934 8.3369 0.450548 8.26192C 0.31582 8.11505 0.221461 7.94017 0.169886 7.74748C -0.225876 6.27262 -0.157077 3.03314 2.92602 1.33394C 4.0303 0.724389 6.14676 -7.69011e-06 9.9674 -7.69011e-06C 11.4354 -7.69011e-06 12.4998 0.109409 12.5426 0.112423C 12.9413 0.155225 13.2944 0.388394 13.486 0.738648C 13.6783 1.08958 13.6872 1.5148 13.5092 1.87455C 13.3976 2.10416 10.6842 7.51439 7.33112 9.36279C 6.45358 9.84567 5.54154 10.0901 4.62123 10.0901ZM 2.47567 6.8102C 2.85129 7.11471 3.63979 7.64402 4.62123 7.64402C 5.12563 7.64402 5.64184 7.50308 6.15571 7.21816C 7.75004 6.34155 9.35624 4.13695 10.3917 2.44905C 10.254 2.44604 10.1134 2.44379 9.9674 2.44379C 7.39164 2.44379 5.30954 2.81137 4.1021 3.47563C 3.16991 3.99008 2.64182 4.72871 2.48987 5.73501C 2.42401 6.16914 2.44425 6.55451 2.47567 6.81027L 2.47567 6.8102Z"/>
<path id="path35_fill" fill-rule="evenodd" d="M 1.21972 7.27489C 0.8014 7.27489 0.390829 7.05598 0.164754 6.66527C -0.174094 6.08186 0.027091 5.3313 0.609156 4.99529L 8.93812 0.165512C 9.52319 -0.173513 10.2691 0.0245408 10.6043 0.610959C 10.9425 1.19436 10.7449 1.94196 10.1598 2.28151L 1.83088 7.11069C 1.63863 7.22312 1.42918 7.27489 1.21972 7.27489Z"/>
<path id="path36_fill" fill-rule="evenodd" d="M 4.25155 11.9254C 2.56227 11.9254 1.29723 11.1636 1.15957 11.0773C 0.990489 10.9709 0.852843 10.8269 0.752549 10.6575C -0.0164199 9.33837 -0.805024 6.19346 1.71909 3.74079C 4.46634 1.07048 10.4237 0.0588323 10.6759 0.0154274C 11.0687 -0.04757 11.4704 0.0844599 11.7516 0.371716C 12.03 0.659575 12.1475 1.06453 12.0727 1.45886C 12.021 1.71161 10.8308 7.64754 8.08587 10.3185C 7.00474 11.3706 5.67686 11.9254 4.25155 11.9254ZM 2.72841 9.13973C 3.05005 9.28366 3.60896 9.47875 4.25155 9.47875C 5.05142 9.47875 5.7516 9.1802 6.38531 8.56228C 7.69304 7.29133 8.65965 4.74176 9.21623 2.83865C 7.29726 3.33584 4.72211 4.22971 3.41971 5.49764C 2.65661 6.2393 2.34393 7.09028 2.46197 8.10193C 2.51068 8.53606 2.63406 8.90424 2.72841 9.13973Z"/>
<path id="path37_fill" fill-rule="evenodd" d="M 2.2486 17.7513C 1.72646 17.7513 1.24462 17.4124 1.08381 16.886C 0.0401202 13.4884 -0.780506 8.50337 1.24168 4.05663C 2.4919 1.30245 4.26487 0.0516961 4.339 2.02371e-06L 5.72746 2.01252L 5.73273 2.00649C 5.72146 2.0184 4.35915 3.00978 3.39846 5.20911C 2.11321 8.15597 2.11914 11.9444 3.41567 16.1675C 3.61325 16.814 3.25193 17.4985 2.60694 17.6965C 2.48943 17.7341 2.36898 17.7513 2.24853 17.7513L 2.2486 17.7513Z"/>
<path id="path38_fill" fill-rule="evenodd" d="M 3.54065 14.215C 3.17338 14.215 2.93251 14.1835 2.88619 14.1776C 2.69155 14.149 2.50524 14.0741 2.34442 13.9593C 1.10849 13.0654 -0.882275 10.5123 0.431468 7.24363C 1.86265 3.68481 6.89907 0.34187 7.11387 0.20088C 7.44678 -0.0203647 7.86862 -0.060744 8.24122 0.0891385C 8.61089 0.238418 8.88389 0.560102 8.97231 0.951424C 9.02982 1.20123 10.3436 7.1116 8.91238 10.6704C 8.36467 12.0277 7.42061 13.0536 6.17633 13.6429C 5.17535 14.1175 4.18857 14.215 3.54065 14.215ZM 6.91928 3.37202C 5.36999 4.60785 3.3739 6.47048 2.69688 8.15837C 2.30706 9.12119 2.35275 10.0068 2.83453 10.8631C 3.06421 11.2712 3.34547 11.5816 3.54065 11.7689C 4.58734 11.7689 5.97814 11.421 6.6493 9.75637C 7.32925 8.0632 7.18272 5.3382 6.91928 3.37202Z"/>
<path id="path39_fill" fill-rule="evenodd" d="M -8.44337e-07 6.39858C 1.21337 5.30781 2.22389 2.5614 2.60244 0.943135C 2.75732 0.284752 3.41419 -0.120215 4.07099 0.0320039C 4.72493 0.187237 5.13197 0.845619 4.97709 1.504C 4.86492 1.98869 3.94229 5.71105 2.02753 7.81461L -8.44337e-07 6.39858Z"/>
<path id="path40_fill" fill-rule="evenodd" d="M -1.81716e-06 6.99995C 0.779117 3.87405 2.99407 0.682203 3.10565 0.520415C 3.33465 0.195707 3.70794 -1.83974e-06 4.10663 -1.83974e-06C 4.10663 -1.83974e-06 4.10889 -1.83974e-06 4.1119 -1.83974e-06C 4.5136 0.00301239 4.88628 0.201643 5.11295 0.532304C 5.24761 0.730339 8.41144 5.39894 8.39122 8.98632C 8.38821 9.61494 8.29033 10.1794 8.12485 10.6831L 6.80042 11.4728L 5.58939 10.4035C 5.80358 10.0283 5.94779 9.55843 5.95072 8.97209C 5.962 7.34192 4.96995 5.14024 4.09174 3.55348C 3.43607 4.7132 2.71334 6.20773 2.37216 7.56255L 0.980152 6.33328L -1.81716e-06 6.99995Z"/>
<path id="path41_fill" fill-rule="evenodd" d="M -2.55137e-06 0.108803C 0.163745 0.0338996 0.346518 -0.00537256 0.538159 0.000580547C 1.21225 0.0207759 1.74274 0.58399 1.72251 1.25963L 1.71183 1.62118L -2.55137e-06 0.108803Z"/>
<path id="path42_fill" fill-rule="evenodd" d="M 3.37959 10.986C 2.46168 10.986 1.77639 10.7416 1.70158 10.7125C 1.51528 10.6465 1.34852 10.5316 1.2168 10.3848C 0.359415 9.43084 -0.824933 6.97817 0.835253 4.52911C 2.55897 1.98246 6.84723 0.269099 7.33141 0.0823673C 7.70461 -0.0615621 8.12354 -0.0158185 8.45584 0.211379C 8.78575 0.435638 8.98627 0.80971 8.9922 1.20879C 8.99521 1.72913 8.99522 6.35732 7.2715 8.90449C 6.36247 10.2468 4.97993 10.986 3.37959 10.986ZM 2.84857 8.49356C 2.99217 8.51911 3.17547 8.5393 3.37959 8.5393C 4.17946 8.5393 4.79061 8.21166 5.2493 7.53308C 5.96076 6.48097 6.30195 4.65579 6.44848 3.1755C 5.1318 3.85943 3.56596 4.85149 2.8545 5.90353C 2.42431 6.53569 2.32996 7.17983 2.55604 7.86971C 2.64205 8.12539 2.75422 8.33833 2.84857 8.49356Z"/>
<path id="path43_fill" fill-rule="evenodd" d="M 1.22171 13.2971C 0.548227 13.2971 -5.50655e-06 12.7505 -5.50655e-06 12.0755C -5.50655e-06 5.83447 4.94506 0.596717 5.15685 0.375473C 5.62148 -0.110421 6.3958 -0.127683 6.88058 0.340955C 7.36836 0.806653 7.38257 1.58274 6.91802 2.06863C 6.85216 2.1406 2.4411 6.8431 2.4411 12.0755C 2.4411 12.7505 1.8958 13.2971 1.22171 13.2971Z"/>
<path id="path44_fill" fill-rule="evenodd" d="M 4.00252 11.3766C 2.46811 11.3766 1.31225 10.7152 1.18647 10.6373C 1.01738 10.5368 0.873786 10.3959 0.770485 10.2264C 0.0193344 8.99885 -0.790007 6.04957 1.54186 3.68378C 4.05417 1.13125 9.58431 0.0643005 9.81926 0.0214984C 10.2121 -0.0534805 10.6167 0.0702628 10.9004 0.352169C 11.1876 0.633472 11.3163 1.03903 11.2475 1.43276C 11.2077 1.66825 10.218 7.22536 7.70572 9.77796C 6.67564 10.8246 5.39693 11.3766 4.00252 11.3766ZM 2.71794 8.66579C 3.00214 8.78357 3.4691 8.92982 4.00252 8.92982C 4.74841 8.92982 5.39099 8.64558 5.96779 8.06157C 7.10877 6.90064 7.93473 4.62942 8.41417 2.88147C 6.67324 3.38763 4.4161 4.24406 3.27746 5.40258C 2.60577 6.08409 2.33932 6.85725 2.46578 7.76303C 2.51735 8.13355 2.62893 8.45291 2.71794 8.66579Z"/>
<path id="path45_fill" fill-rule="evenodd" d="M 1.2189 7.2801C 0.900203 7.2801 0.582185 7.15644 0.343706 6.90664C -0.126262 6.42074 -0.11206 5.6476 0.372718 5.17896L 5.36049 0.343827C 5.84474 -0.124811 6.61665 -0.113505 7.08421 0.372388C 7.55418 0.858282 7.53997 1.63143 7.05519 2.10006L 2.06794 6.9352C 1.82946 7.16534 1.52565 7.2801 1.2189 7.2801Z"/>
<path id="path46_fill" fill-rule="evenodd" d="M 6.78607 3.49439C 8.36303 3.59213 9.5358 4.08392 10.3032 4.97184C 11.0712 5.85915 11.4555 7.05849 11.4555 8.57005C 11.4555 9.19369 11.3206 9.77295 11.0507 10.3064C 10.7809 10.8405 10.4142 11.3084 9.95081 11.7107C 9.48746 12.113 8.94772 12.4286 8.33235 12.6574C 7.71631 12.8862 7.06959 13.0003 6.39151 13.0003L 3.52795 13.0003L 3.52795 16.6819L 1.70161 16.6819L 1.70161 5.67881C 1.46651 5.66509 1.24503 5.6439 1.0379 5.61662C 0.830019 5.58859 0.622885 5.53329 0.415005 5.44994L 0.415005 3.70274C 0.691677 3.77177 0.978579 3.82091 1.27638 3.84826C 1.5735 3.87622 1.84679 3.88993 2.09625 3.88993C 2.456 3.88993 2.80492 3.86942 3.14429 3.82775C 3.48299 3.78608 3.82507 3.74441 4.17129 3.70274C 4.53111 3.63311 4.88342 3.58122 5.22963 3.54701C 5.5751 3.51219 5.94922 3.49439 6.34994 3.49439L 6.78607 3.49439ZM 9.81593 8.47654C 9.81593 8.10225 9.78112 7.73474 9.71233 7.36723C 9.64279 6.99979 9.49769 6.67395 9.2762 6.38232C 9.05471 6.09137 8.73646 5.8489 8.32146 5.65765C 7.90645 5.46368 7.3531 5.34618 6.66142 5.30451C 6.2743 5.30451 5.81433 5.31815 5.28144 5.34618C 4.74847 5.37346 4.16444 5.46365 3.52795 5.61662L 3.52795 11.1909L 6.39151 11.1909C 6.8481 11.1909 7.27746 11.1281 7.67811 11.0037C 8.07951 10.8787 8.43596 10.695 8.74736 10.456C 9.05809 10.2128 9.30755 9.92525 9.49422 9.59603C 9.68098 9.2634 9.78796 8.88904 9.81593 8.47654ZM 19.901 16.9106C 18.9606 16.9106 18.0787 16.7338 17.2555 16.3799C 16.4323 16.0268 15.716 15.5412 15.1075 14.9244C 14.499 14.307 14.0144 13.5897 13.6546 12.7715C 13.2948 11.9532 13.1155 11.0728 13.1155 10.1301C 13.1155 9.20056 13.2948 8.32696 13.6546 7.50935C 14.0144 6.69106 14.499 5.97313 15.1075 5.35635C 15.716 4.73888 16.4323 4.25399 17.2555 3.90019C 18.0787 3.547 18.9606 3.37012 19.901 3.37012C 20.8421 3.37012 21.7274 3.547 22.5574 3.90019C 23.3874 4.25399 24.1104 4.73888 24.7258 5.35635C 25.3419 5.97313 25.8291 6.69106 26.1889 7.50935C 26.5487 8.32696 26.7287 9.20056 26.7287 10.1301C 26.7287 11.0728 26.5487 11.9532 26.1889 12.7715C 25.8291 13.5897 25.3419 14.307 24.7258 14.9244C 24.1104 15.5412 23.3874 16.0268 22.5574 16.3799C 21.7274 16.7338 20.8421 16.9106 19.901 16.9106ZM 19.9119 5.1795C 19.2202 5.1795 18.5769 5.31128 17.9745 5.57495C 17.3762 5.83794 16.8507 6.19175 16.401 6.63575C 15.9512 7.07899 15.5988 7.60294 15.3358 8.20601C 15.0728 8.80916 14.9412 9.45051 14.9412 10.1301C 14.9412 10.8234 15.0728 11.4717 15.3358 12.0748C 15.5988 12.6779 15.9512 13.2011 16.401 13.6451C 16.8507 14.0891 17.3762 14.4421 17.9745 14.7058C 18.5769 14.9695 19.2202 15.1013 19.9119 15.1013C 20.6172 15.1013 21.2708 14.9695 21.8793 14.7058C 22.4851 14.4421 23.014 14.0891 23.4637 13.6451C 23.9135 13.2011 24.2624 12.6779 24.5187 12.0748C 24.7749 11.4717 24.9023 10.8234 24.9023 10.1301C 24.9023 9.45051 24.7749 8.80916 24.5187 8.20601C 24.2624 7.60294 23.9135 7.07899 23.4637 6.63575C 23.014 6.19175 22.4851 5.83794 21.8793 5.57495C 21.2708 5.31128 20.6172 5.1795 19.9119 5.1795ZM 43.8288 13.7072C 44.6725 13.7905 45.3368 13.9572 45.8207 14.2065C 46.3053 14.4565 46.6719 14.727 46.9206 15.018C 47.17 15.309 47.3288 15.5965 47.3983 15.8814C 47.4671 16.1654 47.5019 16.3841 47.5019 16.5364L 47.5019 16.6819C 47.474 17.0145 47.3806 17.3301 47.2218 17.6286C 47.0624 17.9264 46.8586 18.1832 46.6092 18.3977C 46.3605 18.6128 46.0736 18.7829 45.7485 18.9072C 45.4235 19.0322 45.0738 19.0944 44.7004 19.0944L 44.5341 19.0944C 43.9119 19.0534 43.3586 18.925 42.874 18.7098C 42.3902 18.4946 41.9608 18.2316 41.5874 17.9195C 41.214 17.6074 40.8889 17.2748 40.6122 16.9209C 40.3355 16.5678 40.0937 16.231 39.8858 15.912C 39.7059 15.9537 39.464 15.992 39.1594 16.0268C 38.8554 16.0617 38.606 16.0992 38.4124 16.1409C 37.4714 16.3493 36.4342 16.5466 35.2995 16.7338C 34.1648 16.9209 33.0445 17.0145 31.9378 17.0145C 31.4117 17.0145 30.8693 16.9906 30.3084 16.9421C 29.7482 16.8936 29.1778 16.8 28.5966 16.6614L 28.5966 14.9968C 28.5966 14.8445 28.6033 14.7611 28.6177 14.7475L 28.6177 3.6194L 30.4434 3.6194L 30.4434 15.0801C 30.9176 15.1218 31.3879 15.143 31.8615 15.143C 32.4148 15.143 33.0275 15.115 33.6946 15.0596C 34.3625 15.0043 34.9506 14.9347 35.4658 14.8513L 35.4658 3.6194L 37.333 3.6194L 37.333 14.4982C 37.4441 14.4702 37.5613 14.4421 37.686 14.4149C 37.8107 14.3868 37.928 14.3595 38.039 14.3315C 38.6612 14.2065 39.3256 14.0856 40.031 13.9675C 40.7369 13.8493 41.3803 13.7558 41.9608 13.6867C 42.044 13.1321 42.0856 12.529 42.0856 11.8773C 42.0856 11.6 42.0788 11.3152 42.0644 11.0243C 42.0508 10.7333 42.0372 10.4491 42.0235 10.1718C 42.0235 10.1301 42.0198 10.0885 42.0126 10.0468C 42.0059 10.0051 42.0024 9.96344 42.0024 9.92184C 41.9888 9.6165 41.9752 9.31534 41.9608 9.01678C 41.9472 8.71898 41.9405 8.42463 41.9405 8.13293C 41.9405 7.38434 42.0092 6.68766 42.1476 6.04284C 42.2859 5.39803 42.5769 4.84004 43.0192 4.36808C 43.6973 3.63314 44.714 3.26562 46.0702 3.26562L 46.0702 5.13783C 45.2401 5.13783 44.6725 5.30452 44.3685 5.63714C 44.1334 5.87277 43.9773 6.21226 43.901 6.65626C 43.8254 7.10018 43.7872 7.59202 43.7872 8.13293C 43.7872 8.41024 43.7939 8.68759 43.8076 8.9649C 43.822 9.24221 43.8356 9.52701 43.8492 9.81804C 43.8772 10.1643 43.8976 10.5147 43.9119 10.8685C 43.9256 11.2217 43.9323 11.5789 43.9323 11.9395C 43.9323 12.2449 43.9256 12.5427 43.9119 12.8336C 43.8976 13.1253 43.8703 13.4163 43.8288 13.7072ZM 41.7741 15.434C 41.8989 15.7392 42.0822 16.0091 42.3241 16.2454C 42.566 16.481 42.829 16.6784 43.1126 16.8376C 43.3961 16.9974 43.6727 17.1183 43.9426 17.2017C 44.2125 17.285 44.4441 17.3266 44.6384 17.3266C 44.7488 17.3266 44.87 17.313 45.0009 17.2849C 45.1324 17.2577 45.2572 17.2126 45.375 17.1498C 45.4922 17.0876 45.5925 17.0009 45.6755 16.8902C 45.7587 16.7789 45.8003 16.6471 45.8003 16.4947C 45.8003 16.2864 45.7273 16.1061 45.5822 15.9537C 45.4371 15.8014 45.2503 15.6764 45.022 15.5794C 44.7937 15.4824 44.5409 15.4093 44.2642 15.3609C 43.9875 15.3124 43.7252 15.2885 43.4758 15.2885C 43.1855 15.2885 42.902 15.3021 42.6253 15.3301C 42.3486 15.3574 42.0644 15.3923 41.7741 15.434ZM 60.7626 3.59893L 60.7626 16.7235L 58.9363 16.7235L 58.9363 6.67742L 51.2582 16.7235L 49.577 16.7235L 49.577 3.59893L 51.4033 3.59893L 51.4033 13.4579L 59.0194 3.59893L 60.7626 3.59893ZM 74.4589 3.59893L 74.4589 16.6819L 72.6325 16.6819L 72.6325 10.8575L 65.0791 10.8575L 65.0791 16.6819L 63.2527 16.6819L 63.2527 3.59893L 65.0791 3.59893L 65.0791 9.0482L 72.6325 9.0482L 72.6325 3.59893L 74.4589 3.59893ZM 89.5044 12.3972C 89.2277 13.1874 88.8058 13.9087 88.2381 14.5603C 87.6712 15.212 86.9795 15.7461 86.1631 16.1621C 85.1947 16.647 84.178 16.8902 83.1129 16.8902C 82.4484 16.8902 81.8119 16.8034 81.2034 16.6299C 80.5948 16.4565 80.0278 16.2071 79.5018 15.8814C 78.9763 15.5555 78.502 15.1634 78.0802 14.7058C 77.6583 14.2482 77.3019 13.7284 77.0116 13.1457C 76.7765 12.6608 76.6 12.1615 76.4821 11.6486C 76.3649 11.135 76.3064 10.6288 76.3064 10.1301C 76.3064 9.50583 76.3922 8.88906 76.5653 8.27845C 76.7383 7.66852 76.9837 7.09678 77.3019 6.56266C 77.6202 6.02922 78.0147 5.54356 78.485 5.10642C 78.9552 4.66996 79.4881 4.29904 80.083 3.9937C 81.0793 3.50878 82.1097 3.26562 83.1748 3.26562C 83.825 3.26562 84.4513 3.35234 85.0529 3.5258C 85.6547 3.69935 86.2183 3.94865 86.7444 4.27449C 87.2698 4.60025 87.7441 4.99231 88.166 5.44994C 88.5877 5.90758 88.9442 6.42739 89.2345 7.01004C 89.3865 7.30099 89.5111 7.58518 89.6079 7.86248C 89.1098 7.86248 88.7295 7.85871 88.4665 7.85223C 88.2041 7.84545 88.0099 7.84197 87.8858 7.84197C 87.7611 7.84197 87.6848 7.8382 87.6576 7.83172C 87.6296 7.82493 87.616 7.82081 87.616 7.82081C 87.201 6.96153 86.5958 6.28873 85.7999 5.80382C 85.0046 5.31815 84.1295 5.07565 83.1748 5.07565C 82.3585 5.07565 81.5979 5.25597 80.8919 5.61662C 80.4497 5.83794 80.0585 6.11181 79.7198 6.43765C 79.3811 6.76349 79.0935 7.12414 78.8584 7.5196C 78.6233 7.91439 78.4434 8.33444 78.3187 8.77775C 78.1946 9.22175 78.1319 9.67251 78.1319 10.1301C 78.1319 10.8924 78.3051 11.6274 78.6512 12.335C 79.0662 13.1943 79.6714 13.867 80.4667 14.352C 81.2626 14.8376 82.1444 15.0801 83.1129 15.0801C 83.8597 15.0801 84.6066 14.8998 85.3542 14.5391C 85.838 14.3035 86.2674 13.9989 86.6408 13.6245C 87.0142 13.2496 87.3182 12.8412 87.554 12.3972L 89.5044 12.3972ZM 99.2582 12.3555C 99.507 12.8684 99.7455 13.3363 99.9738 13.7591C 100.202 14.1826 100.444 14.5467 100.7 14.8513C 100.956 15.1566 101.237 15.3923 101.54 15.5589C 101.845 15.725 102.205 15.8083 102.62 15.8083L 102.62 17.6177C 101.914 17.6177 101.302 17.479 100.783 17.2017C 100.265 16.9244 99.8116 16.5712 99.4238 16.1409C 99.0368 15.7113 98.7008 15.2331 98.4173 14.7058C 98.1338 14.1792 97.8673 13.6655 97.6186 13.1669C 97.5083 12.917 97.3903 12.6711 97.2656 12.4286C 97.1416 12.1854 97.0101 11.9464 96.8717 11.7107C 96.6639 11.863 96.4567 11.9914 96.2489 12.0953C 96.0417 12.1998 95.8338 12.279 95.6266 12.335C 95.474 12.404 95.2907 12.4525 95.0768 12.4805C 94.862 12.5079 94.6856 12.5358 94.5472 12.5638L 94.5472 16.6819L 92.742 16.6819L 92.742 12.5426C 92.5444 12.501 92.3754 12.4422 92.2261 12.3657C 92.0809 12.2899 91.9494 12.2032 91.8391 12.1062C 91.5174 11.8699 91.2721 11.5755 91.1058 11.2217C 90.9361 10.8685 90.8537 10.4901 90.8537 10.0885L 90.8537 9.96347C 90.8809 9.50583 91.0158 9.08646 91.2612 8.70532C 91.5072 8.32349 91.8322 8.02917 92.237 7.82081C 92.3059 7.79346 92.389 7.75863 92.479 7.71696C 92.5689 7.67529 92.6793 7.64116 92.804 7.6132L 92.804 3.59893L 94.5888 3.59893L 94.5888 7.69645C 94.796 7.75183 95.0522 7.83173 95.3637 7.93557C 95.6751 8.03941 95.9517 8.17459 96.2005 8.34128C 96.3804 8.4519 96.5467 8.56668 96.6952 8.68416C 96.8472 8.80232 96.9992 8.9307 97.1518 9.06935C 97.2901 8.91638 97.4251 8.75725 97.5525 8.59056C 97.684 8.42463 97.819 8.25116 97.9573 8.07084C 98.48 7.33582 98.8773 6.58381 99.1438 5.81398C 99.4136 5.04422 99.5486 4.31267 99.5486 3.6194L 101.375 3.6194C 101.375 4.50671 101.209 5.41851 100.877 6.35496C 100.545 7.29072 100.067 8.2095 99.445 9.11038C 99.2508 9.37405 99.0572 9.62747 98.8637 9.86996C 98.6701 10.1124 98.4691 10.3378 98.2619 10.5461C 98.4555 10.8371 98.6319 11.135 98.7907 11.4402C 98.9502 11.7456 99.1056 12.0502 99.2582 12.3555ZM 93.6102 11.0037C 93.7758 11.0037 93.9659 10.9826 94.1806 10.9409C 94.3918 10.8992 94.6058 10.8439 94.8205 10.775C 95.0352 10.7053 95.2457 10.6254 95.4502 10.5352C 95.6573 10.445 95.8305 10.359 95.9688 10.2757C 95.6785 10.012 95.305 9.77974 94.8409 9.57892C 94.3776 9.37741 93.9421 9.27706 93.5271 9.27706C 93.2776 9.27706 93.0773 9.36038 92.9185 9.52699C 92.759 9.693 92.6793 9.90138 92.6793 10.1507C 92.6793 10.206 92.6861 10.2791 92.7005 10.3693C 92.7141 10.4594 92.7523 10.5495 92.8142 10.6397C 92.8769 10.7298 92.9703 10.8091 93.0943 10.8787C 93.2191 10.9478 93.3888 10.9894 93.6102 11.0037ZM 115.86 3.59893L 115.86 16.7235L 114.033 16.7235L 114.033 6.67742L 106.355 16.7235L 104.674 16.7235L 104.674 3.59893L 106.5 3.59893L 106.5 13.4579L 114.116 3.59893L 115.86 3.59893ZM 126.837 1.91387C 126.602 1.83053 126.388 1.77182 126.194 1.73693C 126 1.70212 125.814 1.68501 125.634 1.68501C 125.412 1.68501 125.209 1.70212 125.021 1.73693C 124.835 1.77182 124.638 1.81006 124.43 1.85173C 124.402 1.85173 124.382 1.85546 124.368 1.86194C 124.354 1.86873 124.34 1.8722 124.326 1.8722C 124.077 1.92751 123.825 1.98014 123.569 2.02867C 123.313 2.07712 123.046 2.10106 122.77 2.10106C 122.562 2.10106 122.348 2.08395 122.126 2.04914C 121.906 2.01425 121.677 1.94872 121.441 1.85173L 121.441 0.0416598C 121.677 0.194632 121.906 0.295107 122.126 0.343561C 122.348 0.39209 122.562 0.416645 122.77 0.416645C 122.964 0.416645 123.164 0.398918 123.372 0.364028C 123.579 0.329892 123.794 0.284843 124.015 0.228853C 124.25 0.159827 124.499 0.104535 124.762 0.0628628C 125.025 0.0211911 125.302 -1.03025e-05 125.592 -1.03025e-05C 125.786 -1.03025e-05 125.983 0.0143057 126.184 0.0416598C 126.384 0.0696921 126.602 0.118169 126.837 0.187873L 126.837 1.91387ZM 129.535 3.59893L 129.535 16.7235L 127.709 16.7235L 127.709 6.67742L 120.031 16.7235L 118.35 16.7235L 118.35 3.59893L 120.176 3.59893L 120.176 13.4579L 127.792 3.59893L 129.535 3.59893ZM 7.42941 27.8215L 12.6378 34.4982L 10.3557 34.4982L 6.30835 29.2777L 2.24134 34.4982L -5.23122e-06 34.4982L 5.18806 27.8215L 0.207878 21.3948L 2.44855 21.3948L 6.30835 26.366L 10.1894 21.3948L 12.4307 21.3948L 7.42941 27.8215ZM 24.4873 21.3948C 24.0443 22.0048 23.6055 22.778 23.1693 23.7138C 22.7338 24.6495 22.3359 25.6727 21.9761 26.7819C 21.7962 27.3229 21.6095 27.8912 21.4159 28.4875C 21.2224 29.0838 20.9873 29.6698 20.7106 30.2449C 20.4339 30.8208 20.1088 31.3679 19.7354 31.8884C 19.3613 32.4082 18.9088 32.8658 18.3759 33.2613C 17.843 33.6561 17.2241 33.9682 16.5182 34.197C 15.8129 34.4258 14.9896 34.5399 14.0492 34.5399L 14.0492 32.5434C 14.5882 32.5434 15.0728 32.4983 15.5014 32.4081C 15.9308 32.318 16.311 32.1896 16.6429 32.0236C 16.9748 31.857 17.2726 31.6492 17.5356 31.3993C 17.798 31.1499 18.0405 30.8659 18.2614 30.5469L 13.4679 21.3948L 15.5846 21.3948L 19.3613 28.6951C 19.5691 28.0851 19.7661 27.4752 19.9527 26.8653C 20.1395 26.2546 20.3405 25.6481 20.5545 25.045C 20.7691 24.4419 21.0111 23.8353 21.281 23.2247C 21.5508 22.6147 21.8793 22.0048 22.267 21.3948L 24.4873 21.3948ZM 37.7269 21.4153C 37.7132 21.873 37.6404 22.2992 37.5095 22.6946C 37.378 23.0901 37.1879 23.4364 36.9384 23.7349C 36.6897 24.0327 36.3748 24.2684 35.9946 24.4418C 35.6137 24.6153 35.1748 24.7021 34.6766 24.7021C 34.2753 24.7021 33.8882 24.6639 33.5147 24.5874C 33.1406 24.5109 32.7399 24.3968 32.3105 24.2444L 32.3105 34.4777L 30.4849 34.4777L 30.4849 23.5163C 30.1803 23.405 29.8621 23.3148 29.5302 23.2459C 29.1983 23.1762 28.8657 23.142 28.5339 23.142C 28.1741 23.142 27.8456 23.2042 27.5485 23.3292C 27.2507 23.4535 27.0953 23.7308 27.081 24.1611L 25.3173 24.1611C 25.3173 23.7035 25.4039 23.3012 25.5769 22.9549C 25.7493 22.6079 25.9817 22.3203 26.2721 22.0915C 26.5624 21.8627 26.9051 21.6892 27.299 21.5717C 27.6936 21.4536 28.1189 21.3948 28.5755 21.3948C 29.2671 21.3948 29.8866 21.474 30.4325 21.6339C 30.979 21.793 31.484 21.97 31.9473 22.1639C 32.4114 22.3586 32.8605 22.5348 33.2966 22.6946C 33.7321 22.8538 34.1853 22.9337 34.6555 22.9337C 34.9186 22.9337 35.1332 22.9064 35.2988 22.8503C 35.4651 22.795 35.5932 22.7083 35.6831 22.5908C 35.7731 22.4727 35.8351 22.3169 35.8699 22.1229C 35.9046 21.9283 35.9285 21.6926 35.9422 21.4153L 37.7269 21.4153ZM 45.5502 34.7066C 44.6098 34.7066 43.7279 34.5297 42.9047 34.1759C 42.0815 33.8227 41.3652 33.3371 40.7567 32.7203C 40.1482 32.1028 39.6636 31.3856 39.3038 30.5674C 38.944 29.7491 38.7647 28.8686 38.7647 27.926C 38.7647 26.9964 38.944 26.1228 39.3038 25.3052C 39.6636 24.4869 40.1482 23.7691 40.7567 23.1523C 41.3652 22.5348 42.0815 22.0498 42.9047 21.696C 43.7279 21.3429 44.6098 21.166 45.5502 21.166C 46.4913 21.166 47.3766 21.3429 48.2066 21.696C 49.0366 22.0498 49.7596 22.5348 50.375 23.1523C 50.991 23.7691 51.4783 24.4869 51.8381 25.3052C 52.1979 26.1228 52.3779 26.9964 52.3779 27.926C 52.3779 28.8686 52.1979 29.7491 51.8381 30.5674C 51.4783 31.3856 50.991 32.1028 50.375 32.7203C 49.7596 33.3371 49.0366 33.8227 48.2066 34.1759C 47.3766 34.5297 46.4913 34.7066 45.5502 34.7066ZM 45.5611 22.9753C 44.8694 22.9753 44.2261 23.1073 43.6237 23.3708C 43.0254 23.6338 42.4999 23.9876 42.0502 24.4316C 41.6004 24.8749 41.248 25.3988 40.985 26.0019C 40.722 26.605 40.5904 27.2464 40.5904 27.926C 40.5904 28.6193 40.722 29.2676 40.985 29.8706C 41.248 30.4738 41.6004 30.997 42.0502 31.441C 42.4999 31.8849 43.0254 32.2381 43.6237 32.5017C 44.2261 32.7654 44.8694 32.8972 45.5611 32.8972C 46.2664 32.8972 46.92 32.7654 47.5285 32.5017C 48.1343 32.2381 48.6631 31.8849 49.1129 31.441C 49.5626 30.997 49.9116 30.4738 50.1678 29.8706C 50.4241 29.2676 50.5515 28.6193 50.5515 27.926C 50.5515 27.2464 50.4241 26.605 50.1678 26.0019C 49.9116 25.3988 49.5626 24.8749 49.1129 24.4316C 48.6631 23.9876 48.1343 23.6338 47.5285 23.3708C 46.92 23.1073 46.2664 22.9753 45.5611 22.9753ZM 60.2018 21.2903C 61.7787 21.388 62.9515 21.8797 63.7189 22.7677C 64.4869 23.655 64.8712 24.8544 64.8712 26.366C 64.8712 26.9896 64.7363 27.5688 64.4664 28.1022C 64.1966 28.6364 63.8299 29.1043 63.3666 29.5066C 62.9031 29.9089 62.3634 30.2244 61.748 30.4533C 61.132 30.6821 60.4853 30.7962 59.8072 30.7962L 56.9437 30.7962L 56.9437 34.4777L 55.1174 34.4777L 55.1174 23.4747C 54.8823 23.461 54.6608 23.4399 54.4536 23.4125C 54.2458 23.3846 54.0386 23.3291 53.8308 23.2459L 53.8308 21.4986C 54.1074 21.5677 54.3943 21.6168 54.6921 21.6441C 54.9893 21.6721 55.2625 21.6858 55.5119 21.6858C 55.8718 21.6858 56.2207 21.6653 56.5601 21.6236C 56.8987 21.582 57.2408 21.5403 57.587 21.4986C 57.9468 21.429 58.2991 21.3771 58.6453 21.3429C 58.9909 21.3081 59.365 21.2903 59.7657 21.2903L 60.2018 21.2903ZM 63.2316 26.2724C 63.2316 25.8981 63.1969 25.5306 63.128 25.1632C 63.0585 24.7957 62.9134 24.4699 62.6919 24.1782C 62.4704 23.8872 62.1521 23.6447 61.7371 23.4535C 61.3221 23.2595 60.7688 23.142 60.0771 23.1004C 59.69 23.1004 59.23 23.114 58.6971 23.142C 58.1642 23.1693 57.5802 23.2595 56.9437 23.4125L 56.9437 28.9868L 59.8072 28.9868C 60.2638 28.9868 60.6931 28.9239 61.0939 28.7997C 61.4952 28.6747 61.8516 28.491 62.163 28.2519C 62.4738 28.0087 62.7232 27.7211 62.91 27.3919C 63.0967 27.0592 63.2036 26.685 63.2316 26.2724Z"/>
<path id="path47_fill" fill-rule="evenodd" d="M 25.3133 2.70362L 22.616 9.08831e-06L -5.34135e-06 14.9734L 4.77215 14.9734L 4.77215 45.7521C 4.77215 45.7521 8.50692 44.0884 12.4491 42.6325C 16.3914 41.1768 19.7112 40.345 19.7112 40.345L 19.7112 12.8937L 9.54437 12.8937L 25.3133 2.70362Z"/>
<path id="path48_fill" fill-rule="evenodd" d="M -1.65196e-06 13.7255L 23.3091 -7.61652e-06L 43.0155 13.3096L 40.2613 13.3096L 40.2613 35.1457L 40.2725 38.1217C 40.2725 38.1217 30.9375 37.2256 22.2495 39.0965C 13.5614 40.9684 4.44946 42.8403 4.44946 42.8403L 4.2385 13.5175L -1.65196e-06 13.7255Z"/>
<path id="path49_fill" fill-rule="evenodd" d="M 5.50655e-08 61.2943C 5.25369 57.8651 19.585 49.4009 38.8735 45.1409C 55.017 41.5755 67.7001 41.4374 74.4817 41.7599L 72.0868 40.5597L 72.0868 19.3292L 76.8764 19.3292L 52.7462 2.47235L 23.7808 19.7449L 31.8351 19.7449L 31.8742 47.213L 29.5666 47.6079L 29.7595 21.8241L 20.5795 21.8241L 20.5795 19.2339L 52.8353 -1.13328e-05L 78.4067 17.8621L 78.4067 21.4084L 74.1618 21.4084L 74.1618 39.2751L 86.1317 45.2736L 79.6071 44.2727C 79.4456 44.2483 63.3004 41.8752 39.3197 47.172C 24.3883 50.4696 12.5034 56.3146 5.61916 60.2856C 3.3757 61.5798 1.50358 62.8798 5.50655e-08 64.0776L 5.50655e-08 61.2943Z"/>
<path id="path50_fill" fill-rule="evenodd" d="M 5.323e-07 19.6491C 5.25362 16.2198 19.585 7.75574 38.8734 3.49573C 55.0169 -0.0696557 67.7 -0.207598 74.4815 0.114698L 79.9541 0.532825L 86.1315 3.62837L 79.6069 2.62741C 79.4456 2.603 63.3003 0.230027 39.3196 5.52671C 24.3883 8.82442 12.5033 14.6694 5.61908 18.6404C 3.37562 19.9345 1.50358 21.2346 5.323e-07 22.4324L 5.323e-07 19.6491Z"/>
<path id="path51_fill" fill-rule="evenodd" d="M 10.659 50.9974L 8.54421 51.9427L 8.54421 23.5643L 5.50655e-07 23.5643L 5.50655e-07 20.4605L 30.4196 -1.09648e-05L 34.7546 3.86213L 33.3762 5.41611L 30.2416 2.6235L 2.20082 21.4844L 10.6193 21.4844L 10.659 50.9974Z"/>
<path id="path52_fill" fill-rule="evenodd" d="M -8.44337e-07 -1.21423e-06L 4.8835 -1.21423e-06L 4.8835 4.89474L -8.44337e-07 4.89474L -8.44337e-07 -1.21423e-06ZM 6.27558 6.29002L 11.1592 6.29002L 11.1592 11.1848L 6.27558 11.1848L 6.27558 6.29002ZM 6.27558 -1.21423e-06L 11.1592 -1.21423e-06L 11.1592 4.89474L 6.27558 4.89474L 6.27558 -1.21423e-06ZM -8.44337e-07 6.29002L 4.8835 6.29002L 4.8835 11.1848L -8.44337e-07 11.1848L -8.44337e-07 6.29002Z"/>
<path id="path53_fill" fill-rule="evenodd" d="M 1.91122 3.03074C 1.94798 3.04144 2.00436 3.05992 2.0797 3.08607C 2.15571 3.1123 2.23758 3.15687 2.3266 3.21927C 2.41554 3.28234 2.50576 3.3632 2.59711 3.46313C 2.68853 3.56244 2.7716 3.69034 2.84754 3.84731C 2.92347 4.00435 2.9858 4.1929 3.03565 4.41294C 3.08549 4.63298 3.11279 4.89167 3.11813 5.19023L 2.3972 5.19023C 2.3972 4.83937 2.35562 4.55804 2.27194 4.34629C 2.18834 4.13394 2.07203 3.97165 1.92309 3.85922C 1.77416 3.74687 1.59793 3.6725 1.39441 3.63565C 1.19089 3.59872 0.966018 3.58092 0.720922 3.58092L 0.720922 5.18245L 0 5.18245L 0 1.25673L 0.720922 1.25673L 0.720922 2.83453C 0.793924 2.83453 0.865723 2.83226 0.93632 2.82676C 1.00692 2.82149 1.07871 2.82451 1.15172 2.83453L 2.36569 1.25673L 3.26646 1.25673L 1.91122 3.03074ZM 5.78884 5.27642C 5.50164 5.27642 5.23106 5.22174 4.9783 5.11172C 4.72493 5.0017 4.50299 4.85242 4.31195 4.66388C 4.12151 4.47602 3.97137 4.25587 3.8616 4.00433C 3.75184 3.75332 3.69726 3.48637 3.69726 3.20386C 3.69726 2.916 3.75184 2.6466 3.8616 2.39507C 3.97137 2.14406 4.12151 1.92401 4.31195 1.73547C 4.50299 1.54693 4.72493 1.39765 4.9783 1.28823C 5.23106 1.17821 5.50164 1.12289 5.78884 1.12289C 6.0707 1.12289 6.33828 1.17821 6.59165 1.28823C 6.84501 1.39765 7.06575 1.54693 7.25386 1.73547C 7.44196 1.92401 7.59029 2.14406 7.70006 2.39507C 7.80982 2.6466 7.86501 2.916 7.86501 3.20386C 7.86501 3.48637 7.80982 3.75332 7.70006 4.00433C 7.59029 4.25587 7.44196 4.47602 7.25386 4.66388C 7.06575 4.85242 6.84501 5.0017 6.59165 5.11172C 6.33828 5.22174 6.0707 5.27642 5.78884 5.27642ZM 5.78884 1.86094C 5.60073 1.86094 5.4233 1.89666 5.25602 1.96742C 5.08927 2.03757 4.94386 2.13333 4.82161 2.25345C 4.69884 2.37417 4.60087 2.51575 4.52735 2.67747C 4.45434 2.83986 4.41819 3.01532 4.41819 3.20386C 4.41819 3.3924 4.45434 3.56782 4.52735 3.72961C 4.60087 3.89193 4.69884 4.03463 4.82161 4.15777C 4.94386 4.2809 5.08927 4.3778 5.25602 4.44803C 5.4233 4.51879 5.60073 4.55446 5.78884 4.55446C 5.97695 4.55446 6.15318 4.51879 6.31752 4.44803C 6.48187 4.3778 6.62547 4.2809 6.74832 4.15777C 6.87109 4.03463 6.96786 3.89193 7.03846 3.72961C 7.10905 3.56782 7.14409 3.3924 7.14409 3.20386C 7.14409 3.01532 7.10905 2.83986 7.03846 2.67747C 6.96786 2.51575 6.87109 2.37417 6.74832 2.25345C 6.62547 2.13333 6.48187 2.03757 6.31752 1.96742C 6.15318 1.89666 5.97695 1.86094 5.78884 1.86094ZM 5.78884 5.27642C 5.50164 5.27642 5.23106 5.22174 4.9783 5.11172C 4.72493 5.0017 4.50299 4.85242 4.31195 4.66388C 4.12151 4.47602 3.97137 4.25587 3.8616 4.00433C 3.75184 3.75332 3.69726 3.48637 3.69726 3.20386C 3.69726 2.916 3.75184 2.6466 3.8616 2.39507C 3.97137 2.14406 4.12151 1.92401 4.31195 1.73547C 4.50299 1.54693 4.72493 1.39765 4.9783 1.28823C 5.23106 1.17821 5.50164 1.12289 5.78884 1.12289C 6.0707 1.12289 6.33828 1.17821 6.59165 1.28823C 6.84501 1.39765 7.06575 1.54693 7.25386 1.73547C 7.44196 1.92401 7.59029 2.14406 7.70006 2.39507C 7.80982 2.6466 7.86501 2.916 7.86501 3.20386C 7.86501 3.48637 7.80982 3.75332 7.70006 4.00433C 7.59029 4.25587 7.44196 4.47602 7.25386 4.66388C 7.06575 4.85242 6.84501 5.0017 6.59165 5.11172C 6.33828 5.22174 6.0707 5.27642 5.78884 5.27642ZM 5.78884 1.86094C 5.60073 1.86094 5.4233 1.89666 5.25602 1.96742C 5.08927 2.03757 4.94386 2.13333 4.82161 2.25345C 4.69884 2.37417 4.60087 2.51575 4.52735 2.67747C 4.45434 2.83986 4.41819 3.01532 4.41819 3.20386C 4.41819 3.3924 4.45434 3.56782 4.52735 3.72961C 4.60087 3.89193 4.69884 4.03463 4.82161 4.15777C 4.94386 4.2809 5.08927 4.3778 5.25602 4.44803C 5.4233 4.51879 5.60073 4.55446 5.78884 4.55446C 5.97695 4.55446 6.15318 4.51879 6.31752 4.44803C 6.48187 4.3778 6.62547 4.2809 6.74832 4.15777C 6.87109 4.03463 6.96786 3.89193 7.03846 3.72961C 7.10905 3.56782 7.14409 3.3924 7.14409 3.20386C 7.14409 3.01532 7.10905 2.83986 7.03846 2.67747C 6.96786 2.51575 6.87109 2.37417 6.74832 2.25345C 6.62547 2.13333 6.48187 2.03757 6.31752 1.96742C 6.15318 1.89666 5.97695 1.86094 5.78884 1.86094ZM 11.7817 1.96328L 10.3874 1.96328L 10.3874 5.198L 9.65873 5.198L 9.65873 1.96328L 8.33491 1.96328L 8.33491 1.24895L 11.7817 1.24895L 11.7817 1.96328ZM 15.8552 1.96328L 14.4608 1.96328L 14.4608 5.198L 13.7321 5.198L 13.7321 1.96328L 12.4084 1.96328L 12.4084 1.24895L 15.8552 1.24895L 15.8552 1.96328ZM 20.2887 4.78162C 20.106 4.91304 19.8918 5.02902 19.6467 5.13136C 19.4011 5.23361 19.1216 5.28419 18.8083 5.28419C 18.5526 5.28419 18.3165 5.24674 18.0993 5.17063C 17.8827 5.09445 17.6946 4.98624 17.5355 4.84472C 17.3759 4.70313 17.2484 4.52831 17.1517 4.31897C 17.055 4.10963 17.0015 3.87111 16.9908 3.60405L 16.9908 3.56486C 16.9072 3.57556 16.8224 3.58205 16.7363 3.58446C 16.6503 3.58747 16.5655 3.60407 16.4818 3.63565L 16.4818 2.92132C 16.5708 2.89517 16.6568 2.87912 16.7405 2.87377C 16.8242 2.86924 16.9102 2.86068 16.9986 2.85058C 17.0146 2.59905 17.0722 2.36882 17.1713 2.15949C 17.2704 1.95015 17.4038 1.76937 17.5706 1.61768C 17.7379 1.46607 17.9361 1.34828 18.1663 1.26441C 18.3959 1.18061 18.6493 1.13894 18.9258 1.13894C 19.2237 1.13894 19.4925 1.20434 19.7328 1.33524C 19.9155 1.43991 20.0669 1.58386 20.1873 1.76698C 20.3071 1.95017 20.3671 2.15716 20.3671 2.38729C 20.3671 2.62813 20.2864 2.853 20.1244 3.06234C 19.9571 3.28238 19.7577 3.42508 19.5251 3.49049C 19.2925 3.5559 19.0409 3.5886 18.7691 3.5886C 18.6493 3.5886 18.5093 3.58332 18.3502 3.57254C 18.1906 3.56245 18.0459 3.55709 17.9153 3.55709C 17.8785 3.55709 17.8447 3.5586 17.8133 3.56086C 17.7824 3.56312 17.7534 3.56766 17.7273 3.57218L 17.7273 3.61145C 17.7273 3.92071 17.8305 4.15504 18.0369 4.31442C 18.2429 4.4738 18.5004 4.55405 18.8083 4.55405C 18.965 4.55405 19.1098 4.54104 19.2432 4.51481C 19.3762 4.48866 19.5014 4.45182 19.6189 4.4048C 19.737 4.35785 19.8503 4.30252 19.96 4.24005C 20.0698 4.17705 20.179 4.10924 20.2887 4.03547L 20.2887 4.78162ZM 19.0202 1.82166C 18.8582 1.82166 18.7027 1.84312 18.5538 1.88472C 18.4049 1.92632 18.272 1.98942 18.1544 2.07329C 18.0369 2.15717 17.9403 2.26295 17.8643 2.39083C 17.7889 2.51932 17.7433 2.67274 17.7273 2.85058L 18.1503 2.83453C 18.2393 2.84523 18.3473 2.85179 18.4755 2.85413C 18.6036 2.85714 18.7276 2.85863 18.8475 2.85863C 18.9519 2.85863 19.0563 2.85183 19.1608 2.83895C 19.2652 2.82591 19.3578 2.7997 19.4391 2.76044C 19.5198 2.72118 19.585 2.66767 19.6349 2.59932C 19.6841 2.5315 19.7091 2.44523 19.7091 2.34056C 19.7091 2.1521 19.6385 2.01825 19.4978 1.93973C 19.3566 1.86121 19.1976 1.82166 19.0202 1.82166ZM 24.6363 4.55446C 24.6677 4.55898 24.7004 4.56219 24.7342 4.56219C 24.7681 4.56219 24.8007 4.56219 24.8321 4.56219C 24.895 4.56219 24.9561 4.56068 25.0161 4.55841C 25.0766 4.55615 25.127 4.55167 25.1691 4.54655C 25.2214 4.54203 25.2706 4.53645 25.3181 4.53109L 25.0671 6.10113L 24.3936 6.10113L 24.4951 5.19837L 21.6517 5.19837L 21.7692 6.10113L 21.072 6.10113L 20.8762 4.55483L 21.393 4.49182C 21.4874 4.36092 21.5496 4.19738 21.5811 4.00116C 21.6126 3.80486 21.6386 3.60209 21.6595 3.39276L 21.6595 3.35348C 21.6802 3.13879 21.7377 2.90869 21.8321 2.66243C 21.9258 2.41624 22.0706 2.19024 22.2664 1.98324C 22.4623 1.77631 22.7156 1.60379 23.0265 1.46521C 23.3375 1.32603 23.7196 1.25709 24.1741 1.25709L 24.6363 1.25709L 24.6363 4.55446ZM 23.9468 4.5069L 23.9468 1.93945C 23.7018 1.93945 23.4834 1.97872 23.293 2.05724C 23.1025 2.13576 22.9393 2.24215 22.8034 2.37538C 22.6675 2.50921 22.5602 2.66444 22.4818 2.84281C 22.4035 3.02065 22.3566 3.21158 22.3412 3.41557C 22.3252 3.58859 22.3033 3.77061 22.2748 3.96156C 22.2457 4.15243 22.203 4.33207 22.1454 4.49913L 23.9468 4.5069ZM 30.3866 2.57582C 30.329 2.67514 30.2412 2.77565 30.1237 2.8779C 30.0063 2.98024 29.8953 3.07536 29.7909 3.16458C 29.8953 3.25855 30.0063 3.36088 30.1237 3.4709C 30.2412 3.58092 30.329 3.68791 30.3866 3.79258C 30.4489 3.89725 30.5088 3.99426 30.5664 4.08349C 30.6239 4.1721 30.6921 4.24938 30.7705 4.31479C 30.8488 4.3802 30.9402 4.43138 31.0446 4.46762C 31.149 4.50447 31.2796 4.52295 31.4362 4.52295L 31.4362 5.22946C 31.1751 5.22946 30.9544 5.19556 30.774 5.12722C 30.5936 5.0594 30.4412 4.972 30.3159 4.86432C 30.1908 4.75731 30.0863 4.64072 30.0027 4.51518C 29.9191 4.38911 29.843 4.269 29.7754 4.15363C 29.7179 4.05431 29.6657 3.96506 29.6188 3.88654C 29.5719 3.8081 29.5209 3.74028 29.4657 3.68256C 29.4111 3.62491 29.35 3.58094 29.2817 3.54936C 29.2141 3.51786 29.1328 3.49705 29.039 3.48635L 29.039 5.18245L 28.3496 5.18245L 28.3496 3.48635C 28.2559 3.49163 28.1745 3.51127 28.1069 3.54518C 28.0386 3.57909 27.9775 3.62371 27.9229 3.67902C 27.8678 3.73373 27.8144 3.80154 27.7621 3.883C 27.71 3.96386 27.6554 4.05431 27.5978 4.15363C 27.5349 4.269 27.4619 4.38911 27.3782 4.51518C 27.2946 4.64072 27.1901 4.75731 27.065 4.86432C 26.9398 4.972 26.7855 5.0594 26.6027 5.12722C 26.42 5.19556 26.2004 5.22946 25.9447 5.22946L 25.9447 4.52295C 26.1013 4.52295 26.2319 4.50447 26.3363 4.46762C 26.4407 4.43138 26.5321 4.3802 26.6104 4.31479C 26.6887 4.24938 26.757 4.1721 26.8145 4.08349C 26.8715 3.99426 26.932 3.89725 26.9944 3.79258C 27.0519 3.68791 27.1409 3.58092 27.2607 3.4709C 27.3806 3.36088 27.4934 3.25855 27.5978 3.16458C 27.4981 3.07536 27.3901 2.97843 27.2726 2.87377C 27.1551 2.7691 27.0673 2.66737 27.0104 2.56805C 26.9474 2.46812 26.8875 2.3754 26.8299 2.28919C 26.7724 2.20291 26.706 2.12921 26.63 2.06916C 26.5546 2.00902 26.4633 1.96205 26.3559 1.92814C 26.2491 1.89363 26.1173 1.87699 25.9607 1.87699L 25.9607 1.17044C 26.2164 1.17044 26.433 1.20323 26.6104 1.26864C 26.7884 1.33405 26.9398 1.41732 27.065 1.51958C 27.1901 1.62191 27.2958 1.73307 27.3824 1.85326C 27.4684 1.97398 27.5426 2.08875 27.6055 2.19876C 27.663 2.29273 27.7165 2.37778 27.7663 2.45389C 27.8156 2.53 27.8678 2.59423 27.9229 2.6466C 27.9775 2.6989 28.0386 2.74175 28.1069 2.77566C 28.1745 2.8101 28.2559 2.82979 28.3496 2.83453L 28.3496 1.28823L 29.039 1.28823L 29.039 2.83453C 29.2325 2.81373 29.3761 2.75127 29.4698 2.6466C 29.5636 2.54193 29.6603 2.40809 29.7594 2.24577L 29.7831 2.20649C 29.8508 2.09647 29.9267 1.98283 30.0104 1.86513C 30.0941 1.74735 30.1985 1.63737 30.3237 1.53503C 30.4488 1.43338 30.6019 1.3495 30.7818 1.28409C 30.9621 1.21868 31.1799 1.18594 31.4362 1.18594L 31.4362 1.89249C 31.2796 1.89249 31.1472 1.90968 31.0405 1.94359C 30.9336 1.9775 30.8423 2.0245 30.7663 2.08516C 30.6903 2.14522 30.6239 2.21723 30.5664 2.3011C 30.5088 2.38429 30.4489 2.4765 30.3866 2.57582ZM 35.8307 1.24895L 35.8307 5.198L 35.1097 5.198L 35.1097 3.52563L 33.097 3.52563L 33.097 5.198L 32.3838 5.198L 32.3838 1.24895L 33.097 1.24895L 33.097 2.79525L 35.1097 2.79525L 35.1097 1.24895L 35.8307 1.24895ZM 41.5412 1.26441L 41.5412 5.198L 40.8125 5.198L 40.8125 1.26441L 41.5412 1.26441ZM 38.3922 2.30878C 38.5957 2.30878 38.7969 2.33854 38.995 2.3992C 39.1938 2.45926 39.3688 2.54849 39.5202 2.6662C 39.6714 2.78398 39.7943 2.93443 39.8881 3.11762C 39.9824 3.30074 40.0292 3.51251 40.0292 3.75334C 40.0292 4.01506 39.9847 4.24165 39.8964 4.43253C 39.8074 4.62348 39.6845 4.78162 39.5278 4.90769C 39.3712 5.03323 39.1849 5.12603 38.9677 5.18609C 38.7512 5.24675 38.515 5.27642 38.2587 5.27642C 38.0605 5.27642 37.8439 5.26216 37.609 5.2336C 37.374 5.20444 37.1206 5.15629 36.8489 5.08794L 36.8489 1.24895L 37.5775 1.24895L 37.5775 2.43425C 37.8492 2.35046 38.1204 2.30878 38.3922 2.30878ZM 38.267 4.54613C 38.3975 4.54613 38.5251 4.53485 38.6509 4.51104C 38.7761 4.48723 38.8871 4.44563 38.9837 4.38557C 39.0799 4.32551 39.157 4.24404 39.2146 4.14231C 39.2721 4.03998 39.3006 3.91039 39.3006 3.75334C 39.3006 3.62788 39.2763 3.51907 39.2264 3.42743C 39.1766 3.33588 39.109 3.26158 39.0229 3.20386C 38.9363 3.14614 38.8372 3.10454 38.7251 3.07839C 38.613 3.05217 38.4942 3.03911 38.3685 3.03911C 38.1282 3.03911 37.8647 3.09622 37.5775 3.21159L 37.5775 4.48368C 37.7134 4.50982 37.8386 4.5265 37.9537 4.53487C 38.0683 4.54255 38.1727 4.54613 38.267 4.54613ZM 45.2307 0.698871C 45.1577 0.672723 45.0883 0.654839 45.023 0.644139C 44.9577 0.633438 44.8966 0.628731 44.8391 0.628731C 44.7661 0.628731 44.6979 0.633212 44.6355 0.644139C 44.5726 0.654839 44.4967 0.667894 44.4083 0.683417C 44.3246 0.704215 44.241 0.722656 44.1573 0.738104C 44.0742 0.754154 43.9876 0.761882 43.8992 0.761882C 43.7579 0.761882 43.612 0.735714 43.4601 0.683417L 43.4601 0.0161437C 43.5384 0.0630903 43.6132 0.0957857 43.6838 0.114248C 43.7538 0.132635 43.8256 0.141614 43.8992 0.141614C 43.9614 0.141614 44.0267 0.134815 44.095 0.121929C 44.1626 0.108892 44.2332 0.0946077 44.3062 0.0785569C 44.3845 0.0524084 44.467 0.0327971 44.5531 0.0196852C 44.6391 0.00657332 44.7293 0 44.8236 0C 44.8912 0 44.9577 0.00452745 45.023 0.0119123C 45.0883 0.019674 45.1577 0.0369546 45.2307 0.0631031L 45.2307 0.698871ZM 46.0139 1.26441L 46.0139 5.19023L 45.309 5.19023L 45.309 2.44198L 43.2174 5.198L 42.5594 5.198L 42.5594 1.26441L 43.2643 1.26441L 43.2643 4.01261L 45.3559 1.26441L 46.0139 1.26441ZM 54.4818 1.24895L 54.4818 5.198L 53.7614 5.198L 53.7614 1.96328L 51.7405 1.96328L 51.7405 5.198L 51.0272 5.198L 51.0272 1.24895L 54.4818 1.24895ZM 57.2783 5.27642C 56.9911 5.27642 56.7205 5.22174 56.4677 5.11172C 56.2144 5.0017 55.9924 4.85242 55.8014 4.66388C 55.6109 4.47602 55.4608 4.25587 55.351 4.00433C 55.2413 3.75332 55.1867 3.48637 55.1867 3.20386C 55.1867 2.916 55.2413 2.6466 55.351 2.39507C 55.4608 2.14406 55.6109 1.92401 55.8014 1.73547C 55.9924 1.54693 56.2144 1.39765 56.4677 1.28823C 56.7205 1.17821 56.9911 1.12289 57.2783 1.12289C 57.5601 1.12289 57.8277 1.17821 58.0811 1.28823C 58.3344 1.39765 58.5552 1.54693 58.7433 1.73547C 58.9314 1.92401 59.0797 2.14406 59.1895 2.39507C 59.2993 2.6466 59.3544 2.916 59.3544 3.20386C 59.3544 3.48637 59.2993 3.75332 59.1895 4.00433C 59.0797 4.25587 58.9314 4.47602 58.7433 4.66388C 58.5552 4.85242 58.3344 5.0017 58.0811 5.11172C 57.8277 5.22174 57.5601 5.27642 57.2783 5.27642ZM 57.2783 1.86094C 57.0902 1.86094 56.9127 1.89666 56.7454 1.96742C 56.5787 2.03757 56.4333 2.13333 56.311 2.25345C 56.1883 2.37417 56.0904 2.51575 56.0168 2.67747C 55.9438 2.83986 55.9076 3.01532 55.9076 3.20386C 55.9076 3.3924 55.9438 3.56782 56.0168 3.72961C 56.0904 3.89193 56.1883 4.03463 56.311 4.15777C 56.4333 4.2809 56.5787 4.3778 56.7454 4.44803C 56.9127 4.51879 57.0902 4.55446 57.2783 4.55446C 57.4664 4.55446 57.6426 4.51879 57.807 4.44803C 57.9713 4.3778 58.1149 4.2809 58.2378 4.15777C 58.3605 4.03463 58.4573 3.89193 58.5279 3.72961C 58.5985 3.56782 58.6335 3.3924 58.6335 3.20386C 58.6335 3.01532 58.5985 2.83986 58.5279 2.67747C 58.4573 2.51575 58.3605 2.37417 58.2378 2.25345C 58.1149 2.13333 57.9713 2.03757 57.807 1.96742C 57.6426 1.89666 57.4664 1.86094 57.2783 1.86094ZM 57.2783 5.27642C 56.9911 5.27642 56.7205 5.22174 56.4677 5.11172C 56.2144 5.0017 55.9924 4.85242 55.8014 4.66388C 55.6109 4.47602 55.4608 4.25587 55.351 4.00433C 55.2413 3.75332 55.1867 3.48637 55.1867 3.20386C 55.1867 2.916 55.2413 2.6466 55.351 2.39507C 55.4608 2.14406 55.6109 1.92401 55.8014 1.73547C 55.9924 1.54693 56.2144 1.39765 56.4677 1.28823C 56.7205 1.17821 56.9911 1.12289 57.2783 1.12289C 57.5601 1.12289 57.8277 1.17821 58.0811 1.28823C 58.3344 1.39765 58.5552 1.54693 58.7433 1.73547C 58.9314 1.92401 59.0797 2.14406 59.1895 2.39507C 59.2993 2.6466 59.3544 2.916 59.3544 3.20386C 59.3544 3.48637 59.2993 3.75332 59.1895 4.00433C 59.0797 4.25587 58.9314 4.47602 58.7433 4.66388C 58.5552 4.85242 58.3344 5.0017 58.0811 5.11172C 57.8277 5.22174 57.5601 5.27642 57.2783 5.27642ZM 57.2783 1.86094C 57.0902 1.86094 56.9127 1.89666 56.7454 1.96742C 56.5787 2.03757 56.4333 2.13333 56.311 2.25345C 56.1883 2.37417 56.0904 2.51575 56.0168 2.67747C 55.9438 2.83986 55.9076 3.01532 55.9076 3.20386C 55.9076 3.3924 55.9438 3.56782 56.0168 3.72961C 56.0904 3.89193 56.1883 4.03463 56.311 4.15777C 56.4333 4.2809 56.5787 4.3778 56.7454 4.44803C 56.9127 4.51879 57.0902 4.55446 57.2783 4.55446C 57.4664 4.55446 57.6426 4.51879 57.807 4.44803C 57.9713 4.3778 58.1149 4.2809 58.2378 4.15777C 58.3605 4.03463 58.4573 3.89193 58.5279 3.72961C 58.5985 3.56782 58.6335 3.3924 58.6335 3.20386C 58.6335 3.01532 58.5985 2.83986 58.5279 2.67747C 58.4573 2.51575 58.3605 2.37417 58.2378 2.25345C 58.1149 2.13333 57.9713 2.03757 57.807 1.96742C 57.6426 1.89666 57.4664 1.86094 57.2783 1.86094ZM 63.6783 3.88654C 63.6053 4.09113 63.505 4.27788 63.3768 4.44803C 63.2492 4.61811 63.0991 4.76497 62.9264 4.8881C 62.7543 5.01123 62.5651 5.10635 62.3586 5.17477C 62.1521 5.24259 61.9397 5.27642 61.7201 5.27642C 61.443 5.27642 61.1808 5.22291 60.9328 5.1159C 60.6847 5.00822 60.467 4.86309 60.2789 4.67998C 60.0908 4.49679 59.9418 4.27969 59.8321 4.02816C 59.7223 3.77715 59.6677 3.51015 59.6677 3.22764C 59.6677 2.94988 59.7223 2.68586 59.8321 2.43425C 59.9418 2.18332 60.0908 1.96204 60.2789 1.77116C 60.467 1.57961 60.6859 1.42803 60.9369 1.3156C 61.1873 1.20324 61.4561 1.14671 61.7439 1.14671C 61.9682 1.14671 62.1836 1.18175 62.39 1.25259C 62.5959 1.32335 62.7828 1.42143 62.9502 1.5469C 63.1169 1.67297 63.2658 1.82345 63.3964 1.99828C 63.5269 2.17378 63.6314 2.36648 63.7097 2.57582L 62.9264 2.57582C 62.8113 2.35578 62.6482 2.18331 62.4369 2.05724C 62.2251 1.9317 61.9942 1.86927 61.7439 1.86927C 61.5659 1.86927 61.395 1.90431 61.2306 1.97514C 61.0663 2.0459 60.9209 2.1411 60.7957 2.26182C 60.6705 2.38194 60.5696 2.52585 60.4943 2.69352C 60.4183 2.86066 60.3803 3.0391 60.3803 3.22764C 60.3803 3.40005 60.4147 3.56782 60.4824 3.72961C 60.5501 3.89193 60.6456 4.03463 60.7684 4.15777C 60.8913 4.2809 61.0337 4.379 61.1951 4.45217C 61.357 4.52534 61.532 4.56219 61.7201 4.56219C 61.9551 4.56219 62.1811 4.50033 62.3977 4.3778C 62.6143 4.25474 62.7828 4.09113 62.9027 3.88654L 63.6783 3.88654ZM 67.9866 4.78162C 67.8038 4.91304 67.5896 5.02902 67.3446 5.13136C 67.0989 5.23361 66.8195 5.28419 66.5062 5.28419C 66.2504 5.28419 66.0143 5.24674 65.7971 5.17063C 65.5805 5.09445 65.3924 4.98624 65.2334 4.84472C 65.0738 4.70313 64.9462 4.52831 64.8495 4.31897C 64.7528 4.10963 64.6994 3.87111 64.6887 3.60405L 64.6887 3.56486C 64.605 3.57556 64.5202 3.58205 64.4342 3.58446C 64.3482 3.58747 64.2633 3.60407 64.1796 3.63565L 64.1796 2.92132C 64.2686 2.89517 64.3547 2.87912 64.4383 2.87377C 64.522 2.86924 64.6081 2.86068 64.6965 2.85058C 64.7125 2.59905 64.77 2.36882 64.8691 2.15949C 64.9682 1.95015 65.1017 1.76937 65.2685 1.61768C 65.4358 1.46607 65.6339 1.34828 65.8642 1.26441C 66.0938 1.18061 66.3472 1.13894 66.6237 1.13894C 66.9216 1.13894 67.1904 1.20434 67.4306 1.33524C 67.6134 1.43991 67.7647 1.58386 67.8852 1.76698C 68.005 1.95017 68.0649 2.15716 68.0649 2.38729C 68.0649 2.62813 67.9843 2.853 67.8223 3.06234C 67.6549 3.28238 67.4556 3.42508 67.223 3.49049C 66.9904 3.5559 66.7388 3.5886 66.467 3.5886C 66.3472 3.5886 66.2071 3.58332 66.0481 3.57254C 65.8885 3.56245 65.7437 3.55709 65.6132 3.55709C 65.5764 3.55709 65.5426 3.5586 65.5111 3.56086C 65.4802 3.56312 65.4512 3.56766 65.4251 3.57218L 65.4251 3.61145C 65.4251 3.92071 65.5284 4.15504 65.7348 4.31442C 65.9408 4.4738 66.1983 4.55405 66.5062 4.55405C 66.6629 4.55405 66.8076 4.54104 66.9411 4.51481C 67.0741 4.48866 67.1992 4.45182 67.3167 4.4048C 67.4348 4.35785 67.5482 4.30252 67.6579 4.24005C 67.7677 4.17705 67.8769 4.10924 67.9866 4.03547L 67.9866 4.78162ZM 66.718 1.82166C 66.556 1.82166 66.4006 1.84312 66.2516 1.88472C 66.1027 1.92632 65.9698 1.98942 65.8523 2.07329C 65.7348 2.15717 65.6381 2.26295 65.5621 2.39083C 65.4868 2.51932 65.4411 2.67274 65.4251 2.85058L 65.8481 2.83453C 65.9371 2.84523 66.0452 2.85179 66.1733 2.85413C 66.3015 2.85714 66.4255 2.85863 66.5454 2.85863C 66.6498 2.85863 66.7542 2.85183 66.8587 2.83895C 66.9631 2.82591 67.0556 2.7997 67.1369 2.76044C 67.2177 2.72118 67.2829 2.66767 67.3328 2.59932C 67.382 2.5315 67.4069 2.44523 67.4069 2.34056C 67.4069 2.1521 67.3363 2.01825 67.1957 1.93973C 67.0544 1.86121 66.8954 1.82166 66.718 1.82166ZM 72.1775 1.26441L 72.1775 5.18245L 71.488 5.18245L 71.488 1.96328C 71.4097 1.96328 71.3171 1.96553 71.2104 1.97096C 71.1029 1.97623 70.9944 1.98819 70.8852 2.00665C 70.7755 2.02451 70.671 2.0525 70.5719 2.08875C 70.4722 2.1256 70.3915 2.17258 70.3286 2.23022C 70.099 2.45509 69.9838 2.83747 69.9838 3.37634C 69.9838 3.79501 69.9411 4.12747 69.8551 4.37366C 69.7684 4.61985 69.6576 4.8096 69.5222 4.94283C 69.3864 5.07666 69.2344 5.16408 69.0677 5.20568C 68.9004 5.24796 68.736 5.26874 68.574 5.26874L 68.574 4.56219C 68.6577 4.56219 68.7414 4.55543 68.8251 4.54255C 68.9081 4.52951 68.9841 4.48491 69.0517 4.4088C 69.1199 4.33322 69.1745 4.2155 69.2167 4.05552C 69.2582 3.89614 69.2789 3.66955 69.2789 3.37634C 69.2789 2.63348 69.467 2.08097 69.842 1.72002C 69.9512 1.6201 70.0782 1.54036 70.2242 1.4803C 70.3707 1.42024 70.5197 1.37442 70.6734 1.34292C 70.8276 1.31142 70.9736 1.29065 71.1148 1.27995C 71.256 1.26978 71.3759 1.26441 71.475 1.26441L 72.1775 1.26441ZM 74.9818 5.27642C 74.6946 5.27642 74.424 5.22174 74.1712 5.11172C 73.9179 5.0017 73.6959 4.85242 73.5049 4.66388C 73.3145 4.47602 73.1643 4.25587 73.0545 4.00433C 72.9448 3.75332 72.8902 3.48637 72.8902 3.20386C 72.8902 2.916 72.9448 2.6466 73.0545 2.39507C 73.1643 2.14406 73.3145 1.92401 73.5049 1.73547C 73.6959 1.54693 73.9179 1.39765 74.1712 1.28823C 74.424 1.17821 74.6946 1.12289 74.9818 1.12289C 75.2636 1.12289 75.5312 1.17821 75.7846 1.28823C 76.0379 1.39765 76.2587 1.54693 76.4468 1.73547C 76.6348 1.92401 76.7832 2.14406 76.893 2.39507C 77.0028 2.6466 77.0579 2.916 77.0579 3.20386C 77.0579 3.48637 77.0028 3.75332 76.893 4.00433C 76.7832 4.25587 76.6348 4.47602 76.4468 4.66388C 76.2587 4.85242 76.0379 5.0017 75.7846 5.11172C 75.5312 5.22174 75.2636 5.27642 74.9818 5.27642ZM 74.9818 1.86094C 74.7937 1.86094 74.6162 1.89666 74.4489 1.96742C 74.2822 2.03757 74.1368 2.13333 74.0145 2.25345C 73.8918 2.37417 73.7938 2.51575 73.7203 2.67747C 73.6473 2.83986 73.6111 3.01532 73.6111 3.20386C 73.6111 3.3924 73.6473 3.56782 73.7203 3.72961C 73.7938 3.89193 73.8918 4.03463 74.0145 4.15777C 74.1368 4.2809 74.2822 4.3778 74.4489 4.44803C 74.6162 4.51879 74.7937 4.55446 74.9818 4.55446C 75.1699 4.55446 75.3461 4.51879 75.5104 4.44803C 75.6748 4.3778 75.8184 4.2809 75.9412 4.15777C 76.064 4.03463 76.1608 3.89193 76.2314 3.72961C 76.302 3.56782 76.337 3.3924 76.337 3.20386C 76.337 3.01532 76.302 2.83986 76.2314 2.67747C 76.1608 2.51575 76.064 2.37417 75.9412 2.25345C 75.8184 2.13333 75.6748 2.03757 75.5104 1.96742C 75.3461 1.89666 75.1699 1.86094 74.9818 1.86094ZM 74.9818 5.27642C 74.6946 5.27642 74.424 5.22174 74.1712 5.11172C 73.9179 5.0017 73.6959 4.85242 73.5049 4.66388C 73.3145 4.47602 73.1643 4.25587 73.0545 4.00433C 72.9448 3.75332 72.8902 3.48637 72.8902 3.20386C 72.8902 2.916 72.9448 2.6466 73.0545 2.39507C 73.1643 2.14406 73.3145 1.92401 73.5049 1.73547C 73.6959 1.54693 73.9179 1.39765 74.1712 1.28823C 74.424 1.17821 74.6946 1.12289 74.9818 1.12289C 75.2636 1.12289 75.5312 1.17821 75.7846 1.28823C 76.0379 1.39765 76.2587 1.54693 76.4468 1.73547C 76.6348 1.92401 76.7832 2.14406 76.893 2.39507C 77.0028 2.6466 77.0579 2.916 77.0579 3.20386C 77.0579 3.48637 77.0028 3.75332 76.893 4.00433C 76.7832 4.25587 76.6348 4.47602 76.4468 4.66388C 76.2587 4.85242 76.0379 5.0017 75.7846 5.11172C 75.5312 5.22174 75.2636 5.27642 74.9818 5.27642ZM 74.9818 1.86094C 74.7937 1.86094 74.6162 1.89666 74.4489 1.96742C 74.2822 2.03757 74.1368 2.13333 74.0145 2.25345C 73.8918 2.37417 73.7938 2.51575 73.7203 2.67747C 73.6473 2.83986 73.6111 3.01532 73.6111 3.20386C 73.6111 3.3924 73.6473 3.56782 73.7203 3.72961C 73.7938 3.89193 73.8918 4.03463 74.0145 4.15777C 74.1368 4.2809 74.2822 4.3778 74.4489 4.44803C 74.6162 4.51879 74.7937 4.55446 74.9818 4.55446C 75.1699 4.55446 75.3461 4.51879 75.5104 4.44803C 75.6748 4.3778 75.8184 4.2809 75.9412 4.15777C 76.064 4.03463 76.1608 3.89193 76.2314 3.72961C 76.302 3.56782 76.337 3.3924 76.337 3.20386C 76.337 3.01532 76.302 2.83986 76.2314 2.67747C 76.1608 2.51575 76.064 2.37417 75.9412 2.25345C 75.8184 2.13333 75.6748 2.03757 75.5104 1.96742C 75.3461 1.89666 75.1699 1.86094 74.9818 1.86094ZM 79.5957 3.03074C 79.6325 3.04144 79.6889 3.05992 79.7642 3.08607C 79.8402 3.1123 79.9221 3.15687 80.011 3.21927C 80.1001 3.28234 80.1903 3.3632 80.2816 3.46313C 80.373 3.56244 80.4561 3.69034 80.5321 3.84731C 80.608 4.00435 80.6703 4.1929 80.7202 4.41294C 80.77 4.63298 80.7973 4.89167 80.8027 5.19023L 80.0817 5.19023C 80.0817 4.83937 80.0401 4.55804 79.9565 4.34629C 79.8728 4.13394 79.7566 3.97165 79.6076 3.85922C 79.4587 3.74687 79.2824 3.6725 79.0789 3.63565C 78.8754 3.59872 78.6505 3.58092 78.4054 3.58092L 78.4054 5.18245L 77.6845 5.18245L 77.6845 1.25673L 78.4054 1.25673L 78.4054 2.83453C 78.4784 2.83453 78.5502 2.83226 78.6208 2.82676C 78.6914 2.82149 78.7632 2.82451 78.8362 2.83453L 80.0502 1.25673L 80.951 1.25673L 79.5957 3.03074Z"/>
<path id="path54_fill" fill-rule="evenodd" d="M 5.78884 5.27642C 5.50164 5.27642 5.23106 5.22174 4.9783 5.11172C 4.72493 5.0017 4.50299 4.85242 4.31195 4.66388C 4.12151 4.47602 3.97137 4.25587 3.8616 4.00433C 3.75184 3.75332 3.69726 3.48637 3.69726 3.20386C 3.69726 2.916 3.75184 2.6466 3.8616 2.39507C 3.97137 2.14406 4.12151 1.92401 4.31195 1.73547C 4.50299 1.54693 4.72493 1.39765 4.9783 1.28823C 5.23106 1.17821 5.50164 1.12289 5.78884 1.12289C 6.0707 1.12289 6.33828 1.17821 6.59165 1.28823C 6.84501 1.39765 7.06575 1.54693 7.25386 1.73547C 7.44196 1.92401 7.59029 2.14406 7.70006 2.39507C 7.80982 2.6466 7.86501 2.916 7.86501 3.20386C 7.86501 3.48637 7.80982 3.75332 7.70006 4.00433C 7.59029 4.25587 7.44196 4.47602 7.25386 4.66388C 7.06575 4.85242 6.84501 5.0017 6.59165 5.11172C 6.33828 5.22174 6.0707 5.27642 5.78884 5.27642ZM 5.25602 1.96742C 5.4233 1.89666 5.60073 1.86094 5.78884 1.86094C 5.97695 1.86094 6.15318 1.89666 6.31752 1.96742C 6.48187 2.03757 6.62547 2.13333 6.74832 2.25345C 6.87109 2.37417 6.96786 2.51575 7.03846 2.67747C 7.10905 2.83986 7.14409 3.01532 7.14409 3.20386C 7.14409 3.3924 7.10905 3.56782 7.03846 3.72961C 6.96786 3.89193 6.87109 4.03463 6.74832 4.15777C 6.62547 4.2809 6.48187 4.3778 6.31752 4.44803C 6.15318 4.51879 5.97695 4.55446 5.78884 4.55446C 5.60073 4.55446 5.4233 4.51879 5.25602 4.44803C 5.08927 4.3778 4.94386 4.2809 4.82161 4.15777C 4.69884 4.03463 4.60087 3.89193 4.52735 3.72961C 4.45434 3.56782 4.41819 3.3924 4.41819 3.20386C 4.41819 3.01532 4.45434 2.83986 4.52735 2.67747C 4.60087 2.51575 4.69884 2.37417 4.82161 2.25345C 4.94386 2.13333 5.08927 2.03757 5.25602 1.96742Z"/>
<path id="path55_fill" fill-rule="evenodd" d="M 57.2783 5.27642C 56.9911 5.27642 56.7205 5.22174 56.4677 5.11172C 56.2144 5.0017 55.9924 4.85242 55.8014 4.66388C 55.6109 4.47602 55.4608 4.25587 55.351 4.00433C 55.2413 3.75332 55.1867 3.48637 55.1867 3.20386C 55.1867 2.916 55.2413 2.6466 55.351 2.39507C 55.4608 2.14406 55.6109 1.92401 55.8014 1.73547C 55.9924 1.54693 56.2144 1.39765 56.4677 1.28823C 56.7205 1.17821 56.9911 1.12289 57.2783 1.12289C 57.5601 1.12289 57.8277 1.17821 58.0811 1.28823C 58.3344 1.39765 58.5552 1.54693 58.7433 1.73547C 58.9314 1.92401 59.0797 2.14406 59.1895 2.39507C 59.2993 2.6466 59.3544 2.916 59.3544 3.20386C 59.3544 3.48637 59.2993 3.75332 59.1895 4.00433C 59.0797 4.25587 58.9314 4.47602 58.7433 4.66388C 58.5552 4.85242 58.3344 5.0017 58.0811 5.11172C 57.8277 5.22174 57.5601 5.27642 57.2783 5.27642ZM 56.7454 1.96742C 56.9127 1.89666 57.0902 1.86094 57.2783 1.86094C 57.4664 1.86094 57.6426 1.89666 57.807 1.96742C 57.9713 2.03757 58.1149 2.13333 58.2378 2.25345C 58.3605 2.37417 58.4573 2.51575 58.5279 2.67747C 58.5985 2.83986 58.6335 3.01532 58.6335 3.20386C 58.6335 3.3924 58.5985 3.56782 58.5279 3.72961C 58.4573 3.89193 58.3605 4.03463 58.2378 4.15777C 58.1149 4.2809 57.9713 4.3778 57.807 4.44803C 57.6426 4.51879 57.4664 4.55446 57.2783 4.55446C 57.0902 4.55446 56.9127 4.51879 56.7454 4.44803C 56.5787 4.3778 56.4333 4.2809 56.311 4.15777C 56.1883 4.03463 56.0904 3.89193 56.0168 3.72961C 55.9438 3.56782 55.9076 3.3924 55.9076 3.20386C 55.9076 3.01532 55.9438 2.83986 56.0168 2.67747C 56.0904 2.51575 56.1883 2.37417 56.311 2.25345C 56.4333 2.13333 56.5787 2.03757 56.7454 1.96742Z"/>
<path id="path56_fill" fill-rule="evenodd" d="M 74.9818 5.27642C 74.6946 5.27642 74.424 5.22174 74.1712 5.11172C 73.9179 5.0017 73.6959 4.85242 73.5049 4.66388C 73.3145 4.47602 73.1643 4.25587 73.0545 4.00433C 72.9448 3.75332 72.8902 3.48637 72.8902 3.20386C 72.8902 2.916 72.9448 2.6466 73.0545 2.39507C 73.1643 2.14406 73.3145 1.92401 73.5049 1.73547C 73.6959 1.54693 73.9179 1.39765 74.1712 1.28823C 74.424 1.17821 74.6946 1.12289 74.9818 1.12289C 75.2636 1.12289 75.5312 1.17821 75.7846 1.28823C 76.0379 1.39765 76.2587 1.54693 76.4468 1.73547C 76.6348 1.92401 76.7832 2.14406 76.893 2.39507C 77.0028 2.6466 77.0579 2.916 77.0579 3.20386C 77.0579 3.48637 77.0028 3.75332 76.893 4.00433C 76.7832 4.25587 76.6348 4.47602 76.4468 4.66388C 76.2587 4.85242 76.0379 5.0017 75.7846 5.11172C 75.5312 5.22174 75.2636 5.27642 74.9818 5.27642ZM 74.4489 1.96742C 74.6162 1.89666 74.7937 1.86094 74.9818 1.86094C 75.1699 1.86094 75.3461 1.89666 75.5104 1.96742C 75.6748 2.03757 75.8184 2.13333 75.9412 2.25345C 76.064 2.37417 76.1608 2.51575 76.2314 2.67747C 76.302 2.83986 76.337 3.01532 76.337 3.20386C 76.337 3.3924 76.302 3.56782 76.2314 3.72961C 76.1608 3.89193 76.064 4.03463 75.9412 4.15777C 75.8184 4.2809 75.6748 4.3778 75.5104 4.44803C 75.3461 4.51879 75.1699 4.55446 74.9818 4.55446C 74.7937 4.55446 74.6162 4.51879 74.4489 4.44803C 74.2822 4.3778 74.1368 4.2809 74.0145 4.15777C 73.8918 4.03463 73.7938 3.89193 73.7203 3.72961C 73.6473 3.56782 73.6111 3.3924 73.6111 3.20386C 73.6111 3.01532 73.6473 2.83986 73.7203 2.67747C 73.7938 2.51575 73.8918 2.37417 74.0145 2.25345C 74.1368 2.13333 74.2822 2.03757 74.4489 1.96742Z"/>
</defs>
</svg>
