<svg width="32" height="32" viewBox="0 0 32 32" version="1.1" xmlns="http://www.w3.org/2000/svg" xmlns:xlink="http://www.w3.org/1999/xlink">
<title>resume (1)</title>
<desc>Created using Figma</desc>
<g id="Canvas" transform="translate(-11221 -517)">
<g id="resume (1)">
<g id="Vector">
<use xlink:href="#path0_fill" transform="translate(11222.1 526.989)" fill="#FFFFFF"/>
</g>
<g id="Vector">
<use xlink:href="#path1_fill" transform="translate(11222.3 526.042)" fill="#EDEDED"/>
</g>
<g id="Vector">
<use xlink:href="#path2_fill" transform="translate(11221 525.548)" fill="#A1B1B7"/>
</g>
<g id="Vector">
<use xlink:href="#path3_fill" transform="translate(11235.5 525.548)" fill="#8FA3AD"/>
</g>
<g id="Vector">
<use xlink:href="#path4_fill" transform="translate(11226 518.184)" fill="#FCD735"/>
</g>
<g id="Vector">
<use xlink:href="#path5_fill" transform="translate(11226.3 517.494)" fill="#FABF2D"/>
</g>
<g id="Vector">
<use xlink:href="#path6_fill" transform="translate(11225.1 517)" fill="#FE6F00"/>
</g>
<g id="Vector">
<use xlink:href="#path7_fill" transform="translate(11239.6 517)" fill="#E55100"/>
</g>
<g id="Vector">
<use xlink:href="#path8_fill" transform="translate(11227.9 524.145)" fill="#FE5722"/>
</g>
<g id="Vector">
<use xlink:href="#path9_fill" transform="translate(11231.9 526.989)" fill="#FFFFFF"/>
</g>
<g id="Vector">
<use xlink:href="#path10_fill" transform="translate(11232 526.042)" fill="#EDEDED"/>
</g>
<g id="Vector">
<use xlink:href="#path11_fill" transform="translate(11230.7 525.548)" fill="#A1B1B7"/>
</g>
<g id="Vector">
<use xlink:href="#path12_fill" transform="translate(11245.2 525.548)" fill="#8FA3AD"/>
</g>
<g id="Vector">
<use xlink:href="#path13_fill" transform="translate(11233.5 536.86)" fill="#37474F"/>
</g>
<g id="Group">
<g id="Vector">
<use xlink:href="#path14_fill" transform="translate(11239.5 537.099)" fill="#788F9B"/>
</g>
<g id="Vector">
<use xlink:href="#path15_fill" transform="translate(11239.5 539.745)" fill="#788F9B"/>
</g>
<g id="Vector">
<use xlink:href="#path16_fill" transform="translate(11239.5 542.391)" fill="#788F9B"/>
</g>
</g>
</g>
</g>
<defs>
<path id="path0_fill" d="M 15.573 21.2109L 0.0876875 21.2109C 0.03925 21.2109 4.29153e-08 21.1708 4.29153e-08 21.1213L 4.29153e-08 0.0896334C 4.29153e-08 0.0401209 0.03925 -1.48176e-07 0.0876875 -1.48176e-07L 15.573 -1.48176e-07C 15.6214 -1.48176e-07 15.6607 0.0401209 15.6607 0.0896334L 15.6607 21.1213C 15.6607 21.1708 15.6214 21.2109 15.573 21.2109Z"/>
<path id="path1_fill" d="M 3.47537 0.274906C 1.556 0.274906 -3.71933e-08 0.949426 -3.71933e-08 2.91133L 0.000249945 21.895L 2.10687 21.895L 2.10675 5.28908C 2.10675 3.58017 3.46206 2.19471 5.13388 2.19471L 6.35356 2.19471L 6.3535 -9.35846e-08L 3.47537 0.274906Z"/>
<path id="path2_fill" d="M 0.00025 22.7193C 0.00025 23.124 0.32125 23.4522 0.717188 23.4522L 17.0475 23.4522C 17.2376 23.4522 17.42 23.3749 17.5544 23.2376C 17.6888 23.1002 17.7644 22.9137 17.7644 22.7194L 17.7642 6.71804L 21.5439 6.71804C 21.9399 6.71804 22.2609 6.39011 22.2609 5.98519L 22.2609 4.28561C 22.2609 1.92243 20.3803 -2.01174e-07 18.0686 -2.01174e-07L 4.19225 -2.01174e-07C 1.88056 -6.40882e-05 0 1.9223 0 4.28554L 0.00025 22.7193ZM 4.19238 1.46563C 5.71344 1.46563 6.95081 2.73066 6.95081 4.28548L 6.95081 5.98507C 6.95081 6.38992 7.27181 6.71798 7.66775 6.71798L 16.3304 6.71792L 16.3306 21.9864L 1.43412 21.9864L 1.43387 4.28548C 1.43394 2.73066 2.67125 1.46563 4.19238 1.46563Z"/>
<path id="path3_fill" d="M 4.19238 4.28561L 4.19238 5.98519C 4.19238 6.39005 3.87137 6.71804 3.47537 6.71804L 7.06013 6.71804C 7.45606 6.71804 7.77712 6.39011 7.77712 5.98519L 7.77712 4.28561C 7.77712 1.92243 5.8965 3.19747e-07 3.58481 3.19747e-07L 2.74658e-07 3.19747e-07C 2.31175 3.19747e-07 4.19238 1.92236 4.19238 4.28561Z"/>
<path id="path4_fill" d="M 15.573 21.2109L 0.0876873 21.2109C 0.0392498 21.2109 -2.17438e-07 21.1708 -2.17438e-07 21.1213L -2.17438e-07 0.0896336C -2.17438e-07 0.0401211 0.0392498 -6.044e-08 0.0876873 -6.044e-08L 15.573 -6.044e-08C 15.6214 -6.044e-08 15.6607 0.0401211 15.6607 0.0896336L 15.6607 21.1213C 15.6607 21.1708 15.6214 21.2109 15.573 21.2109Z"/>
<path id="path5_fill" d="M 3.47537 0.274906C 1.556 0.274906 -2.28882e-07 0.949426 -2.28882e-07 2.91133L 0.000250111 21.895L 2.10688 21.895L 2.10675 5.28908C 2.10675 3.58017 3.46206 2.19471 5.13387 2.19471L 6.35356 2.19471L 6.3535 1.41352e-08L 3.47537 0.274906Z"/>
<path id="path6_fill" d="M 0.000249825 22.7194C 0.000249825 23.1241 0.32125 23.4523 0.717187 23.4523L 17.0475 23.4523C 17.2376 23.4523 17.42 23.375 17.5544 23.2376C 17.6888 23.1002 17.7644 22.9137 17.7644 22.7194L 17.7642 6.71811L 21.5439 6.71811C 21.9399 6.71811 22.2609 6.39017 22.2609 5.98526L 22.2609 4.28561C 22.261 1.92243 20.3804 5.60533e-09 18.0687 5.60533e-09L 4.19231 5.60533e-09C 1.88056 5.60533e-09 -3.8147e-08 1.92236 -3.8147e-08 4.28561L 0.000249825 22.7194ZM 4.19238 1.46582C 5.71344 1.46582 6.95081 2.73085 6.95081 4.28567L 6.95081 5.98526C 6.95081 6.39011 7.27181 6.71817 7.66775 6.71817L 16.3304 6.71811L 16.3306 21.9866L 1.43412 21.9866L 1.43394 4.28554C 1.43394 2.73072 2.67125 1.46582 4.19238 1.46582Z"/>
<path id="path7_fill" d="M 4.19237 4.28561L 4.19237 5.98519C 4.19237 6.39005 3.87138 6.71804 3.47538 6.71804L 7.06012 6.71804C 7.45606 6.71804 7.77713 6.39011 7.77713 5.98519L 7.77713 4.28561C 7.77713 1.92243 5.8965 5.60533e-09 3.58481 5.60533e-09L -7.17163e-07 5.60533e-09C 2.31175 6.38927e-05 4.19237 1.92243 4.19237 4.28561Z"/>
<path id="path8_fill" d="M 4.00437 2.72955e-08L 0.734125 2.72955e-08C 0.328625 2.72955e-08 1.297e-07 0.336109 1.297e-07 0.750417L 1.297e-07 3.73535C 1.297e-07 4.14959 0.328562 4.48576 0.734125 4.48576L 4.00437 4.48576C 4.40987 4.48576 4.7385 4.14965 4.7385 3.73535L 4.7385 0.750417C 4.73844 0.336109 4.40987 2.72955e-08 4.00437 2.72955e-08Z"/>
<path id="path9_fill" d="M 15.6606 0L 0 0L 0 21.2109L 15.6606 21.2109L 15.6606 0Z"/>
<path id="path10_fill" d="M 3.47537 0.274906C 1.556 0.274906 -3.12805e-07 0.949426 -3.12805e-07 2.91133L 0.00024955 21.895L 2.10688 21.895L 2.10675 5.28908C 2.10675 3.58017 3.46206 2.19471 5.13388 2.19471L 6.35356 2.19471L 6.3535 -9.35846e-08L 3.47537 0.274906Z"/>
<path id="path11_fill" d="M 0.000312683 22.7193C 0.000312683 23.124 0.321312 23.4522 0.71725 23.4522L 17.0476 23.4522C 17.2377 23.4522 17.4201 23.3749 17.5544 23.2376C 17.6889 23.1002 17.7644 22.9137 17.7644 22.7194L 17.7642 6.71804L 21.544 6.71804C 21.9399 6.71804 22.261 6.39011 22.261 5.98519L 22.261 4.28561C 22.261 1.92243 20.3804 -2.02767e-07 18.0687 -2.02767e-07L 4.19231 -2.02767e-07C 1.88056 -2.02767e-07 -1.2207e-07 1.92236 -1.2207e-07 4.28561L 0.000312683 22.7193ZM 4.19244 1.46563C 5.7135 1.46563 6.95087 2.73066 6.95087 4.28548L 6.95087 5.98507C 6.95087 6.38992 7.27187 6.71798 7.66781 6.71798L 16.3305 6.71792L 16.3307 21.9864L 1.43419 21.9864L 1.43394 4.28548C 1.434 2.73066 2.67131 1.46563 4.19244 1.46563Z"/>
<path id="path12_fill" d="M 4.19238 4.28561L 4.19238 5.98519C 4.19238 6.39005 3.87137 6.71804 3.47537 6.71804L 7.06013 6.71804C 7.45606 6.71804 7.77712 6.39011 7.77712 5.98519L 7.77712 4.28561C 7.77712 1.92243 5.8965 3.19747e-07 3.58481 3.19747e-07L 5.95093e-07 3.19747e-07C 2.31175 3.19747e-07 4.19238 1.92236 4.19238 4.28561Z"/>
<path id="path13_fill" d="M 4.00438 -3.27546e-07L 0.734125 -3.27546e-07C 0.328625 -3.27546e-07 -1.98364e-07 0.33611 -1.98364e-07 0.750417L -1.98364e-07 3.73535C -1.98364e-07 4.14959 0.328562 4.48577 0.734125 4.48577L 4.00438 4.48577C 4.40988 4.48577 4.7385 4.14966 4.7385 3.73535L 4.7385 0.750417C 4.73844 0.336046 4.40988 -3.27546e-07 4.00438 -3.27546e-07Z"/>
<path id="path14_fill" d="M 5.13869 1.50083L 0.734126 1.50083C 0.328626 1.50083 5.34058e-07 1.16485 5.34058e-07 0.750417C 5.34058e-07 0.336046 0.328563 -4.67923e-08 0.734126 -4.67923e-08L 5.13869 -4.67923e-08C 5.54419 -4.67923e-08 5.87281 0.335982 5.87281 0.750417C 5.87281 1.16479 5.54425 1.50083 5.13869 1.50083Z"/>
<path id="path15_fill" d="M 5.13869 1.50084L 0.734126 1.50084C 0.328626 1.50084 5.34058e-07 1.16485 5.34058e-07 0.750418C 5.34058e-07 0.335983 0.328563 6.39494e-07 0.734126 6.39494e-07L 5.13869 6.39494e-07C 5.54419 6.39494e-07 5.87281 0.335983 5.87281 0.750418C 5.87281 1.16485 5.54425 1.50084 5.13869 1.50084Z"/>
<path id="path16_fill" d="M 5.13869 1.50083L 0.734126 1.50083C 0.328626 1.50083 5.34058e-07 1.16485 5.34058e-07 0.750417C 5.34058e-07 0.335982 0.328563 -1.71572e-07 0.734126 -1.71572e-07L 5.13869 -1.71572e-07C 5.54419 -1.71572e-07 5.87281 0.335982 5.87281 0.750417C 5.87281 1.16479 5.54425 1.50083 5.13869 1.50083Z"/>
</defs>
</svg>
