<svg width="24" height="32" viewBox="0 0 24 32" version="1.1" xmlns="http://www.w3.org/2000/svg" xmlns:xlink="http://www.w3.org/1999/xlink">
<title>calculator</title>
<desc>Created using Figma</desc>
<g id="Canvas" transform="translate(-6305 -208)">
<g id="calculator">
<g id="Vector">
<use xlink:href="#path0_fill" transform="translate(6305 208)" fill="#3F51B4"/>
</g>
<g id="Vector">
<use xlink:href="#path1_fill" transform="translate(6325.61 208)" fill="#303F9E"/>
</g>
<g id="Vector">
<use xlink:href="#path2_fill" transform="translate(6307.03 209.875)" fill="#76FE03"/>
</g>
<g id="Vector">
<use xlink:href="#path3_fill" transform="translate(6324.59 209.875)" fill="#64DC17"/>
</g>
<g id="Group">
<g id="Vector">
<use xlink:href="#path4_fill" transform="translate(6307.03 218.674)" fill="#7985CA"/>
</g>
<g id="Vector">
<use xlink:href="#path4_fill" transform="translate(6317.84 218.674)" fill="#7985CA"/>
</g>
<g id="Vector">
<use xlink:href="#path5_fill" transform="translate(6307.03 229.167)" fill="#7985CA"/>
</g>
<g id="Vector">
<use xlink:href="#path5_fill" transform="translate(6317.84 229.167)" fill="#7985CA"/>
</g>
</g>
<g id="Group">
<g id="Vector">
<use xlink:href="#path6_fill" transform="translate(6323.08 210.689)" fill="#388D3C"/>
</g>
<g id="Vector">
<use xlink:href="#path7_fill" transform="translate(6319.93 214.291)" fill="#388D3C"/>
</g>
</g>
<g id="Group">
<g id="Vector">
<use xlink:href="#path8_fill" transform="translate(6319.12 222.195)" fill="#FFFFFF"/>
</g>
<g id="Vector">
<use xlink:href="#path9_fill" transform="translate(6319.12 234.129)" fill="#FFFFFF"/>
</g>
<g id="Vector">
<use xlink:href="#path10_fill" transform="translate(6319.12 231.246)" fill="#FFFFFF"/>
</g>
<g id="Vector">
<use xlink:href="#path11_fill" transform="translate(6308.31 219.945)" fill="#FFFFFF"/>
</g>
<g id="Vector">
<use xlink:href="#path12_fill" transform="translate(6308.56 230.687)" fill="#FFFFFF"/>
</g>
</g>
</g>
</g>
<defs>
<path id="path0_fill" d="M 22.9902 0L 1.0098 0C 0.452138 0 -6.54854e-08 0.44775 -6.54854e-08 1L -6.54854e-08 31C -6.54854e-08 31.5522 0.452138 32 1.0098 32L 22.9902 32C 23.5479 32 24 31.5522 24 31L 24 1C 24 0.44775 23.5479 0 22.9902 0Z"/>
<path id="path1_fill" d="M 2.37732 0L -8.16642e-07 0C 0.557662 0 1.0098 0.44775 1.0098 1L 1.0098 31C 1.0098 31.5522 0.557662 32 -8.16642e-07 32L 2.37732 32C 2.93499 32 3.38712 31.5522 3.38712 31L 3.38712 1C 3.38712 0.44775 2.93499 0 2.37732 0Z"/>
<path id="path2_fill" d="M 19.9434 0L 0 0L 0 7.20819L 19.9434 7.20819L 19.9434 0Z"/>
<path id="path3_fill" d="M 2.37732 0L 0 0L 0 7.20819L 2.37732 7.20819L 2.37732 0Z"/>
<path id="path4_fill" d="M 9.13049 0L 0 0L 0 9.04187L 9.13049 9.04187L 9.13049 0Z"/>
<path id="path5_fill" d="M 9.13049 0L 0 0L 0 9.04187L 9.13049 9.04187L 9.13049 0Z"/>
<path id="path6_fill" d="M 1.0098 5.61006C 0.452139 5.61006 6.00925e-07 5.16237 6.00925e-07 4.61006L 6.00925e-07 1C 6.00925e-07 0.447688 0.452139 6.10352e-08 1.0098 6.10352e-08C 1.56746 6.10352e-08 2.0196 0.447688 2.0196 1L 2.0196 4.61006C 2.0196 5.16237 1.56746 5.61006 1.0098 5.61006Z"/>
<path id="path7_fill" d="M 1.0098 2.00831C 0.452137 2.00831 -8.62867e-07 1.56063 -8.62867e-07 1.00831C -8.62867e-07 0.456 0.452137 -4.19617e-08 1.0098 -4.19617e-08C 1.56746 -4.19617e-08 2.0196 0.439375 2.0196 0.99175L 2.0196 1.00838C 2.0196 1.56063 1.56746 2.00831 1.0098 2.00831Z"/>
<path id="path8_fill" d="M 5.5539 2L 1.0098 2C 0.452138 2 -4.6225e-08 1.55231 -4.6225e-08 1C -4.6225e-08 0.447688 0.452138 4.11987e-07 1.0098 4.11987e-07L 5.5539 4.11987e-07C 6.11157 4.11987e-07 6.56371 0.447688 6.56371 1C 6.56364 1.55231 6.11157 2 5.5539 2Z"/>
<path id="path9_fill" d="M 5.5539 2L 1.0098 2C 0.452138 2 -4.6225e-08 1.55231 -4.6225e-08 1C -4.6225e-08 0.447688 0.452138 9.00269e-07 1.0098 9.00269e-07L 5.5539 9.00269e-07C 6.11157 9.00269e-07 6.56371 0.447688 6.56371 1C 6.56364 1.55231 6.11157 2 5.5539 2Z"/>
<path id="path10_fill" d="M 5.5539 2L 1.0098 2C 0.452138 2 -4.6225e-08 1.55231 -4.6225e-08 0.999999C -4.6225e-08 0.447687 0.452138 -9.00269e-07 1.0098 -9.00269e-07L 5.5539 -9.00269e-07C 6.11157 -9.00269e-07 6.56371 0.447687 6.56371 0.999999C 6.56364 1.55225 6.11157 2 5.5539 2Z"/>
<path id="path11_fill" d="M 5.55296 2.25L 4.29121 2.25L 4.29121 1C 4.29121 0.44775 3.83907 4.11987e-07 3.28141 4.11987e-07C 2.72375 4.11987e-07 2.27161 0.44775 2.27161 1L 2.27161 2.25L 1.0098 2.25C 0.452139 2.25 -1.96456e-07 2.69775 -1.96456e-07 3.25C -1.96456e-07 3.80225 0.452139 4.25 1.0098 4.25L 2.27155 4.25L 2.27155 5.5C 2.27155 6.05225 2.72368 6.5 3.28135 6.5C 3.83901 6.5 4.29115 6.05225 4.29115 5.5L 4.29115 4.25L 5.55289 4.25C 6.11056 4.25 6.5627 3.80225 6.5627 3.25C 6.5627 2.69775 6.11062 2.25 5.55296 2.25Z"/>
<path id="path12_fill" d="M 4.45796 3.00137L 5.76293 1.70962C 6.15739 1.319 6.15739 0.685937 5.76319 0.295312C 5.36898 -0.0953127 4.72972 -0.0955625 4.33501 0.295062L 3.03003 1.58681L 1.72405 0.293125C 1.32984 -0.0975004 0.690577 -0.0977501 0.295871 0.292625C -0.098582 0.68325 -0.0985818 1.31631 0.295619 1.70694L 1.60167 3.00063L 0.296882 4.29213C -0.0975718 4.68275 -0.0975721 5.31581 0.296629 5.70644C 0.493856 5.902 0.752175 5.99963 1.01081 5.99963C 1.26919 5.99963 1.52758 5.90194 1.72474 5.70669L 3.02953 4.41519L 4.33476 5.70819C 4.53199 5.90375 4.79031 6.00137 5.04894 6.00137C 5.30732 6.00137 5.56571 5.90369 5.76287 5.70869C 6.15732 5.31806 6.15732 4.685 5.76312 4.29438L 4.45796 3.00137Z"/>
</defs>
</svg>
