<svg width="32" height="31" viewBox="0 0 32 31" version="1.1" xmlns="http://www.w3.org/2000/svg" xmlns:xlink="http://www.w3.org/1999/xlink">
<title>map (1)</title>
<desc>Created using Figma</desc>
<g id="Canvas" transform="translate(-7941 270)">
<g id="map (1)">
<g id="Vector">
<use xlink:href="#path0_fill" transform="translate(7941 -261.176)" fill="#FE9700"/>
</g>
<g id="Vector">
<use xlink:href="#path1_fill" transform="translate(7941 -261.136)" fill="#E22B27"/>
</g>
<g id="Vector">
<use xlink:href="#path2_fill" transform="translate(7951.93 -261.137)" fill="#FE5722"/>
</g>
<g id="Vector">
<use xlink:href="#path3_fill" transform="translate(7962.07 -261.176)" fill="#FE9700"/>
</g>
<g id="Vector">
<use xlink:href="#path4_fill" transform="translate(7962.07 -261.176)" fill="#F47C00"/>
</g>
<g id="Vector">
<use xlink:href="#path5_fill" transform="translate(7954.5 -270)" fill="#303F9E"/>
</g>
<g id="Vector">
<use xlink:href="#path6_fill" transform="translate(7960.83 -270)" fill="#283592"/>
</g>
<g id="Vector">
<use xlink:href="#path7_fill" transform="translate(7958.9 -265.465)" fill="#FFFFFF"/>
</g>
<g id="Vector">
<use xlink:href="#path8_fill" transform="translate(7958.9 -265.465)" fill="#CED7DB"/>
</g>
</g>
</g>
<defs>
<path id="path0_fill" d="M 31.5993 0.200539C 31.3471 0.0105667 31.0202 -0.0482971 30.7187 0.0405328L 21.0735 2.9657L 21.0735 2.964L 10.9267 0.0390882L 10.9267 0.0405951L 0.718749 2.9657C 0.292749 3.09109 0 3.48398 0 3.93008L 0 21.1712C 0 21.4877 0.148437 21.7856 0.400624 21.9756C 0.575686 22.1074 0.786373 22.1763 0.999998 22.1763C 1.09425 22.1763 1.189 22.1628 1.28125 22.1356L 10.9267 19.2105L 10.9267 19.2121L 21.0735 22.1373L 21.0735 22.1356L 31.2813 19.2105C 31.7073 19.0851 32 18.6922 32 18.2461L 32 1.00522C 31.9999 0.688413 31.8515 0.390512 31.5993 0.200539Z"/>
<path id="path1_fill" d="M 10.9267 -3.75765e-07L 0.718749 2.9251C 0.292749 3.0505 0 3.44338 0 3.88948L 0 21.1306C 0 21.4471 0.148437 21.745 0.400624 21.935C 0.575686 22.0668 0.786373 22.1357 0.999998 22.1357C 1.09425 22.1357 1.189 22.1222 1.28125 22.095L 10.9267 19.1699L 10.9267 -3.75765e-07Z"/>
<path id="path2_fill" d="M 10.1468 2.92492L 1.83105e-07 4.52451e-07L 1.83105e-07 19.1731L 10.1468 22.0983"/>
<path id="path3_fill" d="M 1.2207e-07 22.1356L 10.2077 19.2105C 10.6337 19.0851 10.9264 18.6922 10.9264 18.2461L 10.9264 1.00522C 10.9264 0.688413 10.778 0.390512 10.5258 0.20054C 10.2736 0.0105667 9.94667 -0.0482971 9.64517 0.0405328L 1.2207e-07 2.9657L 1.2207e-07 22.1356Z"/>
<path id="path4_fill" d="M 10.5259 0.20054C 10.2737 0.0105667 9.94673 -0.0482971 9.64523 0.0405328L 7.4953 0.692559C 7.52824 0.792948 7.55142 0.89673 7.55142 1.00522L 7.55142 18.2461C 7.55142 18.6923 7.25867 19.0852 6.83267 19.2105L -3.20434e-07 21.1685L -3.20434e-07 22.1357L 10.2078 19.2106C 10.6338 19.0852 10.9265 18.6923 10.9265 18.2462L 10.9265 1.00522C 10.9265 0.688413 10.778 0.390512 10.5259 0.20054Z"/>
<path id="path5_fill" d="M 7.50024 2.87575e-08C 3.36449 2.87575e-08 0 3.40833 0 7.59778C 0 13.7433 6.52267 20.2293 6.8003 20.5025C 6.99492 20.6937 7.2473 20.7891 7.49974 20.7891C 7.75461 20.7891 8.00974 20.6917 8.20455 20.4971C 8.48211 20.2198 15 13.6399 15 7.59778C 15 3.40833 11.6357 2.87575e-08 7.50024 2.87575e-08Z"/>
<path id="path6_fill" d="M 1.17019 2.87575e-08C 0.772373 2.87575e-08 0.384749 0.0407713 0.0034374 0.101331C 3.58549 0.672129 6.33668 3.81127 6.33668 7.59772C 6.33668 12.7859 1.53406 18.3667 3.6621e-07 20.0173C 0.259062 20.2926 0.430436 20.4632 0.470249 20.5024C 0.664873 20.6935 0.917248 20.789 1.16969 20.789C 1.42456 20.789 1.67968 20.6916 1.8745 20.497C 2.15212 20.2197 8.66992 13.6398 8.66992 7.59766C 8.66992 3.40833 5.30568 2.87575e-08 1.17019 2.87575e-08Z"/>
<path id="path7_fill" d="M 3.00006 6.08579C 4.65694 6.08579 6.00011 4.72344 6.00011 3.0429C 6.00011 1.36235 4.65694 0 3.00006 0C 1.34317 0 0 1.36235 0 3.0429C 0 4.72344 1.34317 6.08579 3.00006 6.08579Z"/>
<path id="path8_fill" d="M 1.58325 3.04271C 1.58325 1.64078 2.51956 0.463059 3.79162 0.11044C 3.53906 0.040457 3.27437 4.6012e-08 2.99999 4.6012e-08C 1.343 4.6012e-08 -7.78197e-07 1.36223 -7.78197e-07 3.04264C -7.78197e-07 4.72338 1.34306 6.0856 2.99999 6.0856C 3.27437 6.0856 3.53906 6.04514 3.79162 5.97491C 2.5195 5.62235 1.58325 4.44489 1.58325 3.04271Z"/>
</defs>
</svg>
