<svg width="20" height="24" viewBox="0 0 20 24" version="1.1" xmlns="http://www.w3.org/2000/svg" xmlns:xlink="http://www.w3.org/1999/xlink">
<title>email</title>
<desc>Created using Figma</desc>
<g id="Canvas" transform="translate(-6910 -73)">
<g id="email">
<g id="Group">
<g id="Group">
<g id="Group">
<g id="Vector">
<use xlink:href="#path0_fill" transform="translate(6910 83.6752)" fill="#F07C00"/>
</g>
<g id="Vector">
<use xlink:href="#path1_fill" transform="matrix(1 0 0 -1 6915.29 81.6252)" fill="#F07C00"/>
</g>
</g>
</g>
</g>
</g>
</g>
<defs>
<path id="path0_fill" d="M 18 -1.70085e-07L 2.00001 -1.70085e-07C 0.896999 -1.70085e-07 -6.15119e-08 0.919409 -6.15119e-08 2.04998L -6.15119e-08 11.2748C -6.15119e-08 12.4054 0.896999 13.3248 2.00001 13.3248L 18 13.3248C 19.103 13.3248 20 12.4054 20 11.2748L 20 2.04998C 20 0.919409 19.103 -1.70085e-07 18 -1.70085e-07ZM 16.113 2.04993L 10 5.96539L 3.88701 2.04998L 16.113 2.04998L 16.113 2.04993ZM 2.00001 11.2748L 2.00001 3.25839L 9.47001 8.04401C 9.63201 8.14755 9.81599 8.19982 10 8.19982C 10.1841 8.19982 10.368 8.14755 10.53 8.04401L 18 3.25733L 18.001 11.2747L 2.00001 11.2747L 2.00001 11.2748Z"/>
<path id="path1_fill" d="M 3.70701 3.92464L 3.70701 8.62522L 5.70698 8.62522L 5.70698 3.92464L 8.00001 6.27496L 9.41399 4.82459L 4.707 0L -2.74658e-07 4.82459L 1.41398 6.27496L 3.70701 3.92464Z"/>
</defs>
</svg>
