<svg width="31" height="32" viewBox="0 0 31 32" version="1.1" xmlns="http://www.w3.org/2000/svg" xmlns:xlink="http://www.w3.org/1999/xlink">
<title>email (1)</title>
<desc>Created using Figma</desc>
<g id="Canvas" transform="translate(2270 471)">
<g id="email (1)">
<g id="Vector">
<use xlink:href="#path0_fill" transform="translate(-2270 -464.335)" fill="#BCC426"/>
</g>
<g id="Vector">
<use xlink:href="#path1_fill" transform="translate(-2264.96 -470)" fill="#FFFFFF"/>
</g>
<g id="Vector">
<use xlink:href="#path2_fill" transform="translate(-2264.96 -470)" fill="#EDEDED"/>
</g>
<g id="Vector">
<use xlink:href="#path3_fill" transform="translate(-2265.96 -471)" fill="#A1B1B7"/>
</g>
<g id="Vector">
<use xlink:href="#path4_fill" transform="translate(-2248.21 -471)" fill="#8FA3AD"/>
</g>
<g id="Group">
<g id="Vector">
<use xlink:href="#path5_fill" transform="translate(-2260.01 -461.528)" fill="#4CAE50"/>
</g>
<g id="Vector">
<use xlink:href="#path6_fill" transform="translate(-2260.01 -458.127)" fill="#4CAE50"/>
</g>
<g id="Vector">
<use xlink:href="#path7_fill" transform="translate(-2260.01 -454.726)" fill="#4CAE50"/>
</g>
</g>
<g id="Vector">
<use xlink:href="#path8_fill" transform="translate(-2270 -456.04)" fill="#CCDB39"/>
</g>
<g id="Vector">
<use xlink:href="#path9_fill" transform="translate(-2270 -456.04)" fill="#B5BC22"/>
</g>
</g>
</g>
<defs>
<path id="path0_fill" d="M 29.2011 8.43936L 15.3662 0.14428C 15.0455 -0.0480935 14.6425 -0.0480935 14.3217 0.14428L 0.486826 8.43936C 0.186821 8.61929 0.00254274 8.94061 2.01061e-05 9.28829C -0.0021872 9.63598 0.177614 9.95972 0.475222 10.1435L 14.6402 18.8935C 14.8037 18.9945 14.989 19.0448 15.1741 19.0448C 15.3665 19.0448 15.5586 18.9903 15.7261 18.8819L 29.2309 10.132C 29.5213 9.94372 29.6938 9.62123 29.6876 9.27754C 29.6817 8.93379 29.4979 8.61736 29.2011 8.43936Z"/>
<path id="path1_fill" d="M 4.1626 -3.43321e-08C 1.8636 -3.43321e-08 7.69847e-08 1.84686 7.69847e-08 4.12541L 7.69847e-08 27.4937L 19.3165 27.4913L 19.3165 6.69859C 19.3165 4.67129 20.9748 3.02792 23.0204 3.02792L 4.1626 -3.43321e-08Z"/>
<path id="path2_fill" d="M 4.1626 -3.43321e-08C 1.8636 -3.43321e-08 7.69847e-08 1.84686 7.69847e-08 4.12541L 7.69847e-08 27.4937L 4.18064 27.4913L 4.18064 6.69859C 4.18064 4.67129 5.83896 3.02792 7.88456 3.02792L 4.1626 -3.43321e-08Z"/>
<path id="path3_fill" d="M 20.5692 29.4938L 1.00912 29.4936C 0.451867 29.4936 1.11628e-07 29.046 1.11628e-07 28.4936L 1.11628e-07 5.12547C 6.31775e-05 2.29924 2.31994 0 5.17172 0L 21.7924 0C 24.6441 6.24996e-05 26.9643 2.29936 26.9643 5.12553L 26.9643 7.0994C 26.9643 7.36458 26.8579 7.61896 26.6686 7.80645C 26.4795 7.99402 26.2227 8.09933 25.9552 8.09933L 21.5782 8.09933L 21.5782 28.4938C 21.5782 28.759 21.4718 29.0133 21.2825 29.2008C 21.0934 29.3885 20.8367 29.4938 20.5692 29.4938ZM 2.01817 27.4937L 19.5601 27.4937L 19.5601 8.09939L 9.33457 8.09933C 8.77732 8.09933 8.32546 7.65164 8.32546 7.09927L 8.32546 5.12553C 8.32546 3.40204 6.91064 1.99999 5.17166 1.99999C 3.43293 1.99999 2.01817 3.40211 2.01817 5.12547L 2.01817 27.4937Z"/>
<path id="path4_fill" d="M 4.03571 0L -3.84924e-07 0C 2.85178 0 5.17191 2.2993 5.17191 5.12547L 5.17191 7.09933C 5.17191 7.36471 5.06552 7.61914 4.87626 7.80658C 4.68712 7.99402 4.43032 8.09927 4.16279 8.09927L 8.1985 8.09927C 8.46603 8.09927 8.72271 7.99402 8.91197 7.80658C 9.1011 7.61914 9.20762 7.36464 9.20762 7.09933L 9.20762 5.12547C 9.20762 2.2993 6.88743 0 4.03571 0Z"/>
<path id="path5_fill" d="M 8.86353 2.00011L 1.00912 2.00011C 0.451867 2.00011 -4.61908e-07 1.55243 -4.61908e-07 1.00006C -4.61908e-07 0.447685 0.451804 -1.52587e-08 1.00912 -1.52587e-08L 8.8636 -1.52587e-08C 9.42085 -1.52587e-08 9.87272 0.447685 9.87272 1.00006C 9.87265 1.55243 9.42078 2.00011 8.86353 2.00011Z"/>
<path id="path6_fill" d="M 8.86353 2.00011L 1.00912 2.00011C 0.451867 2.00011 -4.61908e-07 1.55243 -4.61908e-07 1.00006C -4.61908e-07 0.447685 0.451804 -2.97545e-07 1.00912 -2.97545e-07L 8.8636 -2.97545e-07C 9.42085 -2.97545e-07 9.87272 0.447685 9.87272 1.00006C 9.87265 1.55243 9.42078 2.00011 8.86353 2.00011Z"/>
<path id="path7_fill" d="M 8.86353 2.00011L 1.00912 2.00011C 0.451867 2.00011 -4.61908e-07 1.55243 -4.61908e-07 1.00006C -4.61908e-07 0.447685 0.451804 -5.79831e-07 1.00912 -5.79831e-07L 8.8636 -5.79831e-07C 9.42085 -5.79831e-07 9.87272 0.447685 9.87272 1.00006C 9.87265 1.55243 9.42078 2.00011 8.86353 2.00011Z"/>
<path id="path8_fill" d="M 29.187 0.136239C 28.8769 -0.0429475 28.4941 -0.0453852 28.1819 0.129614L 15.1674 7.42801L 1.48798 0.119863C 1.17536 -0.0471356 0.796901 -0.0393225 0.491725 0.141364C 0.186738 0.321988 1.49158e-08 0.647923 1.49158e-08 1.00005L 1.49158e-08 16.0403C 1.49158e-08 16.5925 0.451804 17.0403 1.00912 17.0403L 28.6788 17.0403C 29.2361 17.0403 29.6879 16.5926 29.6879 16.0403L 29.6879 1.00005C 29.6878 0.644298 29.4972 0.315488 29.187 0.136239Z"/>
<path id="path9_fill" d="M 29.187 0.136154C 28.8769 -0.0430325 28.4941 -0.0454701 28.1819 0.129529L 26.7237 0.947149L 26.7237 13.5341C 26.7237 14.0863 26.2719 14.5341 25.7146 14.5341L 1.49158e-08 14.5341L 1.49158e-08 16.0402C 1.49158e-08 16.5925 0.451804 17.0403 1.00912 17.0403L 28.6788 17.0403C 29.2361 17.0403 29.6879 16.5926 29.6879 16.0402L 29.6879 0.999961C 29.6878 0.644213 29.4972 0.315403 29.187 0.136154Z"/>
</defs>
</svg>
