<svg width="31" height="32" viewBox="0 0 31 32" version="1.1" xmlns="http://www.w3.org/2000/svg" xmlns:xlink="http://www.w3.org/1999/xlink">
<title>image</title>
<desc>Created using Figma</desc>
<g id="Canvas" transform="translate(-3017 467)">
<g id="image">
<g id="Vector">
<use xlink:href="#path0_fill" transform="translate(3018.46 -465)" fill="#FFFFFF"/>
</g>
<g id="Vector">
<use xlink:href="#path1_fill" transform="translate(3018.75 -466.326)" fill="#EDEDED"/>
</g>
<g id="Vector">
<use xlink:href="#path2_fill" transform="translate(3017 -467)" fill="#A1B1B7"/>
</g>
<g id="Vector">
<use xlink:href="#path3_fill" transform="translate(3037.17 -467)" fill="#8FA3AD"/>
</g>
<g id="Vector">
<use xlink:href="#path4_fill" transform="translate(3026.22 -449.897)" fill="#4CAE50"/>
</g>
<g id="Vector">
<use xlink:href="#path5_fill" transform="translate(3020.75 -448.027)" fill="#CCDB39"/>
</g>
<g id="Vector">
<use xlink:href="#path6_fill" transform="translate(3022.3 -457.057)" fill="#FCD735"/>
</g>
<g id="Vector">
<use xlink:href="#path7_fill" transform="translate(3024.95 -457.057)" fill="#FABF2D"/>
</g>
</g>
</g>
<defs>
<path id="path0_fill" d="M 9.52175e-09 29.0278L 21.8508 29.0278L 21.8508 3.43322e-08L 4.09761 3.43322e-08C 1.83455 3.43322e-08 9.52175e-09 1.83743 9.52175e-09 4.10405C 9.52175e-09 4.10405 9.52175e-09 29.0278 9.52175e-09 29.0278Z"/>
<path id="path1_fill" d="M 4.83969 0.375062C 2.16678 0.375062 3.8087e-09 1.29543 3.8087e-09 3.97237L 0.000249712 29.8751L 2.93388 29.8751L 2.93369 7.21667C 2.93369 4.88499 4.8211 2.99462 7.14918 2.99462L 8.84763 2.99462L 8.84763 -2.76565e-08L 4.83969 0.375062Z"/>
<path id="path2_fill" d="M 0.000374421 30.9999C 0.000374421 31.5522 0.44742 32 0.99874 32L 23.7397 32C 24.0045 32 24.2585 31.8945 24.4458 31.707C 24.6329 31.5196 24.7382 31.2652 24.7382 31L 24.738 9.16667L 30.0015 9.16667C 30.5529 9.16667 31 8.71911 31 8.16661L 31 5.84768C 30.9998 2.623 28.3809 0 25.1618 0L 5.83812 0C 2.61888 0 8.33153e-09 2.62299 8.33153e-09 5.84761L 0.000374421 30.9999ZM 5.83812 1.99993C 7.95635 1.99993 9.67932 3.72606 9.67932 5.84755L 9.67938 8.16655C 9.67938 8.71898 10.1264 9.16661 10.6777 9.16661L 22.7411 9.16661L 22.7413 29.9999L 1.99717 29.9999L 1.99692 5.84755C 1.99692 3.72606 3.71995 1.99993 5.83812 1.99993Z"/>
<path id="path3_fill" d="M 5.83812 5.84761L 5.83812 8.16661C 5.83812 8.71905 5.39107 9.16667 4.83963 9.16667L 9.83171 9.16667C 10.3831 9.16667 10.8302 8.71911 10.8302 8.16661L 10.8302 5.84761C 10.8301 2.62299 8.2112 0 4.99208 0L 9.29323e-07 0C 3.21924 0 5.83812 2.62299 5.83812 5.84761Z"/>
<path id="path4_fill" d="M 11.1105 8.79505L 4.84959 0.402628C 4.66787 0.159191 4.38563 0.0111906 4.08211 0.000628131C 3.77909 -0.0101218 3.48711 0.117689 3.28848 0.348001L 0.243091 3.88518C -0.118152 4.30481 -0.0714136 4.93824 0.347552 5.3003C 0.688952 5.59499 1.16963 5.61412 1.53225 5.38605L 3.51569 8.54817C 3.23394 8.72574 3.04537 9.03786 3.04537 9.39567C 3.04537 9.94973 3.49391 10.399 4.04716 10.399L 10.3082 10.399C 10.6873 10.399 11.0338 10.1847 11.2038 9.84511C 11.3735 9.50567 11.3376 9.09924 11.1105 8.79505Z"/>
<path id="path5_fill" d="M 10.3649 6.99119L 6.27449 0.469517C 6.09471 0.182705 5.78239 0.0060801 5.44442 0.000205116C 5.09154 -0.00666987 4.78752 0.159455 4.59769 0.439392L 0.173224 6.96107C -0.0353848 7.2685 -0.0571632 7.66607 0.116501 7.99457C 0.290165 8.32281 0.630816 8.52831 1.00186 8.52831L 9.51676 8.52831C 9.88144 8.52831 10.2172 8.32988 10.3936 8.01025C 10.5699 7.69075 10.5589 7.30032 10.3649 6.99119Z"/>
<path id="path6_fill" d="M 3.42274 -2.97546e-07C 1.53539 -2.97546e-07 -3.8087e-09 1.53781 -3.8087e-09 3.42812C -3.8087e-09 5.31818 1.53539 6.85605 3.42274 6.85605C 5.30983 6.85605 6.84528 5.31824 6.84528 3.42812C 6.84522 1.53781 5.30983 -2.97546e-07 3.42274 -2.97546e-07Z"/>
<path id="path7_fill" d="M 0.772346 -2.97546e-07C 0.506452 -2.97546e-07 0.248733 0.0335625 -3.04696e-08 0.0913749C 1.51586 0.443374 2.65039 1.80412 2.65039 3.42812C 2.65039 5.05193 1.5158 6.41261 -3.04696e-08 6.76467C 0.248733 6.82249 0.506515 6.85605 0.772346 6.85605C 2.65944 6.85605 4.19489 5.31824 4.19489 3.42812C 4.19483 1.53781 2.65944 -2.97546e-07 0.772346 -2.97546e-07Z"/>
</defs>
</svg>
