<svg width="13" height="13" viewBox="0 0 13 13" version="1.1" xmlns="http://www.w3.org/2000/svg" xmlns:xlink="http://www.w3.org/1999/xlink">
<title>options</title>
<desc>Created using Figma</desc>
<g id="Canvas" transform="translate(-3821 458)">
<g id="options">
<g id="Group">
<g id="Vector">
<use xlink:href="#path0_fill" transform="translate(3828.04 -450.958)" fill="#909090"/>
</g>
<g id="Vector">
<use xlink:href="#path1_fill" transform="translate(3821 -458)" fill="#909090"/>
</g>
<g id="Vector">
<use xlink:href="#path1_fill" transform="translate(3828.04 -458)" fill="#909090"/>
</g>
<g id="Vector">
<use xlink:href="#path1_fill" transform="translate(3821 -450.958)" fill="#909090"/>
</g>
</g>
</g>
</g>
<defs>
<path id="path0_fill" d="M 2.97917 0C 1.35417 0 0 1.35417 0 2.97917C 0 4.60417 1.35417 5.95833 2.97917 5.95833C 4.60417 5.95833 5.95833 4.60417 5.95833 2.97917C 5.95833 1.35417 4.60417 0 2.97917 0ZM 2.97917 3.79167C 2.54583 3.79167 2.16667 3.4125 2.16667 2.97917C 2.16667 2.54583 2.54583 2.16667 2.97917 2.16667C 3.4125 2.16667 3.79167 2.54583 3.79167 2.97917C 3.79167 3.4125 3.4125 3.79167 2.97917 3.79167Z"/>
<path id="path1_fill" d="M 5.41667 0L 0.541667 0C 0.216667 0 0 0.216667 0 0.541667L 0 5.41667C 0 5.74167 0.216667 5.95833 0.541667 5.95833L 5.41667 5.95833C 5.74167 5.95833 5.95833 5.74167 5.95833 5.41667L 5.95833 0.541667C 5.95833 0.216667 5.74167 0 5.41667 0ZM 3.79167 3.52083C 3.79167 3.68333 3.68333 3.79167 3.52083 3.79167L 2.4375 3.79167C 2.275 3.79167 2.16667 3.68333 2.16667 3.52083L 2.16667 2.4375C 2.16667 2.275 2.275 2.16667 2.4375 2.16667L 3.52083 2.16667C 3.68333 2.16667 3.79167 2.275 3.79167 2.4375L 3.79167 3.52083Z"/>
</defs>
</svg>
