<svg width="24" height="24" viewBox="0 0 24 24" version="1.1" xmlns="http://www.w3.org/2000/svg" xmlns:xlink="http://www.w3.org/1999/xlink">
<title>gps</title>
<desc>Created using Figma</desc>
<g id="Canvas" transform="translate(-6305 269)">
<g id="gps">
<g id="Vector">
<use xlink:href="#path0_fill" transform="translate(6309.29 -264.76)" fill="#03A8F3"/>
</g>
<g id="Vector">
<use xlink:href="#path1_fill" transform="translate(6315.82 -264.76)" fill="#2195F2"/>
</g>
<g id="Vector">
<use xlink:href="#path2_fill" transform="translate(6305.39 -268.605)" fill="#3F51B4"/>
<use xlink:href="#path3_fill" transform="translate(6305.39 -268.605)" fill="#3F51B4"/>
<use xlink:href="#path4_fill" transform="translate(6305.39 -268.605)" fill="#3F51B4"/>
<use xlink:href="#path5_fill" transform="translate(6305.39 -268.605)" fill="#3F51B4"/>
</g>
</g>
</g>
<defs>
<path id="path0_fill" d="M 7.71273 -4.65396e-07C 3.45983 -4.65396e-07 7.62944e-09 3.45983 7.62944e-09 7.71273C 7.62944e-09 11.9656 3.45983 15.4255 7.71273 15.4255C 11.9656 15.4255 15.4255 11.9657 15.4255 7.7128C 15.4255 3.4599 11.9656 -4.65396e-07 7.71273 -4.65396e-07Z"/>
<path id="path1_fill" d="M 1.18182 -4.65396e-07C 0.779005 -4.65396e-07 0.386378 0.0403755 2.13624e-07 0.100313C 3.6924 0.672004 6.53091 3.86265 6.53091 7.71273C 6.53091 11.5628 3.69233 14.7534 2.13624e-07 15.3252C 0.386315 15.3852 0.778942 15.4255 1.18182 15.4255C 5.43472 15.4255 8.89455 11.9656 8.89455 7.71273C 8.89455 3.45983 5.43472 -4.65396e-07 1.18182 -4.65396e-07Z"/>
<path id="path2_fill" d="M 1.99027 5.30771L 1.99027 3.39754L 9.10863 10.5159C 9.49723 10.9045 10.1274 10.9045 10.516 10.5159C 10.9046 10.1273 10.9046 9.49707 10.516 9.10847L 3.39773 1.99016L 5.30791 1.99016C 5.5828 1.99016 5.83157 1.87884 6.01161 1.69879C 6.19166 1.51874 6.30316 1.26979 6.30299 0.995082C 6.30299 0.445303 5.85751 -0.000176719 5.30791 5.25906e-08L 0.995148 2.75804e-10C 0.445546 0.000176772 0.000243132 0.445479 6.63599e-05 0.995081L 6.62226e-05 5.30766C -0.000110549 5.85726 0.445369 6.30274 0.995148 6.30274C 1.54488 6.30279 1.99058 5.85718 1.99027 5.30771Z"/>
<path id="path3_fill" d="M 21.2205 17.9026L 21.2205 19.8128L 14.1021 12.6945C 13.7135 12.3059 13.0833 12.3059 12.6947 12.6945C 12.3061 13.0831 12.3061 13.7133 12.6947 14.1019L 19.8131 21.2202L 17.9033 21.2202C 17.3535 21.2202 16.9079 21.6658 16.9082 22.2153C 16.908 22.7649 17.3537 23.2105 17.9033 23.2103L 22.2157 23.2105C 22.4796 23.2105 22.7326 23.1056 22.9192 22.919C 23.1058 22.7324 23.2107 22.4793 23.2108 22.2154L 23.2108 17.9029C 23.2108 17.3531 22.7653 16.9076 22.2155 16.9076C 21.6658 16.9076 21.2203 17.3534 21.2205 17.9026Z"/>
<path id="path4_fill" d="M 22.2156 1.62166e-05L 17.903 1.54253e-05C 17.3534 0.000192183 16.9078 0.445848 16.9079 0.995097C 16.9079 1.54488 17.3534 1.99036 17.9032 1.99036L 19.8129 1.99036L 12.6948 9.10853C 12.3062 9.49713 12.3062 10.1273 12.6948 10.5159C 13.0834 10.9045 13.7136 10.9045 14.1022 10.5159L 21.2204 3.39777L 21.2204 5.3075C 21.2204 5.85728 21.666 6.30294 22.2156 6.30276C 22.4905 6.30276 22.7393 6.19143 22.9193 6.01139C 23.0994 5.83134 23.2109 5.58239 23.2107 5.30768L 23.2107 0.995098C 23.2107 0.731169 23.1059 0.477978 22.9193 0.291389C 22.7327 0.1048 22.4795 1.62199e-05 22.2156 1.62166e-05Z"/>
<path id="path5_fill" d="M 3.3978 21.22L 10.516 14.1019C 10.9046 13.7133 10.9046 13.083 10.516 12.6944C 10.1274 12.3058 9.49716 12.3058 9.10856 12.6944L 1.99025 19.8128L 1.99021 17.9031C 1.99021 17.3533 1.54473 16.9078 0.994949 16.9078C 0.445347 16.908 -0.000309821 17.3536 4.3737e-05 17.9031L 0 22.2153C 6.86519e-09 22.765 0.44548 23.2105 0.995082 23.2103L 5.30766 23.2103C 5.58255 23.2103 5.83132 23.099 6.01137 22.919C 6.19142 22.7389 6.30292 22.49 6.30274 22.2153C 6.30292 21.6656 5.85727 21.22 5.30749 21.22L 3.3978 21.22Z"/>
</defs>
</svg>
