<svg width="34" height="23" viewBox="0 0 34 23" version="1.1" xmlns="http://www.w3.org/2000/svg" xmlns:xlink="http://www.w3.org/1999/xlink">
<title>infographic</title>
<desc>Created using Figma</desc>
<g id="Canvas" transform="translate(-6381 -367)">
<g id="infographic">
<g id="Group">
<g id="Group">
<g id="Vector">
<use xlink:href="#path0_fill" transform="translate(6381 367)" fill="#BDBDBD"/>
</g>
</g>
</g>
<g id="Group">
<g id="Group">
<g id="Vector">
<use xlink:href="#path1_fill" transform="translate(6381 378.953)" fill="#BDBDBD"/>
</g>
</g>
</g>
<g id="Group">
<g id="Group">
<g id="Vector">
<use xlink:href="#path2_fill" transform="translate(6384.98 370.984)" fill="#BDBDBD"/>
</g>
</g>
</g>
<g id="Group">
<g id="Group">
<g id="Vector">
<use xlink:href="#path2_fill" transform="translate(6384.98 383.004)" fill="#BDBDBD"/>
</g>
</g>
</g>
</g>
</g>
<defs>
<path id="path0_fill" d="M 29.6574 4.27616L 26.6691 1.28788C 26.4824 1.10102 26.2291 0.996094 25.9648 0.996094L 7.9653 0.996094C 7.13289 0.370945 6.09922 0 4.98047 0C 2.23424 0 0 2.23424 0 4.98047C 0 7.7267 2.23424 9.96094 4.98047 9.96094C 6.09922 9.96094 7.13289 9.58999 7.9653 8.96484L 25.9648 8.96484C 26.2291 8.96484 26.4824 8.85992 26.6691 8.67312L 29.6574 5.68484C 30.0464 5.29583 30.0464 4.66517 29.6574 4.27616ZM 4.98047 7.96875C 3.33273 7.96875 1.99219 6.62821 1.99219 4.98047C 1.99219 3.33273 3.33273 1.99219 4.98047 1.99219C 6.62821 1.99219 7.96875 3.33273 7.96875 4.98047C 7.96875 6.62821 6.62821 7.96875 4.98047 7.96875ZM 25.5523 6.97266L 9.54384 6.97266C 9.81139 6.36212 9.96094 5.68862 9.96094 4.98047C 9.96094 4.27231 9.81139 3.59882 9.54384 2.98828L 25.5523 2.98828L 27.5444 4.98047L 25.5523 6.97266Z"/>
<path id="path1_fill" d="M 33.716 4.35027L 30.7277 1.29565C 30.5402 1.10407 30.2836 0.996094 30.0156 0.996094L 7.9386 0.996094C 7.08482 0.349562 6.05798 0 4.98047 0C 2.22707 0 0 2.29327 0 5.04688C 0 7.80028 2.22687 10.0938 4.98047 10.0938C 6.05804 10.0938 7.08482 9.74419 7.9386 9.09766L 30.0156 9.09766C 30.2836 9.09766 30.5402 8.98968 30.7277 8.7981L 33.716 5.74341C 34.0947 5.35626 34.0947 4.73749 33.716 4.35027ZM 4.98047 8.10156C 3.36062 8.10156 1.99219 6.70271 1.99219 5.04688C 1.99219 3.39104 3.36062 1.99219 4.98047 1.99219C 6.60032 1.99219 7.96875 3.39104 7.96875 5.04688C 7.96875 6.70271 6.60032 8.10156 4.98047 8.10156ZM 29.5966 7.10547L 9.52279 7.10547C 9.80907 6.46418 9.96094 5.76612 9.96094 5.04688C 9.96094 4.32763 9.80907 3.62957 9.52279 2.98828L 29.5966 2.98828L 31.6104 5.04688L 29.5966 7.10547Z"/>
<path id="path2_fill" d="M 0.996094 1.99219C 1.54622 1.99219 1.99219 1.54622 1.99219 0.996094C 1.99219 0.445966 1.54622 0 0.996094 0C 0.445966 0 0 0.445966 0 0.996094C 0 1.54622 0.445966 1.99219 0.996094 1.99219Z"/>
</defs>
</svg>
