<svg width="42" height="42" viewBox="0 0 42 42" version="1.1" xmlns="http://www.w3.org/2000/svg" xmlns:xlink="http://www.w3.org/1999/xlink">
<title>Group</title>
<desc>Created using Figma</desc>
<g id="Canvas" transform="translate(-667 472)">
<g id="Group">
<g id="Vector">
<use xlink:href="#path0_fill" transform="translate(667 -472)" fill="#FFFFFF"/>
</g>
</g>
</g>
<defs>
<path id="path0_fill" d="M 35.8395 6.15309C 31.8737 2.18642 26.6032 6.43877e-11 20.9957 6.43877e-11C 15.3882 6.43877e-11 10.1177 2.18642 6.15182 6.15309C 2.18597 10.1198 0 15.3914 0 21C 0 26.6086 2.18597 31.8802 6.15182 35.8469C 10.1177 39.8136 15.3882 42 20.9957 42C 24.253 42 27.2253 41.3951 29.584 40.263C 31.8218 39.1827 33.4462 37.6358 34.1633 35.916C 35.0187 33.8506 34.5349 31.6988 32.8414 30.0049L 32.7809 29.9444C 32.8068 29.9099 32.8414 29.884 32.8673 29.858C 34.0769 28.5877 34.0769 26.9198 32.85 25.6926L 29.8605 22.7025C 29.273 22.0975 28.5645 21.7691 27.8128 21.7691C 27.0611 21.7691 26.344 22.0889 25.7391 22.6938L 24.1839 24.2494C 24.1061 24.2062 24.037 24.1716 23.9593 24.137C 23.7692 24.042 23.5964 23.9556 23.4495 23.8605C 21.8683 22.858 20.4341 21.5444 19.0603 19.8593C 18.4555 19.0988 18.0407 18.4506 17.7297 17.8111C 18.1185 17.4481 18.4814 17.0765 18.8356 16.7136C 18.9825 16.558 19.138 16.4111 19.2936 16.2556C 20.5637 14.9852 20.5637 13.3432 19.2936 12.0728L 17.8161 10.5951C 17.6433 10.4222 17.4791 10.258 17.315 10.0852C 16.9866 9.74815 16.6497 9.40247 16.2868 9.06543C 15.6992 8.48642 14.9994 8.18395 14.2563 8.18395C 13.5133 8.18395 12.8048 8.48642 12.2 9.06543C 12.1913 9.07407 12.1913 9.07407 12.1827 9.08272L 10.325 10.9407C 9.58198 11.684 9.14997 12.6 9.06357 13.6543C 8.93396 15.2963 9.40917 16.8173 9.7807 17.8111C 10.6706 20.2136 12.0012 22.4432 13.9798 24.8284C 16.3818 27.6975 19.2763 29.9704 22.5855 31.5691C 23.8556 32.1741 25.5577 32.8827 27.4758 33.0123C 27.5968 33.021 27.7178 33.021 27.8387 33.021C 29.1779 33.021 30.3098 32.537 31.1911 31.5778C 31.1998 31.5691 31.217 31.5519 31.2257 31.5432C 31.2516 31.5086 31.2862 31.4741 31.3207 31.4395L 31.3726 31.4914C 32.4785 32.5975 32.7809 33.8593 32.2452 35.1469C 31.2516 37.5062 27.3894 39.9259 20.9957 39.9259C 10.5583 39.9259 2.07365 31.4395 2.07365 21C 2.07365 10.5605 10.5583 2.07407 20.9957 2.07407C 31.433 2.07407 39.9177 10.5605 39.9177 21C 39.9177 22.7198 39.6844 24.4136 39.2351 26.0469C 39.0796 26.6 39.4079 27.1704 39.9609 27.3259C 40.5139 27.4815 41.0841 27.1531 41.2397 26.6C 41.7408 24.7852 42 22.9012 42 21C 41.9914 15.3914 39.8054 10.1198 35.8395 6.15309ZM 29.6532 30.1691C 29.1607 30.6963 28.6077 30.9296 27.8387 30.9296C 27.761 30.9296 27.6832 30.9296 27.6054 30.921C 26.0502 30.8173 24.5814 30.2037 23.4841 29.6765C 20.4513 28.2074 17.7902 26.1247 15.5783 23.4802C 13.7552 21.2852 12.5369 19.2543 11.7247 17.0765C 11.2409 15.763 11.0595 14.7605 11.1286 13.8099C 11.1804 13.2481 11.3878 12.7901 11.7939 12.3926L 13.6515 10.5432C 13.7984 10.4049 14.023 10.2407 14.265 10.2407C 14.5069 10.2407 14.7143 10.3963 14.8439 10.5346C 14.8525 10.5432 14.8611 10.5519 14.8698 10.5605C 15.1981 10.863 15.5092 11.1827 15.8375 11.5198C 16.0103 11.6926 16.1831 11.8741 16.3559 12.0469L 17.8334 13.5247C 18.2913 13.9827 18.2913 14.3198 17.8334 14.7778C 17.6778 14.9333 17.5223 15.0889 17.3668 15.2444C 16.9089 15.7025 16.4855 16.1432 16.0189 16.558C 16.0016 16.5667 15.993 16.584 15.9757 16.6012C 15.3277 17.2494 15.5524 17.9235 15.6215 18.1481C 15.6301 18.1741 15.6388 18.1914 15.6474 18.2173C 16.0448 19.1765 16.5978 20.0753 17.4446 21.1469L 17.4532 21.1556C 18.9739 23.0309 20.5723 24.4827 22.3436 25.6062C 22.5768 25.7531 22.8101 25.8741 23.0348 25.9864C 23.2249 26.0815 23.3977 26.1679 23.5445 26.263C 23.5705 26.2802 23.605 26.2975 23.6396 26.3148C 23.8642 26.4272 24.0889 26.479 24.3135 26.479C 24.6937 26.479 25.0479 26.3235 25.3503 26.0123L 27.208 24.1543C 27.3549 24.0074 27.5709 23.8346 27.8128 23.8346C 28.0374 23.8346 28.2448 23.9988 28.3744 24.137C 28.383 24.1457 28.383 24.1457 28.3917 24.1543L 31.3812 27.1444C 31.8046 27.5679 31.8046 27.9568 31.3639 28.4148L 31.3553 28.4235C 31.1566 28.6395 30.9405 28.8469 30.7073 29.0716C 30.3617 29.4086 29.9988 29.763 29.6532 30.1691Z"/>
</defs>
</svg>
