<svg width="32" height="32" viewBox="0 0 32 32" version="1.1" xmlns="http://www.w3.org/2000/svg" xmlns:xlink="http://www.w3.org/1999/xlink">
<title>map</title>
<desc>Created using Figma</desc>
<g id="Canvas" transform="translate(-1406 -122)">
<g id="map">
<g id="Vector">
<use xlink:href="#path0_fill" transform="translate(1406 133.728)" fill="#8AC24A"/>
</g>
<g id="Vector">
<use xlink:href="#path1_fill" transform="translate(1408.52 133.728)" fill="#455A64"/>
</g>
<g id="Vector">
<use xlink:href="#path2_fill" transform="translate(1406 133.728)" fill="#FEC007"/>
</g>
<g id="Vector">
<use xlink:href="#path3_fill" transform="translate(1406 138.608)" fill="#03A8F3"/>
</g>
<g id="Vector">
<use xlink:href="#path4_fill" transform="translate(1423.64 148.146)" fill="#8AC24A"/>
</g>
<g id="Vector">
<use xlink:href="#path5_fill" transform="translate(1419.77 122)" fill="#FEC007"/>
</g>
<g id="Vector">
<use xlink:href="#path6_fill" transform="translate(1426.02 122)" fill="#FEAA00"/>
</g>
<g id="Vector">
<use xlink:href="#path7_fill" transform="translate(1424.17 126.402)" fill="#FFFFFF"/>
</g>
<g id="Vector">
<use xlink:href="#path8_fill" transform="translate(1424.17 126.403)" fill="#CED7DB"/>
</g>
</g>
</g>
<defs>
<path id="path0_fill" d="M 31 -4.50134e-07L 1.00001 -4.50134e-07C 0.447771 -4.50134e-07 -1.49041e-08 0.436937 -1.49041e-08 0.975812L -1.49041e-08 19.2959C -1.49041e-08 19.8351 0.447771 20.2717 1.00001 20.2717L 31 20.2717C 31.5522 20.2717 32 19.8351 32 19.2959L 32 0.975812C 32 0.436875 31.5522 -4.50134e-07 31 -4.50134e-07Z"/>
<path id="path1_fill" d="M 29.4841 7.704L 16.2884 -4.50134e-07L -6.25485e-08 -4.50134e-07L 29.4841 18.0066L 29.4841 7.704Z"/>
<path id="path2_fill" d="M 2.51587 -4.50134e-07L 1.00001 -4.50134e-07C 0.447771 -4.50134e-07 -1.49041e-08 0.436937 -1.49041e-08 0.975812L -1.49041e-08 11.9417L 10.5065 4.87994L 2.51587 -4.50134e-07Z"/>
<path id="path3_fill" d="M 10.5065 -7.78198e-07L -1.49041e-08 7.06175L -1.49041e-08 14.416C -1.49041e-08 14.9551 0.447771 15.3918 1.00001 15.3918L 17.6424 15.3918L 26.1238 9.53794L 10.5065 -7.78198e-07Z"/>
<path id="path4_fill" d="M 8.4814 7.93457e-07L -1.0946e-07 5.85388L 13.3576 5.85388C 13.9099 5.85388 14.3576 5.41719 14.3576 4.87806L 14.3576 3.58875L 8.4814 7.93457e-07Z"/>
<path id="path5_fill" d="M 7.50003 0C 3.36453 0 2.03011e-07 3.30881 2.03011e-07 7.37594C -0.000255996 13.3421 6.52269 19.6388 6.80028 19.9039C 6.99487 20.0894 7.24729 20.1821 7.49971 20.1821C 7.75456 20.1821 8.00974 20.0876 8.20451 19.8986C 8.4821 19.6294 14.9997 13.2416 14.9999 7.37587C 15.0001 3.30881 11.6355 0 7.50003 0Z"/>
<path id="path6_fill" d="M 1.25358 0C 0.826818 0 0.411072 0.043375 0.00358755 0.111C 3.54483 0.698937 6.25362 3.72856 6.25362 7.37594C 6.25337 12.3221 1.6195 17.6392 7.81857e-07 19.3463C 0.307632 19.6667 0.5099 19.8618 0.553966 19.9039C 0.748549 20.0895 1.00097 20.1822 1.25339 20.1822C 1.50824 20.1822 1.76342 20.0876 1.95819 19.8987C 2.23578 19.6295 8.75335 13.2417 8.75361 7.37594C 8.75361 3.30881 5.38908 0 1.25358 0Z"/>
<path id="path7_fill" d="M 3.00009 5.90812C 4.65699 5.90812 6.00018 4.58555 6.00018 2.95406C 6.00018 1.32258 4.65699 0 3.00009 0C 1.34319 0 0 1.32258 0 2.95406C 0 4.58555 1.34319 5.90812 3.00009 5.90812Z"/>
<path id="path8_fill" d="M 1.58344 2.95381C 1.58344 1.59281 2.51972 0.4495 3.79181 0.107187C 3.53926 0.0392499 3.27461 1.18256e-07 3.00002 1.18256e-07C 1.34312 1.18256e-07 -7.19308e-07 1.32244 -7.19308e-07 2.95388C -7.19308e-07 4.5855 1.34312 5.908 3.00002 5.908C 3.27454 5.908 3.53919 5.86869 3.79181 5.80056C 2.51972 5.45819 1.58344 4.31512 1.58344 2.95381Z"/>
</defs>
</svg>
