<svg width="13" height="13" viewBox="0 0 13 13" version="1.1" xmlns="http://www.w3.org/2000/svg" xmlns:xlink="http://www.w3.org/1999/xlink">
<title>Group</title>
<desc>Created using Figma</desc>
<g id="Canvas" transform="translate(537 255)">
<g id="Group">
<g id="Vector">
<use xlink:href="#path0_fill" transform="translate(-537 -255)" fill="#FFFFFF" fill-opacity="0.5"/>
</g>
<g id="Vector">
<use xlink:href="#path1_fill" transform="translate(-531.5 -252)" fill="#FFFFFF" fill-opacity="0.5"/>
</g>
<g id="Vector">
<use xlink:href="#path2_fill" transform="translate(-531.5 -249)" fill="#FFFFFF" fill-opacity="0.5"/>
</g>
</g>
</g>
<defs>
<path id="path0_fill" d="M 11.1 1.9C 9.9 0.7 8.3 0 6.5 0C 4.7 0 3.1 0.75 1.9 1.9C 0.7 3.1 0 4.7 0 6.5C 0 8.3 0.75 9.9 1.9 11.1C 3.1 12.3 4.7 13 6.5 13C 8.3 13 9.9 12.25 11.1 11.1C 12.3 9.9 13 8.3 13 6.5C 13 4.7 12.25 3.1 11.1 1.9ZM 9.7 9.7C 8.85 10.55 7.7 11 6.5 11C 5.3 11 4.15 10.55 3.3 9.7C 2.45 8.85 2 7.7 2 6.5C 2 5.3 2.45 4.15 3.3 3.3C 4.15 2.45 5.3 2 6.5 2C 7.7 2 8.85 2.45 9.7 3.3C 10.55 4.15 11 5.3 11 6.5C 11 7.7 10.55 8.85 9.7 9.7Z"/>
<path id="path1_fill" d="M 1.5 0L 0.5 0C 0.2 0 0 0.2 0 0.5L 0 1.5C 0 1.8 0.2 2 0.5 2L 1.5 2C 1.8 2 2 1.8 2 1.5L 2 0.5C 2 0.2 1.8 0 1.5 0Z"/>
<path id="path2_fill" d="M 1.5 0L 0.5 0C 0.2 0 0 0.2 0 0.5L 0 3.5C 0 3.8 0.2 4 0.5 4L 1.5 4C 1.8 4 2 3.8 2 3.5L 2 0.5C 2 0.2 1.8 0 1.5 0Z"/>
</defs>
</svg>
