<svg width="12" height="12" viewBox="0 0 12 12" version="1.1" xmlns="http://www.w3.org/2000/svg" xmlns:xlink="http://www.w3.org/1999/xlink">
<title>Group</title>
<desc>Created using Figma</desc>
<g id="Canvas" transform="translate(537 196)">
<g id="Group">
<g id="Vector">
<use xlink:href="#path0_fill" transform="translate(-530.029 -189.043)" fill="#FFFFFF" fill-opacity="0.5"/>
</g>
<g id="Vector">
<use xlink:href="#path1_fill" transform="translate(-537 -195.992)" fill="#FFFFFF" fill-opacity="0.5"/>
</g>
<g id="Group">
<g id="Vector">
<use xlink:href="#path2_fill" transform="translate(-530.029 -196)" fill="#FFFFFF" fill-opacity="0.5"/>
</g>
<g id="Vector">
<use xlink:href="#path3_fill" transform="translate(-537 -189.043)" fill="#FFFFFF" fill-opacity="0.5"/>
</g>
</g>
</g>
</g>
<defs>
<path id="path0_fill" d="M 8.84493e-16 4.58234L 8.84493e-16 3.57523C 8.84493e-16 3.2731 0.19917 3.07168 0.497925 3.07168L 0.995851 3.07168C 1.19502 3.07168 1.3444 2.8199 1.19502 2.61848L 0.19917 1.61137C -1.92911e-07 1.40995 -1.92911e-07 1.10782 0.19917 0.906397L 0.896266 0.201422C 1.09544 1.95092e-07 1.39419 1.95092e-07 1.59336 0.201422L 2.58921 1.20853C 2.73859 1.3596 3.03734 1.25888 3.03734 1.00711L 3.03734 0.503554C 3.03734 0.201421 3.23651 -9.60452e-08 3.53527 -9.60452e-08L 4.53112 -9.60452e-08C 4.82988 -9.60452e-08 5.02905 0.201421 5.02905 0.503554L 5.02905 4.53198C 5.02905 4.83412 4.82988 5.03554 4.53112 5.03554L 0.547718 5.03554C 0.19917 5.08589 8.84493e-16 4.88447 8.84493e-16 4.58234Z"/>
<path id="path1_fill" d="M 3.43568 4.83412L 2.43983 3.82701C 2.29046 3.67594 1.9917 3.77665 1.9917 4.02843L 1.9917 4.53198C 1.9917 4.83412 1.79253 5.03554 1.49378 5.03554L 0.497925 5.03554C 0.19917 5.03554 0 4.83412 0 4.53198L 0 0.503554C 0 0.201421 0.19917 3.00141e-09 0.497925 3.00141e-09L 4.48133 3.00141e-09C 4.78008 3.00141e-09 4.97925 0.201421 4.97925 0.503554L 4.97925 1.51066C 4.97925 1.81279 4.78008 2.01421 4.48133 2.01421L 3.9834 2.01421C 3.78423 2.01421 3.63485 2.26599 3.78423 2.46741L 4.78008 3.47452C 4.97925 3.67594 4.97925 3.97807 4.78008 4.1795L 4.08299 4.88447C 3.93361 5.03554 3.63485 5.03554 3.43568 4.83412Z"/>
<path id="path2_fill" d="M 8.84493e-16 0.46091L 8.84493e-16 1.46802C 8.84493e-16 1.77015 0.19917 1.97157 0.497925 1.97157L 0.995851 1.97157C 1.19502 1.97157 1.3444 2.22335 1.19502 2.42477L 0.19917 3.43188C -1.92911e-07 3.6333 -1.92911e-07 3.93543 0.19917 4.13685L 0.896266 4.84183C 1.09544 5.04325 1.39419 5.04325 1.59336 4.84183L 2.58921 3.83472C 2.73859 3.68365 3.03734 3.78436 3.03734 4.03614L 3.03734 4.53969C 3.03734 4.84183 3.23651 5.04325 3.53527 5.04325L 4.53112 5.04325C 4.82988 5.04325 5.02905 4.84183 5.02905 4.53969L 5.02905 0.511265C 5.02905 0.209133 4.82988 0.00771161 4.53112 0.00771161L 0.547718 0.00771161C 0.19917 -0.0426438 8.84493e-16 0.158778 8.84493e-16 0.46091Z"/>
<path id="path3_fill" d="M 3.43568 0.201422L 2.43983 1.20853C 2.29046 1.3596 1.9917 1.25888 1.9917 1.00711L 1.9917 0.503554C 1.9917 0.201421 1.79253 -9.60452e-08 1.49378 -9.60452e-08L 0.497925 -9.60452e-08C 0.19917 -9.60452e-08 0 0.201421 0 0.503554L 0 4.53198C 0 4.83412 0.19917 5.03554 0.497925 5.03554L 4.48133 5.03554C 4.78008 5.03554 4.97925 4.83412 4.97925 4.53198L 4.97925 3.52488C 4.97925 3.22274 4.78008 3.02132 4.48133 3.02132L 3.9834 3.02132C 3.78423 3.02132 3.63485 2.76954 3.78423 2.56812L 4.78008 1.56102C 4.97925 1.35959 4.97925 1.05746 4.78008 0.856041L 4.08299 0.151066C 3.93361 0 3.63485 1.95092e-07 3.43568 0.201422Z"/>
</defs>
</svg>
