<svg width="13" height="11" viewBox="0 0 13 11" version="1.1" xmlns="http://www.w3.org/2000/svg" xmlns:xlink="http://www.w3.org/1999/xlink">
<title>Group</title>
<desc>Created using Figma</desc>
<g id="Canvas" transform="translate(537 137)">
<g id="Group">
<g id="Vector">
<use xlink:href="#path0_fill" transform="translate(-537 -137)" fill="#FFFFFF" fill-opacity="0.5"/>
</g>
<g id="Vector">
<use xlink:href="#path1_fill" transform="translate(-529 -134)" fill="#FFFFFF" fill-opacity="0.5"/>
</g>
</g>
</g>
<defs>
<path id="path0_fill" d="M 12.5 0L 0.5 0C 0.2 0 0 0.2 0 0.5L 0 10.5C 0 10.8 0.2 11 0.5 11L 12.5 11C 12.8 11 13 10.8 13 10.5L 13 0.5C 13 0.2 12.8 0 12.5 0ZM 8.5 9L 2.25 9C 2.1 9 2 8.9 2 8.75L 2 8.2C 2 8.1 2.05 8.05 2.1 8C 2.85 7.55 4.05 7 5 7C 5.6 7 6.6 7.5 7.55 8C 7.9 8.15 8.25 8.35 8.6 8.5C 8.85 8.65 8.75 9 8.5 9ZM 11 7C 11 7.15 10.85 7.3 10.65 7.25C 9.95 7 9.2 6.6 8.45 6.25C 7.2 5.6 6.05 5 4.95 5C 4.05 5 3.1 5.3 2.3 5.65C 2.15 5.7 1.95 5.6 1.95 5.4L 1.95 2.25C 1.95 2.1 2.05 2 2.2 2L 10.7 2C 10.85 2 10.95 2.1 10.95 2.25L 10.95 7L 11 7Z"/>
<path id="path1_fill" d="M 1 2C 1.55228 2 2 1.55228 2 1C 2 0.447715 1.55228 0 1 0C 0.447715 0 0 0.447715 0 1C 0 1.55228 0.447715 2 1 2Z"/>
</defs>
</svg>
