<svg width="13" height="13" viewBox="0 0 13 13" version="1.1" xmlns="http://www.w3.org/2000/svg" xmlns:xlink="http://www.w3.org/1999/xlink">
<title>Group</title>
<desc>Created using Figma</desc>
<g id="Canvas" transform="translate(-6023 81)">
<g id="Group">
<g id="Vector">
<use xlink:href="#path0_fill" transform="translate(6031.08 -78.0455)" fill="#FFFFFF" fill-opacity="0.5"/>
</g>
<g id="Vector">
<use xlink:href="#path1_fill" transform="translate(6023 -81)" fill="#FFFFFF" fill-opacity="0.5"/>
</g>
</g>
</g>
<defs>
<path id="path0_fill" d="M 0.984848 1.9697C 1.52877 1.9697 1.9697 1.52877 1.9697 0.984848C 1.9697 0.440932 1.52877 0 0.984848 0C 0.440931 0 0 0.440932 0 0.984848C 0 1.52877 0.440931 1.9697 0.984848 1.9697Z"/>
<path id="path1_fill" d="M 12.5076 0L 6.89394 0C 6.74621 0 6.64773 0.0492424 6.54924 0.147727L 0.147727 6.54924C -0.0492424 6.74621 -0.0492424 7.04167 0.147727 7.23864L 5.76136 12.8523C 5.95833 13.0492 6.25379 13.0492 6.45076 12.8523L 12.8523 6.45076C 12.9508 6.35227 13 6.25379 13 6.10606L 13 0.492424C 13 0.19697 12.803 0 12.5076 0ZM 11.0303 5.41667C 11.0303 5.46591 10.9811 5.56439 10.9811 5.61364L 6.30303 10.2917C 6.20455 10.3902 6.05682 10.3902 5.95833 10.2917L 2.75758 7.09091C 2.65909 6.99242 2.65909 6.8447 2.75758 6.74621L 7.43561 2.06818C 7.48485 2.01894 7.53409 2.01894 7.63258 2.01894L 10.8333 2.01894C 10.9811 2.01894 11.0795 2.11742 11.0795 2.26515L 11.0795 5.41667L 11.0303 5.41667Z"/>
</defs>
</svg>
