<svg width="13" height="13" viewBox="0 0 13 13" version="1.1" xmlns="http://www.w3.org/2000/svg" xmlns:xlink="http://www.w3.org/1999/xlink">
<title>flag</title>
<desc>Created using Figma</desc>
<g id="Canvas" transform="translate(-6023 23)">
<g id="flag">
<g id="Vector">
<use xlink:href="#path0_fill" transform="translate(6023 -23)" fill="#FFFFFF" fill-opacity="0.5"/>
</g>
</g>
</g>
<defs>
<path id="path0_fill" d="M 12.5 0.5C 12.45 0.5 12.4 0.5 12.3 0.55C 11.7 0.8 11.1 1 10.45 1C 9.1 1 7.8 0 6.45 0C 5.1 0 3.8 1 2.45 1C 2.15 1 1.95 1.2 1.95 1.5L 1.95 10.75C 1.95 10.9 1.85 11 1.7 11L 0.5 11C 0.2 11 0 11.2 0 11.5L 0 12.5C 0 12.8 0.2 13 0.5 13L 5.5 13C 5.8 13 6 12.8 6 12.5L 6 11.5C 6 11.2 5.8 11 5.5 11L 4.25 11C 4.1 11 4 10.9 4 10.75L 4 8.85C 4 8.75 4.05 8.65 4.15 8.6C 4.9 8.3 5.7 7.95 6.5 7.95C 7.85 7.95 9.15 8.95 10.5 8.95C 11.2 8.95 11.85 8.7 12.5 8.45C 12.55 8.45 12.6 8.4 12.7 8.4C 12.9 8.35 13 8.15 13 7.95L 13 4.4L 13 1.05C 13 0.7 12.8 0.5 12.5 0.5ZM 11 4.35L 11 6.65C 11 6.75 10.9 6.85 10.8 6.9C 10.7 6.95 10.6 6.95 10.5 6.95C 10.2 6.95 9.7 6.75 9.2 6.6C 8.4 6.3 7.55 5.95 6.5 5.95C 5.7 5.95 4.95 6.15 4.35 6.4C 4.2 6.45 4 6.35 4 6.15L 4 2.95C 4 2.85 4.05 2.75 4.2 2.7C 4.55 2.6 4.9 2.45 5.25 2.35C 5.75 2.15 6.25 2 6.55 2C 6.85 2 7.35 2.2 7.85 2.35C 8.65 2.65 9.5 3 10.55 3C 10.65 3 10.7 3 10.8 3C 10.95 3 11.05 3.1 11.05 3.25L 11.05 4.35L 11 4.35Z"/>
</defs>
</svg>
