<svg width="32" height="29" viewBox="0 0 32 29" version="1.1" xmlns="http://www.w3.org/2000/svg" xmlns:xlink="http://www.w3.org/1999/xlink">
<title>placeholder</title>
<desc>Created using Figma</desc>
<g id="Canvas" transform="translate(-5243 295)">
<g id="placeholder">
<g id="Group">
<g id="Vector">
<use xlink:href="#path0_fill" transform="translate(5248.12 -282.962)" fill="#D22F2F"/>
</g>
<g id="Vector">
<use xlink:href="#path1_fill" transform="translate(5264.7 -282.962)" fill="#D22F2F"/>
</g>
</g>
<g id="Vector">
<use xlink:href="#path2_fill" transform="translate(5243 -282.962)" fill="#FE7043"/>
</g>
<g id="Vector">
<use xlink:href="#path3_fill" transform="translate(5246.14 -279.737)" fill="#D22F2F"/>
</g>
<g id="Vector">
<use xlink:href="#path4_fill" transform="translate(5246.14 -279.737)" fill="#B61C1C"/>
</g>
<g id="Vector">
<use xlink:href="#path5_fill" transform="translate(5259.58 -282.962)" fill="#FE7043"/>
</g>
<g id="Vector">
<use xlink:href="#path6_fill" transform="translate(5262.71 -279.737)" fill="#D22F2F"/>
</g>
<g id="Vector">
<use xlink:href="#path7_fill" transform="translate(5255.08 -295)" fill="#FE9700"/>
</g>
<g id="Vector">
<use xlink:href="#path8_fill" transform="translate(5247.2 -295)" fill="#FEC007"/>
</g>
<g id="Vector">
<use xlink:href="#path9_fill" transform="translate(5253.31 -288.747)" fill="#FFFFFF"/>
</g>
<g id="Vector">
<use xlink:href="#path10_fill" transform="translate(5253.31 -288.747)" fill="#CED7DB"/>
</g>
</g>
</g>
<defs>
<path id="path0_fill" d="M 4.64237 -2.0741e-07L 1.55519 -2.0741e-07C 1.00294 -2.0741e-07 0.555188 0.450828 0.555188 1.00687C 0.555188 1.55015 0.98325 1.9899 1.51794 2.01004L 1.03737 14.948L 1 14.948C 0.44775 14.948 7.62939e-09 15.3988 7.62939e-09 15.9549C 7.62939e-09 16.5112 0.44775 16.9617 1 16.9617L 4.64188 16.9617C 4.92944 16.9617 5.20287 16.8371 5.39287 16.6198C 5.59331 16.3903 10.3006 10.9451 10.3008 6.16516C 10.3008 2.59289 7.92119 -2.0741e-07 4.64237 -2.0741e-07Z"/>
<path id="path1_fill" d="M 4.64237 -2.0741e-07L 1.55519 -2.0741e-07C 1.00294 -2.0741e-07 0.555188 0.450828 0.555188 1.00687C 0.555188 1.5504 0.983438 1.9899 1.51806 2.01004L 1.03738 14.9479L 1 14.9479C 0.447751 14.9479 7.32422e-07 15.3988 7.32422e-07 15.9548C 7.32422e-07 16.5111 0.447751 16.9617 1 16.9617L 4.64213 16.9617C 4.92975 16.9617 5.20312 16.837 5.39312 16.6198C 5.59356 16.3902 10.3008 10.9449 10.3008 6.16516C 10.3008 2.59289 7.92119 -2.0741e-07 4.64237 -2.0741e-07Z"/>
<path id="path2_fill" d="M 6.12325 -2.0741e-07C 2.74681 -2.0741e-07 0 2.7657 0 6.16516C 0 11.0535 5.18875 16.4335 5.40969 16.6601C 5.59769 16.8531 5.85475 16.9617 6.12331 16.9617C 6.12456 16.9617 6.12575 16.9617 6.127 16.9617C 6.39675 16.9608 6.65462 16.8502 6.84237 16.6547C 7.06287 16.4251 12.2467 10.9721 12.2467 6.16516C 12.2466 2.7657 9.49975 -2.0741e-07 6.12325 -2.0741e-07Z"/>
<path id="path3_fill" d="M 2.90525 -7.52821e-07C 1.30319 -7.52821e-07 8.39233e-08 1.31221 8.39233e-08 2.92522C 8.39233e-08 4.53805 1.30325 5.85044 2.90525 5.85044C 4.50725 5.85044 5.8105 4.53805 5.8105 2.92522C 5.8105 1.31221 4.50725 -7.52821e-07 2.90525 -7.52821e-07Z"/>
<path id="path4_fill" d="M 1.66669 2.92528C 1.66669 1.60401 2.54169 0.485754 3.73863 0.12416C 3.47431 0.0442398 3.19494 7.22093e-07 2.90525 7.22093e-07C 1.30319 7.22093e-07 4.95911e-08 1.31221 4.95911e-08 2.92522C 4.95911e-08 4.53805 1.30325 5.85044 2.90525 5.85044C 3.19494 5.85044 3.47431 5.80621 3.73863 5.72628C 2.54163 5.36482 1.66669 4.24662 1.66669 2.92528Z"/>
<path id="path5_fill" d="M 6.12356 -2.0741e-07C 2.74731 -2.0741e-07 0.000311829 2.7657 -6.71387e-07 6.16516C -6.71387e-07 11.0535 5.18875 16.4335 5.40969 16.6601C 5.59769 16.8531 5.85475 16.9617 6.12331 16.9617C 6.12456 16.9617 6.12575 16.9617 6.127 16.9617C 6.39675 16.9608 6.65462 16.8502 6.84237 16.6547C 7.06287 16.4251 12.2467 10.9721 12.2469 6.16534L 12.2469 6.16509C 12.2469 2.7657 9.50006 -2.0741e-07 6.12356 -2.0741e-07Z"/>
<path id="path6_fill" d="M 2.90525 -7.52821e-07C 1.30319 -7.52821e-07 2.28882e-07 1.31221 2.28882e-07 2.92522C 2.28882e-07 4.53805 1.30325 5.85044 2.90525 5.85044C 4.50706 5.85044 5.81031 4.53805 5.81031 2.92522C 5.81031 1.31221 4.50706 -7.52821e-07 2.90525 -7.52821e-07Z"/>
<path id="path7_fill" d="M 12.2907 2.80182C 10.7212 0.995044 8.49487 -2.30455e-08 6.02219 -2.30455e-08L 1 -2.30455e-08C 0.44775 -2.30455e-08 -2.36511e-07 0.450828 -2.36511e-07 1.00687C -2.36511e-07 1.56292 0.44775 2.01375 1 2.01375L 1.01488 2.01375L 1.34519 24.3204C 0.8 24.3287 0.360062 24.7749 0.360062 25.3258C 0.360062 25.8818 0.807812 26.3327 1.36006 26.3327L 6.02169 26.3327C 6.30931 26.3327 6.58269 26.208 6.77269 25.9908C 7.09225 25.6247 14.6011 16.9397 14.6011 9.39892C 14.6012 6.85984 13.7807 4.51722 12.2907 2.80182Z"/>
<path id="path8_fill" d="M 9.33519 -2.30455e-08C 4.18769 -2.30455e-08 -2.09808e-07 4.21629 -2.09808e-07 9.39886C -2.09808e-07 17.0967 8.26931 25.6699 8.62131 26.031C 8.80931 26.2239 9.06662 26.3326 9.33494 26.3326C 9.33619 26.3326 9.33737 26.3326 9.33862 26.3326C 9.60837 26.3317 9.86625 26.221 10.054 26.0256C 10.4058 25.6593 18.6703 16.9667 18.6704 9.39886C 18.6704 4.21629 14.4826 -2.30455e-08 9.33519 -2.30455e-08Z"/>
<path id="path9_fill" d="M 3.09938 6.24136C 4.81111 6.24136 6.19875 4.84419 6.19875 3.12068C 6.19875 1.39718 4.81111 0 3.09938 0C 1.38764 0 0 1.39718 0 3.12068C 0 4.84419 1.38764 6.24136 3.09938 6.24136Z"/>
<path id="path10_fill" d="M 1.83337 3.12068C 1.83337 1.71848 2.75194 0.532448 4.01638 0.138886C 3.72656 0.0486447 3.41887 4.9932e-08 3.09975 4.9932e-08C 1.38781 4.9932e-08 -3.89099e-07 1.39723 -3.89099e-07 3.12068C -3.89099e-07 4.84439 1.38781 6.24161 3.09975 6.24161C 3.41881 6.24161 3.72656 6.19291 4.01638 6.10273C 2.75194 5.70917 1.83337 4.52313 1.83337 3.12068Z"/>
</defs>
</svg>
