<svg width="28" height="32" viewBox="0 0 28 32" version="1.1" xmlns="http://www.w3.org/2000/svg" xmlns:xlink="http://www.w3.org/1999/xlink">
<title>plant</title>
<desc>Created using Figma</desc>
<g id="Canvas" transform="translate(-1868 -89)">
<g id="plant">
<g id="Vector">
<use xlink:href="#path0_fill" transform="translate(1880.72 99.2934)" fill="#009587"/>
</g>
<g id="Vector">
<use xlink:href="#path1_fill" transform="translate(1868 110.795)" fill="#795548"/>
</g>
<g id="Vector">
<use xlink:href="#path2_fill" transform="translate(1879.79 110.795)" fill="#6D4C41"/>
</g>
<g id="Group">
<g id="Vector">
<use xlink:href="#path3_fill" transform="translate(1874.14 116.183)" fill="#A0877F"/>
</g>
<g id="Vector">
<use xlink:href="#path4_fill" transform="translate(1879.27 115.155)" fill="#A0877F"/>
</g>
</g>
<g id="Vector">
<use xlink:href="#path5_fill" transform="translate(1879.78 89)" fill="#CCDB39"/>
</g>
<g id="Vector">
<use xlink:href="#path6_fill" transform="translate(1879.9 89.0001)" fill="#B8BF32"/>
</g>
<g id="Vector">
<use xlink:href="#path7_fill" transform="translate(1868.54 93.3101)" fill="#00C753"/>
</g>
<g id="Vector">
<use xlink:href="#path8_fill" transform="translate(1868.54 93.3927)" fill="#00B248"/>
</g>
</g>
</g>
<defs>
<path id="path0_fill" d="M 1.02137 13.5244C 0.457371 13.5244 4.1161e-07 13.0752 4.1161e-07 12.521L 4.1161e-07 1.00337C 4.1161e-07 0.449186 0.457307 4.57763e-07 1.02137 4.57763e-07C 1.58543 4.57763e-07 2.04274 0.449186 2.04274 1.00337L 2.04274 12.521C 2.04274 13.0752 1.58537 13.5244 1.02137 13.5244Z"/>
<path id="path1_fill" d="M 21.8549 1.721C 21.5569 1.721 21.2575 1.74331 20.9588 1.78762C 20.3369 1.08437 19.436 0.669437 18.4653 0.669437C 17.9658 0.669437 17.4728 0.784311 17.024 1.00037C 16.0239 0.351249 14.8477 -9.46043e-07 13.6408 -9.46043e-07C 12.493 -9.46043e-07 11.3947 0.308124 10.4277 0.89656C 10.0425 0.746935 9.63055 0.669498 9.20938 0.669498C 8.26435 0.669498 7.37341 1.07169 6.75024 1.75193C 6.54704 1.73131 6.34478 1.72106 6.14533 1.72106C 3.0865 1.721 -8.93116e-08 4.03393 -8.93116e-08 9.20155C -8.93116e-08 9.75555 0.457243 10.2049 1.02131 10.2049L 26.9786 10.2049C 27.5426 10.2049 28 9.75561 28 9.20149C 28 4.03387 24.9137 1.721 21.8549 1.721Z"/>
<path id="path2_fill" d="M 10.0663 1.721C 9.76829 1.721 9.46889 1.74331 9.17012 1.78762C 8.54823 1.08437 7.64736 0.669437 6.67663 0.669437C 6.17721 0.669437 5.68421 0.784311 5.23536 1.00037C 4.23524 0.351249 3.05902 -9.46043e-07 1.85219 -9.46043e-07C 1.21446 -9.46043e-07 0.593138 0.0985003 2.79584e-07 0.283875C 0.540078 0.452125 1.05687 0.691249 1.53301 1.00037C 1.98185 0.784311 2.47479 0.669437 2.97428 0.669437C 3.945 0.669437 4.84588 1.08437 5.46777 1.78762C 5.76647 1.74325 6.066 1.721 6.36393 1.721C 9.42276 1.721 12.5089 4.03393 12.5089 9.20155C 12.5089 9.75561 12.0516 10.2049 11.4876 10.2049L 15.1899 10.2049C 15.7539 10.2049 16.2113 9.75567 16.2113 9.20155C 16.2114 4.03387 13.1251 1.721 10.0663 1.721Z"/>
<path id="path3_fill" d="M 0.765995 1.49318C 0.561518 1.49318 0.367538 1.41293 0.224646 1.27237C 0.0815624 1.13193 0 0.941308 0 0.740621C 0 0.544934 0.0815624 0.349309 0.224646 0.208809C 0.510622 -0.0721277 1.02131 -0.0670653 1.30709 0.208809C 1.45017 0.349309 1.53199 0.544934 1.53199 0.740621C 1.53199 0.941308 1.45017 1.13193 1.30709 1.27237C 1.1642 1.41287 0.965001 1.49318 0.765995 1.49318Z"/>
<path id="path4_fill" d="M 0.765996 1.49302C 0.561773 1.49302 0.362575 1.41277 0.224645 1.27733C 0.0817527 1.13683 4.7374e-07 0.941206 4.7374e-07 0.740518C 4.7374e-07 0.544831 0.0818164 0.349207 0.224645 0.208832C 0.505404 -0.0671046 1.02131 -0.0721046 1.30735 0.208832C 1.45024 0.34927 1.53199 0.544956 1.53199 0.740518C 1.53199 0.941206 1.45017 1.13183 1.30735 1.27233C 1.16426 1.41277 0.965256 1.49302 0.765996 1.49302Z"/>
<path id="path5_fill" d="M 14.2235 0.987924C 14.2148 0.442925 13.765 0.00417571 13.2099 5.07164e-05C 12.9025 -0.000886782 5.33264 -0.0195117 1.84571 3.40598C 0.65555 4.57517 -2.17454e-07 6.12942 -2.17454e-07 7.78291C -2.17454e-07 9.43641 0.65555 10.9909 1.84571 12.1598C 3.07403 13.3665 4.68759 13.9701 6.30114 13.9698C 7.91469 13.9698 9.52825 13.3665 10.7566 12.1598C 14.3025 8.67647 14.2283 1.3003 14.2235 0.987924Z"/>
<path id="path6_fill" d="M 14.1083 0.987873C 14.0996 0.442874 13.6497 0.00412499 13.0947 2.96851e-12C 13.0779 2.96851e-12 13.0357 -2.91038e-11 12.9774 0.00025C 12.8263 2.39275 12.1903 7.12655 9.55618 9.71411C 8.32785 10.9208 6.7143 11.5241 5.10074 11.5241C 3.48719 11.5244 1.87364 10.9208 0.645307 9.71411C 0.40622 9.47942 0.194998 9.22517 7.76622e-08 8.96161C 0.23527 10.1658 0.828472 11.2738 1.73055 12.1598C 2.95888 13.3665 4.57243 13.97 6.18599 13.9698C 7.79954 13.9698 9.41309 13.3665 10.6414 12.1598C 14.1873 8.67642 14.1131 1.30025 14.1083 0.987873Z"/>
<path id="path7_fill" d="M 12.3786 3.40616C 8.8922 -0.0183367 1.32685 -0.00289946 1.01441 0.000225539C 0.459382 0.00441303 0.00951836 0.4431 0.000802293 0.988162C -0.00390565 1.30047 -0.0782146 8.67671 3.46782 12.16C 4.65798 13.3292 6.2401 13.9732 7.92326 13.9732C 7.92351 13.9732 7.92326 13.9732 7.92351 13.9732C 9.60635 13.9732 11.1888 13.3292 12.3787 12.1603C 13.5688 10.9911 14.2244 9.43652 14.2244 7.78309C 14.2243 6.12984 13.5688 4.57534 12.3786 3.40616Z"/>
<path id="path8_fill" d="M 12.8893 8.94217C 11.6994 10.1111 10.117 10.7551 8.43414 10.7551C 8.43389 10.7551 8.43414 10.7551 8.43389 10.7551C 6.7508 10.7551 5.16861 10.1111 3.97845 8.94192C 1.60387 6.60943 0.853588 2.53356 0.617808 -1.7929e-07C 0.25975 0.151875 0.00723866 0.498999 0.000812949 0.905624C -0.00395862 1.21794 -0.0782675 8.59411 3.46783 12.0774C 4.65799 13.2466 6.24011 13.8906 7.92327 13.8906C 7.92352 13.8906 7.92327 13.8906 7.92352 13.8906C 9.60636 13.8906 11.1888 13.2466 12.3787 12.0777C 13.5689 10.9085 14.2244 9.35392 14.2244 7.70049C 14.2244 7.48955 14.2132 7.28043 14.192 7.07318C 13.8814 7.76024 13.4466 8.39467 12.8893 8.94217Z"/>
</defs>
</svg>
