<svg width="32" height="30" viewBox="0 0 32 30" version="1.1" xmlns="http://www.w3.org/2000/svg" xmlns:xlink="http://www.w3.org/1999/xlink">
<title>electricity</title>
<desc>Created using Figma</desc>
<g id="Canvas" transform="translate(-1866 -224)">
<g id="electricity">
<g id="Group">
<g id="Vector">
<use xlink:href="#path0_fill" transform="translate(1887.13 224)" fill="#AFBDC4"/>
</g>
<g id="Vector">
<use xlink:href="#path1_fill" transform="translate(1892.8 224)" fill="#AFBDC4"/>
</g>
</g>
<g id="Group">
<g id="Vector">
<use xlink:href="#path2_fill" transform="translate(1888.45 224)" fill="#8FA3AD"/>
</g>
<g id="Vector">
<use xlink:href="#path3_fill" transform="translate(1894.12 224)" fill="#8FA3AD"/>
</g>
</g>
<g id="Vector">
<use xlink:href="#path4_fill" transform="translate(1870.79 225.372)" fill="#3F51B4"/>
</g>
<g id="Vector">
<use xlink:href="#path5_fill" transform="translate(1866 237.935)" fill="#CCDB39"/>
</g>
<g id="Vector">
<use xlink:href="#path6_fill" transform="translate(1870.59 237.935)" fill="#B5BC2B"/>
</g>
<g id="Vector">
<use xlink:href="#path7_fill" transform="translate(1885.63 229.047)" fill="#00BBD3"/>
</g>
<g id="Vector">
<use xlink:href="#path8_fill" transform="translate(1890.99 229.047)" fill="#029EAA"/>
</g>
</g>
</g>
<defs>
<path id="path0_fill" d="M 1.85031 8.72969e-09C 0.829999 8.72969e-09 4.57764e-07 0.844242 4.57764e-07 1.88192L 4.57764e-07 6.06372C 4.57764e-07 6.48486 0.335688 6.82653 0.75 6.82653L 2.95044 6.82653C 3.36475 6.82653 3.70044 6.48486 3.70044 6.06372L 3.70044 1.88198C 3.70044 0.844306 2.87062 8.72969e-09 1.85031 8.72969e-09Z"/>
<path id="path1_fill" d="M 1.85031 8.72969e-09C 0.830001 8.72969e-09 1.37329e-07 0.844242 1.37329e-07 1.88192L 1.37329e-07 6.06372C 1.37329e-07 6.48486 0.335688 6.82653 0.75 6.82653L 2.95044 6.82653C 3.36475 6.82653 3.70044 6.48486 3.70044 6.06372L 3.70044 1.88198C 3.70044 0.844306 2.87063 8.72969e-09 1.85031 8.72969e-09Z"/>
<path id="path2_fill" d="M 0.531249 8.72969e-09C 0.345312 8.72969e-09 0.169437 0.0364879 -7.62939e-07 0.0886769C 0.760249 0.322606 1.31881 1.03323 1.31881 1.88198L 1.31881 6.06378C 1.31881 6.48492 0.983125 6.8266 0.568813 6.8266L 1.63131 6.8266C 2.04563 6.8266 2.38131 6.48492 2.38131 6.06378L 2.38131 1.88198C 2.38138 0.844306 1.55156 8.72969e-09 0.531249 8.72969e-09Z"/>
<path id="path3_fill" d="M 0.531251 8.72969e-09C 0.345313 8.72969e-09 0.169438 0.0364879 8.23975e-07 0.0886769C 0.760251 0.322606 1.31881 1.03323 1.31881 1.88198L 1.31881 6.06378C 1.31881 6.48492 0.983125 6.8266 0.568812 6.8266L 1.63131 6.8266C 2.04562 6.8266 2.38131 6.48492 2.38131 6.06378L 2.38131 1.88198C 2.38137 0.844306 1.55156 8.72969e-09 0.531251 8.72969e-09Z"/>
<path id="path4_fill" d="M 16.0454 23.3815C 12.7444 23.3815 10.0589 20.65 10.0589 17.2927L 10.0589 6.0887C 10.0589 3.85303 8.2705 2.03417 6.0725 2.03417L 5.98656 2.03417C 3.78831 2.03417 2 3.85309 2 6.08883L 2 13.8609C 2 14.4226 1.55225 14.8779 1 14.8779C 0.44775 14.8779 -2.21252e-07 14.4226 -2.21252e-07 13.8609L -2.21252e-07 6.08883C -2.21252e-07 2.73138 2.68556 1.04756e-07 5.98656 1.04756e-07L 6.0725 1.04756e-07C 9.37331 1.04756e-07 12.0588 2.73138 12.0588 6.0887L 12.0588 17.2927C 12.0588 19.5284 13.8472 21.3473 16.0454 21.3473C 18.2436 21.3472 20.0319 19.5284 20.0319 17.2926L 20.0319 11.2476C 20.0319 10.6859 20.4797 10.2305 21.0319 10.2305C 21.5842 10.2305 22.0319 10.6859 22.0319 11.2476L 22.0319 17.2926C 22.032 20.6499 19.3464 23.3815 16.0454 23.3815Z"/>
<path id="path5_fill" d="M 5.843 1.39675e-07L 5.84275 1.39675e-07C 4.28219 1.39675e-07 2.81494 0.618068 1.71144 1.74042C 0.607937 2.86277 0 4.35515 0 5.94256C 0 10.6476 4.93675 15.5708 5.14694 15.7779C 5.34081 15.9694 5.592 16.065 5.843 16.065C 6.09669 16.065 6.35006 15.9674 6.54469 15.7725C 6.75469 15.5624 11.6862 10.5696 11.6862 5.94281C 11.6862 2.66616 9.06494 1.39675e-07 5.843 1.39675e-07Z"/>
<path id="path6_fill" d="M 1.25331 1.39675e-07L 1.25306 1.39675e-07C 0.826875 1.39675e-07 0.409 0.0501552 0.00231251 0.14004C 2.62562 0.723782 4.59656 3.10242 4.59656 5.94281C 4.59656 9.70945 1.32862 13.7182 -1.52588e-07 15.1919C 0.310312 15.5324 0.517687 15.7389 0.55725 15.7779C 0.751125 15.9694 1.00231 16.065 1.25331 16.065C 1.507 16.065 1.76037 15.9674 1.955 15.7725C 2.165 15.5624 7.09656 10.5696 7.09656 5.94281C 7.09656 2.66616 4.47525 1.39675e-07 1.25331 1.39675e-07Z"/>
<path id="path7_fill" d="M 11.3658 -1.86233e-07L 1 -1.86233e-07C 0.447751 -1.86233e-07 6.40869e-07 0.455144 6.40869e-07 1.01708L 6.40869e-07 3.60842C 6.40869e-07 6.31278 2.16306 8.51279 4.822 8.51279L 7.54369 8.51279C 10.2026 8.51279 12.3657 6.31278 12.3657 3.60842L 12.3657 1.01708C 12.3658 0.455144 11.9179 -1.86233e-07 11.3658 -1.86233e-07Z"/>
<path id="path8_fill" d="M 6.0095 -1.86233e-07L 3.822 -1.86233e-07C 4.37425 -1.86233e-07 4.822 0.455144 4.822 1.01708L 4.822 3.60842C 4.822 6.31278 2.65894 8.51279 -5.0354e-07 8.51279L 2.1875 8.51279C 4.84644 8.51279 7.0095 6.31278 7.0095 3.60842L 7.0095 1.01708C 7.0095 0.455144 6.56169 -1.86233e-07 6.0095 -1.86233e-07Z"/>
</defs>
</svg>
