<svg width="32" height="32" viewBox="0 0 32 32" version="1.1" xmlns="http://www.w3.org/2000/svg" xmlns:xlink="http://www.w3.org/1999/xlink">
<title>calendar</title>
<desc>Created using Figma</desc>
<g id="Canvas" transform="translate(-1866 56)">
<g id="calendar">
<g id="Vector">
<use xlink:href="#path0_fill" transform="translate(1866 -53.5534)" fill="#FE5722"/>
</g>
<g id="Vector">
<use xlink:href="#path1_fill" transform="translate(1892.76 -53.5534)" fill="#F34336"/>
</g>
<g id="Vector">
<use xlink:href="#path2_fill" transform="translate(1866 -53.5534)" fill="#C52828"/>
</g>
<g id="Vector">
<use xlink:href="#path3_fill" transform="translate(1892.76 -53.5534)" fill="#B61C1C"/>
</g>
<g id="Group">
<g id="Vector">
<use xlink:href="#path4_fill" transform="translate(1869.92 -56)" fill="#9B1818"/>
</g>
<g id="Vector">
<use xlink:href="#path5_fill" transform="translate(1892.08 -56)" fill="#9B1818"/>
</g>
</g>
<g id="Group">
<g id="Vector">
<use xlink:href="#path6_fill" transform="translate(1889.26 -44.588)" fill="#FEC007"/>
</g>
<g id="Vector">
<use xlink:href="#path7_fill" transform="translate(1882.92 -44.588)" fill="#FEC007"/>
</g>
<g id="Vector">
<use xlink:href="#path8_fill" transform="translate(1876.58 -44.588)" fill="#FEC007"/>
</g>
<g id="Vector">
<use xlink:href="#path9_fill" transform="translate(1870.24 -44.588)" fill="#FEC007"/>
</g>
<g id="Vector">
<use xlink:href="#path10_fill" transform="translate(1889.26 -38.2728)" fill="#FEC007"/>
</g>
<g id="Vector">
<use xlink:href="#path11_fill" transform="translate(1876.58 -38.2728)" fill="#FEC007"/>
</g>
<g id="Vector">
<use xlink:href="#path12_fill" transform="translate(1870.24 -38.2728)" fill="#FEC007"/>
</g>
<g id="Vector">
<use xlink:href="#path13_fill" transform="translate(1889.26 -31.9578)" fill="#FEC007"/>
</g>
<g id="Vector">
<use xlink:href="#path14_fill" transform="translate(1882.92 -31.9578)" fill="#FEC007"/>
</g>
<g id="Vector">
<use xlink:href="#path15_fill" transform="translate(1876.58 -31.9578)" fill="#FEC007"/>
</g>
<g id="Vector">
<use xlink:href="#path16_fill" transform="translate(1870.24 -31.9578)" fill="#FEC007"/>
</g>
</g>
<g id="Vector">
<use xlink:href="#path17_fill" transform="translate(1882.75 -38.3449)" fill="#FFFFFF"/>
</g>
</g>
</g>
<defs>
<path id="path0_fill" d="M 31 5.20787e-08L 1 5.20787e-08C 0.44775 5.20787e-08 0 0.452795 0 1.01127L 0 6.42313L 0 28.5422C 0 29.1009 0.44775 29.5534 1 29.5534L 31 29.5534C 31.5522 29.5534 32 29.1009 32 28.5422L 32 6.4232L 32 1.01127C 32 0.452795 31.5522 5.20787e-08 31 5.20787e-08Z"/>
<path id="path1_fill" d="M 4.24244 5.20787e-08L 1.37329e-07 5.20787e-08C 0.55225 5.20787e-08 1 0.452795 1 1.01127L 1 6.42313L 1 28.5422C 1 29.1009 0.55225 29.5534 1.37329e-07 29.5534L 4.24244 29.5534C 4.79469 29.5534 5.24244 29.1009 5.24244 28.5422L 5.24244 6.4232L 5.24244 1.01127C 5.24244 0.452795 4.79469 5.20787e-08 4.24244 5.20787e-08Z"/>
<path id="path2_fill" d="M 32 1.01127C 32 0.452795 31.5522 5.20787e-08 31 5.20787e-08L 1 5.20787e-08C 0.44775 5.20787e-08 0 0.452795 0 1.01127L 0 6.42313L 32 6.42313L 32 1.01127Z"/>
<path id="path3_fill" d="M 4.24244 5.20787e-08L 1.37329e-07 5.20787e-08C 0.55225 5.20787e-08 1 0.452795 1 1.01127L 1 6.42313L 5.24244 6.42313L 5.24244 1.01127C 5.24244 0.452795 4.79469 5.20787e-08 4.24244 5.20787e-08Z"/>
<path id="path4_fill" d="M 1 7.16319C 0.44775 7.16319 -4.57764e-08 6.71046 -4.57764e-08 6.15192L -4.57764e-08 1.01127C -4.57764e-08 0.452732 0.44775 -1.20553e-10 1 -1.20553e-10C 1.55225 -1.20553e-10 2 0.452732 2 1.01127L 2 6.15192C 2 6.71046 1.55225 7.16319 1 7.16319Z"/>
<path id="path5_fill" d="M 1 7.16319C 0.44775 7.16319 4.57764e-08 6.71046 4.57764e-08 6.15192L 4.57764e-08 1.01127C 4.57764e-08 0.452732 0.44775 -1.20553e-10 1 -1.20553e-10C 1.55225 -1.20553e-10 2 0.452732 2 1.01127L 2 6.15192C 2 6.71046 1.55225 7.16319 1 7.16319Z"/>
<path id="path6_fill" d="M 2.25 -2.1603e-07C 1.00931 -2.1603e-07 1.37329e-07 1.02094 1.37329e-07 2.27535C 1.37329e-07 3.53002 1.00931 4.55071 2.25 4.55071C 3.49069 4.55071 4.5 3.53002 4.5 2.27535C 4.5 1.02087 3.49075 -2.1603e-07 2.25 -2.1603e-07Z"/>
<path id="path7_fill" d="M 2.25 -2.1603e-07C 1.00931 -2.1603e-07 4.57764e-08 1.02094 4.57764e-08 2.27535C 4.57764e-08 3.53002 1.00931 4.55071 2.25 4.55071C 3.49069 4.55071 4.5 3.53002 4.5 2.27535C 4.5 1.02087 3.49075 -2.1603e-07 2.25 -2.1603e-07Z"/>
<path id="path8_fill" d="M 2.25 -2.1603e-07C 1.00931 -2.1603e-07 -4.57764e-08 1.02094 -4.57764e-08 2.27535C -4.57764e-08 3.53002 1.00931 4.55071 2.25 4.55071C 3.49069 4.55071 4.5 3.53002 4.5 2.27535C 4.5 1.02087 3.49075 -2.1603e-07 2.25 -2.1603e-07Z"/>
<path id="path9_fill" d="M 2.25 -2.1603e-07C 1.00931 -2.1603e-07 -1.37329e-07 1.02094 -1.37329e-07 2.27535C -1.37329e-07 3.53002 1.00931 4.55071 2.25 4.55071C 3.49069 4.55071 4.5 3.53002 4.5 2.27535C 4.5 1.02087 3.49069 -2.1603e-07 2.25 -2.1603e-07Z"/>
<path id="path10_fill" d="M 2.25 -2.62322e-07C 1.00931 -2.62322e-07 1.37329e-07 1.02069 1.37329e-07 2.27535C 1.37329e-07 3.53002 1.00931 4.55071 2.25 4.55071C 3.49069 4.55071 4.5 3.53002 4.5 2.27535C 4.5 1.02062 3.49075 -2.62322e-07 2.25 -2.62322e-07Z"/>
<path id="path11_fill" d="M 2.25 -2.62322e-07C 1.00931 -2.62322e-07 -4.57764e-08 1.02069 -4.57764e-08 2.27535C -4.57764e-08 3.53002 1.00931 4.55071 2.25 4.55071C 3.49069 4.55071 4.5 3.53002 4.5 2.27535C 4.5 1.02062 3.49075 -2.62322e-07 2.25 -2.62322e-07Z"/>
<path id="path12_fill" d="M 2.25 -2.62322e-07C 1.00931 -2.62322e-07 -1.37329e-07 1.02069 -1.37329e-07 2.27535C -1.37329e-07 3.53002 1.00931 4.55071 2.25 4.55071C 3.49069 4.55071 4.5 3.53002 4.5 2.27535C 4.5 1.02062 3.49069 -2.62322e-07 2.25 -2.62322e-07Z"/>
<path id="path13_fill" d="M 2.25 -1.69738e-07C 1.00931 -1.69738e-07 1.37329e-07 1.02094 1.37329e-07 2.27535C 1.37329e-07 3.53002 1.00931 4.55071 2.25 4.55071C 3.49069 4.55071 4.5 3.53002 4.5 2.27535C 4.5 1.02094 3.49075 -1.69738e-07 2.25 -1.69738e-07Z"/>
<path id="path14_fill" d="M 2.25 -1.69738e-07C 1.00931 -1.69738e-07 4.57764e-08 1.02094 4.57764e-08 2.27535C 4.57764e-08 3.53002 1.00931 4.55071 2.25 4.55071C 3.49069 4.55071 4.5 3.53002 4.5 2.27535C 4.5 1.02094 3.49075 -1.69738e-07 2.25 -1.69738e-07Z"/>
<path id="path15_fill" d="M 2.25 -1.69738e-07C 1.00931 -1.69738e-07 -4.57764e-08 1.02094 -4.57764e-08 2.27535C -4.57764e-08 3.53002 1.00931 4.55071 2.25 4.55071C 3.49069 4.55071 4.5 3.53002 4.5 2.27535C 4.5 1.02094 3.49075 -1.69738e-07 2.25 -1.69738e-07Z"/>
<path id="path16_fill" d="M 2.25 -1.69738e-07C 1.00931 -1.69738e-07 -1.37329e-07 1.02094 -1.37329e-07 2.27535C -1.37329e-07 3.53002 1.00931 4.55071 2.25 4.55071C 3.49069 4.55071 4.5 3.53002 4.5 2.27535C 4.5 1.02094 3.49069 -1.69738e-07 2.25 -1.69738e-07Z"/>
<path id="path17_fill" d="M 3.75 2.93184e-07L 0.75 2.93184e-07C 0.335687 2.93184e-07 0 0.339723 0 0.758451L 0 3.79226C 0 4.21098 0.335687 4.55071 0.75 4.55071L 3.75 4.55071C 4.16431 4.55071 4.5 4.21098 4.5 3.79226L 4.5 0.758451C 4.5 0.339723 4.16431 2.93184e-07 3.75 2.93184e-07Z"/>
</defs>
</svg>
