<svg width="20" height="15" viewBox="0 0 20 15" version="1.1" xmlns="http://www.w3.org/2000/svg" xmlns:xlink="http://www.w3.org/1999/xlink">
<title>006-youtube</title>
<desc>Created using Figma</desc>
<g id="Canvas" transform="translate(469 -262)">
<g id="006-youtube">
<g id="Vector">
<use xlink:href="#path0_fill" transform="translate(-469 262.941)" fill="#FFFFFF"/>
</g>
</g>
</g>
<defs>
<path id="path0_fill" d="M 19.2204 1.20179C 18.4985 0.348169 17.1656 -9.96008e-08 14.62 -9.96008e-08L 5.37971 -9.96008e-08C 2.77593 -9.96008e-08 1.42043 0.370665 0.701209 1.27946C 0 2.16548 0 3.47104 0 5.27802L 0 8.72202C 0 12.2226 0.83199 14 5.37971 14L 14.6201 14C 16.8276 14 18.0508 13.6927 18.8421 12.9394C 19.6537 12.167 19.9999 10.9056 19.9999 8.72202L 19.9999 5.27802C 19.9999 3.37243 19.9457 2.05917 19.2204 1.20179ZM 12.84 7.47547L 8.64404 9.65673C 8.55025 9.70549 8.44763 9.72969 8.34521 9.72969C 8.2292 9.72969 8.11346 9.69865 8.01096 9.63691C 7.81791 9.52058 7.70006 9.31244 7.70006 9.08798L 7.70006 4.73947C 7.70006 4.5154 7.8176 4.30745 8.01025 4.19104C 8.20295 4.07464 8.44263 4.06667 8.64256 4.16999L 12.8386 6.33717C 13.052 6.4474 13.1861 6.66662 13.1864 6.9058C 13.1867 7.14522 13.0532 7.36474 12.84 7.47547Z"/>
</defs>
</svg>
