<svg width="20" height="12" viewBox="0 0 20 12" version="1.1" xmlns="http://www.w3.org/2000/svg" xmlns:xlink="http://www.w3.org/1999/xlink">
<title>005-vk</title>
<desc>Created using Figma</desc>
<g id="Canvas" transform="translate(434 -264)">
<g id="005-vk">
<g id="Vector">
<use xlink:href="#path0_fill" transform="translate(-434 264.412)" fill="#FFFFFF"/>
</g>
</g>
</g>
<defs>
<path id="path0_fill" d="M 17.2128 6.99434C 17.8762 7.62387 18.5764 8.21611 19.1715 8.90912C 19.4343 9.21709 19.6831 9.53485 19.8735 9.89225C 20.1433 10.4003 19.899 10.9594 19.4303 10.9897L 16.5166 10.9884C 15.7651 11.049 15.1656 10.755 14.6616 10.2556C 14.2582 9.85626 13.8846 9.43124 13.4967 9.01842C 13.3377 8.8497 13.1712 8.69094 12.9724 8.56543C 12.5746 8.31452 12.2294 8.39132 12.0021 8.7945C 11.7706 9.2046 11.718 9.65865 11.6953 10.1157C 11.6641 10.7825 11.4567 10.9578 10.7675 10.9883C 9.29469 11.0558 7.89689 10.8393 6.59833 10.1171C 5.45349 9.48056 4.56576 8.58183 3.79303 7.56442C 2.28862 5.58332 1.13647 3.40636 0.101008 1.16843C -0.132077 0.664226 0.038391 0.393577 0.610811 0.383972C 1.56132 0.366015 2.5117 0.367306 3.46334 0.382682C 3.84967 0.388187 4.10541 0.603521 4.25459 0.958223C 4.76885 2.18717 5.3981 3.3564 6.18795 4.44017C 6.3983 4.7287 6.61279 5.01727 6.91818 5.22034C 7.25607 5.4452 7.51333 5.37068 7.67228 5.00485C 7.77314 4.77289 7.81732 4.52305 7.84005 4.27465C 7.91536 3.41995 7.92528 2.5667 7.79321 1.71501C 7.71212 1.18347 7.40408 0.839356 6.85833 0.738788C 6.57986 0.687498 6.6213 0.586779 6.75615 0.432301C 6.99033 0.165867 7.2106 -4.1709e-08 7.6497 -4.1709e-08L 10.9426 -4.1709e-08C 11.461 0.0994289 11.5761 0.325773 11.6471 0.832712L 11.6499 4.38759C 11.6442 4.58383 11.7507 5.16624 12.1145 5.29612C 12.4055 5.3886 12.5974 5.16225 12.7721 4.98287C 13.5605 4.16964 14.1232 3.20853 14.6259 2.21333C 14.849 1.77571 15.0408 1.32128 15.2267 0.867184C 15.3644 0.530249 15.5806 0.364459 15.9711 0.371786L 19.1403 0.374519C 19.2343 0.374519 19.3294 0.375848 19.4204 0.390996C 19.9544 0.479453 20.1008 0.702722 19.9358 1.20955C 19.6759 2.00471 19.1703 2.66738 18.6758 3.33309C 18.1473 4.04382 17.5821 4.73026 17.058 5.4452C 16.5764 6.09819 16.6146 6.42727 17.2128 6.99434Z"/>
</defs>
</svg>
