<svg width="20" height="17" viewBox="0 0 20 17" version="1.1" xmlns="http://www.w3.org/2000/svg" xmlns:xlink="http://www.w3.org/1999/xlink">
<title>007-twitter</title>
<desc>Created using Figma</desc>
<g id="Canvas" transform="translate(504 -261)">
<g id="007-twitter">
<g id="Vector">
<use xlink:href="#path0_fill" transform="translate(-504 261.765)" fill="#FFFFFF"/>
</g>
</g>
</g>
<defs>
<path id="path0_fill" d="M 19.5468 1.84653C 19.2326 1.98268 18.9095 2.0976 18.5795 2.19092C 18.9702 1.75908 19.2682 1.25098 19.45 0.694977C 19.4908 0.570356 19.4486 0.433941 19.3437 0.352412C 19.239 0.270846 19.0935 0.261074 18.9782 0.327831C 18.2773 0.734061 17.521 1.02601 16.7281 1.19671C 15.9293 0.434055 14.8444 -6.75594e-08 13.7228 -6.75594e-08C 11.3554 -6.75594e-08 9.42937 1.88195 9.42937 4.19513C 9.42937 4.37731 9.44116 4.55849 9.46452 4.73716C 6.5268 4.48513 3.79563 3.07423 1.92017 0.826277C 1.85333 0.746161 1.75036 0.702954 1.64493 0.711237C 1.53947 0.71929 1.44466 0.777421 1.39138 0.866774C 1.01099 1.50454 0.809898 2.23398 0.809898 2.97617C 0.809898 3.98703 1.17923 4.9461 1.83169 5.69554C 1.63329 5.6284 1.44079 5.54451 1.25704 5.44485C 1.15841 5.39118 1.03802 5.39202 0.940014 5.44691C 0.841968 5.50184 0.780484 5.60279 0.777866 5.71318C 0.777398 5.73176 0.777398 5.75035 0.777398 5.76921C 0.777398 7.27806 1.60849 8.63652 2.87915 9.37692C 2.76997 9.36627 2.66091 9.35081 2.55251 9.33058C 2.44075 9.3097 2.32587 9.34799 2.25052 9.43127C 2.17505 9.51448 2.15005 9.63047 2.18485 9.73639C 2.65517 11.1712 3.86606 12.2265 5.32992 12.5483C 4.11579 13.2914 2.72735 13.6806 1.26982 13.6806C 0.965678 13.6806 0.65982 13.6631 0.360485 13.6285C 0.211774 13.6112 0.069587 13.697 0.018923 13.8352C -0.0317409 13.9735 0.0219699 14.1276 0.148454 14.2068C 2.02091 15.3799 4.18598 16 6.40953 16C 10.7807 16 13.5153 13.9859 15.0394 12.2962C 16.9401 10.1893 18.0301 7.40065 18.0301 4.64525C 18.0301 4.53014 18.0283 4.41391 18.0247 4.29803C 18.7746 3.746 19.4202 3.07789 19.9455 2.31001C 20.0253 2.19341 20.0167 2.03924 19.9242 1.93191C 19.832 1.82439 19.6781 1.78966 19.5468 1.84653Z"/>
</defs>
</svg>
