<svg width="20" height="14" viewBox="0 0 20 14" version="1.1" xmlns="http://www.w3.org/2000/svg" xmlns:xlink="http://www.w3.org/1999/xlink">
<title>004-google-plus</title>
<desc>Created using Figma</desc>
<g id="Canvas" transform="translate(399 -263)">
<g id="004-google-plus">
<g id="Group">
<g id="Vector">
<use xlink:href="#path0_fill" transform="translate(-385.114 266.982)" fill="#FFFFFF"/>
</g>
<g id="Vector">
<use xlink:href="#path1_fill" transform="translate(-399 263.529)" fill="#FFFFFF"/>
</g>
</g>
</g>
</g>
<defs>
<path id="path0_fill" d="M 5.63795 1.7366L 4.38139 1.7366L 4.38139 0.477212C 4.38139 0.213591 4.16827 1.67257e-07 3.90522 1.67257e-07L 2.2089 1.67257e-07C 1.94585 1.67257e-07 1.73273 0.213591 1.73273 0.477212L 1.73273 1.7366L 0.476171 1.7366C 0.213124 1.7366 -1.23977e-07 1.95019 -1.23977e-07 2.21381L -1.23977e-07 3.91384C -1.23977e-07 4.17746 0.213124 4.39105 0.476171 4.39105L 1.73273 4.39105L 1.73273 5.65043C 1.73273 5.91398 1.94585 6.12764 2.2089 6.12764L 3.90522 6.12764C 4.16827 6.12764 4.38139 5.91398 4.38139 5.65043L 4.38139 4.39105L 5.63795 4.39105C 5.901 4.39105 6.11412 4.17746 6.11412 3.91384L 6.11412 2.21381C 6.11416 1.95019 5.901 1.7366 5.63795 1.7366Z"/>
<path id="path1_fill" d="M 6.47022 3.10598C 7.04725 3.10598 7.60182 3.26187 8.0749 3.55693L 8.61541 3.92758C 8.80381 4.05677 9.0572 4.03391 9.21947 3.87281L 10.7958 2.30776C 10.8967 2.20762 10.9477 2.06763 10.9349 1.92591C 10.9222 1.7842 10.847 1.6556 10.73 1.57511L 9.8138 0.945419C 9.79513 0.932618 9.77552 0.921108 9.75525 0.911125L 8.86771 0.471966C 8.85595 0.466093 8.84396 0.460769 8.83177 0.455915C 8.06721 0.15342 7.2617 -1.00354e-07 6.43764 -1.00354e-07C 4.73878 -1.00354e-07 3.13632 0.653494 1.92539 1.83987C 0.69578 3.04464 0.0119539 4.68294 0.00015704 6.453C -0.0117179 8.22346 0.650233 9.87123 1.86398 11.0927C 3.06831 12.3048 4.77694 13 6.55186 13C 8.30791 13 9.95552 12.3167 11.0722 11.1253C 11.9566 10.1816 12.4995 8.92104 12.6421 7.47997C 12.6434 7.4663 12.6443 7.4526 12.6444 7.43894L 12.6609 6.14436C 12.6613 6.11758 12.6594 6.09085 12.6552 6.06438L 12.586 5.62197C 12.5498 5.38979 12.3501 5.21863 12.1156 5.21863L 6.6126 5.21863C 6.34955 5.21863 6.13643 5.4323 6.13643 5.69585L 6.13643 7.60363C 6.13643 7.86718 6.34955 8.08085 6.6126 8.08085L 9.41806 8.08085C 9.28951 8.3633 9.08689 8.66117 8.83068 8.93873C 8.27189 9.54438 7.43857 9.89174 6.54432 9.89174C 5.63112 9.89174 4.75659 9.53311 4.14495 8.90788C 2.87183 7.60677 2.8864 5.33968 4.17601 4.05638C 4.78311 3.45244 5.6194 3.10598 6.47022 3.10598Z"/>
</defs>
</svg>
