<svg width="20" height="19" viewBox="0 0 20 19" version="1.1" xmlns="http://www.w3.org/2000/svg" xmlns:xlink="http://www.w3.org/1999/xlink">
<title>003-telegram</title>
<desc>Created using Figma</desc>
<g id="Canvas" transform="translate(364 -261)">
<g id="003-telegram">
<g id="Vector">
<use xlink:href="#path0_fill" transform="translate(-357.973 264.879)" fill="#FFFFFF"/>
</g>
<g id="Vector">
<use xlink:href="#path1_fill" transform="translate(-364 261.176)" fill="#FFFFFF"/>
</g>
</g>
</g>
<defs>
<path id="path0_fill" d="M 0.431058 5.75998L 9.43756 0.0259857C 9.59943 -0.0767777 9.76596 0.149463 9.62697 0.282753L 2.19398 7.42487C 1.93273 7.67627 1.76418 8.0127 1.71645 8.37789L 1.46324 10.3175C 1.42973 10.5765 1.07778 10.6022 1.00863 10.3515L 0.034848 6.81459C -0.0766751 6.41113 0.0858637 5.98025 0.431058 5.75998Z"/>
<path id="path1_fill" d="M 0.35324 8.6309L 4.96163 10.4088L 6.74537 16.3386C 6.85951 16.7184 7.30877 16.8588 7.60697 16.6068L 10.1758 14.4421C 10.445 14.2153 10.8286 14.2039 11.11 14.4151L 15.7432 17.8922C 16.0621 18.1319 16.5141 17.9512 16.5941 17.5528L 19.9881 0.676688C 20.0755 0.241448 19.6617 -0.121676 19.2608 0.0386264L 0.34785 7.58045C -0.118868 7.76652 -0.114805 8.44956 0.35324 8.6309ZM 6.45791 9.46237L 15.4644 3.72838C 15.6263 3.62561 15.7928 3.85186 15.6538 3.98515L 8.22084 11.1273C 7.95959 11.3787 7.79103 11.7151 7.7433 12.0803L 7.4901 14.0199C 7.45658 14.2789 7.10463 14.3046 7.03549 14.0539L 6.0617 10.517C 5.95018 10.1135 6.11272 9.68264 6.45791 9.46237Z"/>
</defs>
</svg>
