<svg width="10" height="20" viewBox="0 0 10 20" version="1.1" xmlns="http://www.w3.org/2000/svg" xmlns:xlink="http://www.w3.org/1999/xlink">
<title>008-facebook</title>
<desc>Created using Figma</desc>
<g id="Canvas" transform="translate(529 -260)">
<g id="008-facebook">
<g id="Vector">
<use xlink:href="#path0_fill" transform="translate(-529 260)" fill="#FFFFFF"/>
</g>
</g>
</g>
<defs>
<path id="path0_fill" d="M 0.31933 10.652L 2.4893 10.652L 2.4893 19.6774C 2.4893 19.8556 2.6322 20 2.80859 20L 6.48787 20C 6.66426 20 6.80716 19.8556 6.80716 19.6774L 6.80716 10.6945L 9.30176 10.6945C 9.46395 10.6945 9.60044 10.5716 9.61896 10.4088L 9.99783 7.08609C 10.0082 6.99469 9.97958 6.90313 9.91904 6.83453C 9.85845 6.7659 9.77172 6.7266 9.68071 6.7266L 6.80732 6.7266L 6.80732 4.64375C 6.80732 4.0159 7.14192 3.6975 7.802 3.6975C 7.89607 3.6975 9.68071 3.6975 9.68071 3.6975C 9.85709 3.6975 10 3.55305 10 3.37492L 10 0.324961C 10 0.146758 9.85709 0.00238281 9.68071 0.00238281L 7.09154 0.00238281C 7.07329 0.00148437 7.03273 0 6.97295 0C 6.52371 0 4.96217 0.0891015 3.72865 1.23555C 2.36194 2.50602 2.55194 4.02715 2.59733 4.2909L 2.59733 6.72652L 0.319292 6.72652C 0.142904 6.72652 -3.06786e-08 6.8709 -3.06786e-08 7.0491L -3.06786e-08 10.3294C 3.86339e-05 10.5075 0.142943 10.652 0.31933 10.652Z"/>
</defs>
</svg>
