<svg width="32" height="30" viewBox="0 0 32 30" version="1.1" xmlns="http://www.w3.org/2000/svg" xmlns:xlink="http://www.w3.org/1999/xlink">
<title>wallet (1)</title>
<desc>Created using Figma</desc>
<g id="Canvas" transform="translate(-6301 186)">
<g id="wallet (1)">
<g id="Vector">
<use xlink:href="#path0_fill" transform="translate(6301 -186)" fill="#8AC24A"/>
</g>
<g id="Vector">
<use xlink:href="#path1_fill" transform="translate(6301 -186)" fill="#689E38"/>
</g>
<g id="Vector">
<use xlink:href="#path2_fill" transform="translate(6301 -179.558)" fill="#5D4037"/>
</g>
<g id="Vector">
<use xlink:href="#path3_fill" transform="translate(6301 -179.558)" fill="#4E342E"/>
</g>
<g id="Vector">
<use xlink:href="#path4_fill" transform="translate(6321.36 -172.688)" fill="#FE9700"/>
</g>
<g id="Vector">
<use xlink:href="#path5_fill" transform="translate(6321.36 -172.688)" fill="#F47C00"/>
</g>
<g id="Vector">
<use xlink:href="#path6_fill" transform="translate(6324.59 -168.936)" fill="#1D1D1B"/>
</g>
</g>
</g>
<defs>
<path id="path0_fill" d="M 22.7284 7.0633L 20.7832 0.709447C 20.7039 0.449693 20.523 0.233387 20.2823 0.110009C 20.0411 -0.0136212 19.7608 -0.0339646 19.5052 0.0536249L 0.677979 6.49525C 0.155041 6.67407 -0.124459 7.24475 0.0537286 7.77017C 0.195291 8.18808 0.583979 8.45104 1.00023 8.45104C 1.10717 8.45104 1.21579 8.43384 1.32248 8.3971L 4.14054 7.43299L 20.7276 7.36311L 20.8167 7.65401C 20.9791 8.18432 21.5381 8.4825 22.0664 8.31918C 22.5943 8.15594 22.8907 7.59379 22.7284 7.0633Z"/>
<path id="path1_fill" d="M 22.7235 7.0633L 20.7784 0.709447C 20.6991 0.449693 20.5182 0.233387 20.2775 0.110009C 20.0362 -0.0136212 19.756 -0.0339646 19.5004 0.0536249L 0.67315 6.49525C 0.250462 6.63973 -0.00847555 7.04101 0.000211953 7.46652L 16.3129 1.88528C 16.5685 1.79775 16.8488 1.81804 17.09 1.94167C 17.3307 2.06504 17.5116 2.28135 17.5909 2.5411L 19.0692 7.36989L 20.7227 7.36305L 20.8118 7.65394C 20.9742 8.18425 21.5332 8.48243 22.0615 8.31912C 22.5895 8.15594 22.8859 7.59379 22.7235 7.0633Z"/>
<path id="path2_fill" d="M 27.4634 8.8795C 28.0156 8.8795 28.4634 8.42994 28.4634 7.87489L 28.4634 2.87764C 28.4634 1.29099 27.178 1.53291e-08 25.598 1.53291e-08L 1 1.53291e-08C 0.44775 1.53291e-08 1.18743e-11 0.449814 1.18743e-11 1.00461L 1.18743e-11 22.5538C 1.18743e-11 23.1088 0.44775 23.5584 1 23.5584L 25.598 23.5584C 27.178 23.5584 28.4634 22.2673 28.4634 20.68L 28.4634 15.683C 28.4634 15.1279 28.0156 14.6784 27.4634 14.6784L 27.4634 8.8795Z"/>
<path id="path3_fill" d="M 28.4634 7.87489L 28.4634 2.87764C 28.4634 1.29099 27.178 -1.91614e-08 25.598 -1.91614e-08L 25.0438 -1.91614e-08C 25.4025 0.480455 25.6178 1.075 25.6178 1.72052L 25.6178 6.71777C 25.6178 7.27282 25.1701 7.72238 24.6178 7.72238L 24.6178 13.5211C 25.1701 13.5211 25.6178 13.9707 25.6178 14.5257L 25.6178 19.5228C 25.6178 21.1101 24.3324 22.4012 22.7524 22.4012L -6.98492e-12 22.4012L -6.98492e-12 22.5538C -6.98492e-12 23.1088 0.44775 23.5584 1 23.5584L 25.598 23.5584C 27.178 23.5584 28.4634 22.2673 28.4634 20.68L 28.4634 15.683C 28.4634 15.1279 28.0156 14.6784 27.4634 14.6784L 27.4634 8.87956C 28.0156 8.87944 28.4634 8.42988 28.4634 7.87489Z"/>
<path id="path4_fill" d="M 10.6371 -9.96394e-08L 1 -9.96394e-08C 0.44775 -9.96394e-08 -1.52588e-08 0.449814 -1.52588e-08 1.00461L -1.52588e-08 8.81257C -1.52588e-08 9.36737 0.44775 9.81718 1 9.81718L 10.6371 9.81718C 11.1894 9.81718 11.6371 9.36737 11.6371 8.81257L 11.6371 1.00467C 11.6371 0.449815 11.1894 -9.96394e-08 10.6371 -9.96394e-08Z"/>
<path id="path5_fill" d="M 10.6371 -9.96394e-08L 10.5746 -9.96394e-08L 10.5746 7.0545C 10.5746 7.6093 10.1269 8.05911 9.57463 8.05911L -1.52588e-08 8.05911L -1.52588e-08 8.81257C -1.52588e-08 9.36737 0.44775 9.81718 1 9.81718L 10.6371 9.81718C 11.1894 9.81718 11.6371 9.36737 11.6371 8.81257L 11.6371 1.00467C 11.6371 0.449815 11.1894 -9.96394e-08 10.6371 -9.96394e-08Z"/>
<path id="path6_fill" d="M 2.13623e-07 1.15668C 2.13623e-07 0.517813 0.515375 -6.13166e-07 1.15181 -6.13166e-07C 1.78756 -6.13166e-07 2.30294 0.51775 2.30294 1.15668C 2.30294 1.79681 1.78756 2.31381 1.15181 2.31381C 0.515375 2.31387 2.13623e-07 1.79681 2.13623e-07 1.15668Z"/>
</defs>
</svg>
