<svg width="24" height="24" viewBox="0 0 24 24" version="1.1" xmlns="http://www.w3.org/2000/svg" xmlns:xlink="http://www.w3.org/1999/xlink">
<title>wallet (2)</title>
<desc>Created using Figma</desc>
<g id="Canvas" transform="translate(-4838 -1241)">
<g id="wallet (2)">
<g id="Group">
<g id="Group">
<g id="Group">
<g id="Vector">
<use xlink:href="#path0_fill" transform="translate(4838 1241)" fill="#F07C00"/>
</g>
<g id="Vector">
<use xlink:href="#path1_fill" transform="translate(4855 1254)" fill="#F07C00"/>
</g>
</g>
</g>
</g>
</g>
</g>
<defs>
<path id="path0_fill" d="M 23.0003 9.99981L 22.0003 9.99981L 22.0003 5.99977C 22.0003 4.89673 21.1033 3.99972 20.0002 3.99972L 19.6182 3.99972L 17.8942 0.552667C 17.6622 0.0876603 17.1112 -0.121359 16.6282 0.0716756L 2.80706 3.99977L 2.00005 3.99977C 0.897014 3.99977 0 4.89678 0 5.99977L 0 22C 0 23.103 0.897014 24 2.00005 24L 20.0003 24C 21.1033 24 22.0003 23.103 22.0003 22L 22.0003 18L 23.0003 18C 23.5523 18 24.0003 17.552 24.0003 17L 24.0003 10.9999C 24.0003 10.4478 23.5523 9.99981 23.0003 9.99981ZM 16.5172 2.26973L 17.3822 3.99977L 8.19313 3.99977L 16.5172 2.26973ZM 19.9972 22L 2.00005 22L 2.00005 5.99977L 20.0003 5.99977L 20.0003 9.99981L 17.0002 9.99981C 16.7352 9.99981 16.4802 10.1058 16.2932 10.2938L 13.2932 13.2939C 12.9022 13.6839 12.9022 14.3159 13.2932 14.7079L 16.2932 17.7079C 16.4802 17.8939 16.7352 17.9999 17.0002 17.9999L 19.9983 17.9999L 19.9972 22ZM 22.0003 15.9999L 17.4142 15.9999L 15.4141 13.9999L 17.4142 11.9998L 22.0003 11.9998L 22.0003 15.9999Z"/>
<path id="path1_fill" d="M 1 2C 1.55228 2 2 1.55228 2 1C 2 0.447715 1.55228 0 1 0C 0.447715 0 0 0.447715 0 1C 0 1.55228 0.447715 2 1 2Z"/>
</defs>
</svg>
